<svg width="770" height="664" viewBox="0 0 770 664" fill="none" xmlns="http://www.w3.org/2000/svg">
<mask id="mask0" mask-type="alpha" maskUnits="userSpaceOnUse" x="116" y="0" width="654" height="641">
<path d="M236.467 504.685C61.616 307.358 128.247 41.3742 384.905 32.8339C641.562 24.2936 426.455 230.965 631.456 274.853C836.457 318.741 720.963 474.496 675.343 524.896C629.722 575.297 411.318 702.011 236.467 504.685Z" fill="#C4C4C4"/>
</mask>
<g mask="url(#mask0)">
<path fill-rule="evenodd" clip-rule="evenodd" d="M748.904 522.881C776.292 383.897 802.959 44.8488 724.247 33.5535C645.536 22.2582 194.715 458.411 248.661 559.473C302.607 660.535 715.843 690.654 748.904 522.881Z" fill="#F4CE45"/>
<path fill-rule="evenodd" clip-rule="evenodd" d="M132.136 97.9898C141.6 224.753 666.635 300.074 725.023 399.37C783.412 498.666 814.4 38.3803 725.024 -33.9706C635.649 -106.321 120.711 -55.0324 132.136 97.9898Z" fill="#F64942"/>
<path fill-rule="evenodd" clip-rule="evenodd" d="M152.359 125.933C244.832 272.656 363.404 237.703 464.208 434.315C600.389 674.216 73.1105 743.435 74.0503 508.955C74.9901 274.476 40.7314 -51.1836 152.359 125.933Z" fill="#EF90A4"/>
<path fill-rule="evenodd" clip-rule="evenodd" d="M66.1508 94.2125C74.1123 257.598 221.586 347.773 308.862 340.33C583.84 316.879 595.221 11.562 552.269 -35.318C509.317 -82.198 56.5402 -103.018 66.1508 94.2125Z" fill="#5B95BF"/>
</g>
<rect opacity="0.1" x="202.745" y="142.012" width="379.565" height="458.44" rx="12.1638" fill="#575FCF"/>
<g filter="url(#filter0_d)">
<rect x="187.879" y="124.443" width="379.565" height="458.44" rx="12.1638" fill="white"/>
<rect x="188.23" y="124.794" width="378.862" height="457.738" rx="11.8124" stroke="#F8F8F8" stroke-width="0.702798"/>
</g>
<mask id="mask1" mask-type="alpha" maskUnits="userSpaceOnUse" x="187" y="124" width="381" height="459">
<rect x="188.23" y="124.794" width="378.862" height="457.738" rx="11.8124" fill="white" stroke="white" stroke-width="0.702798"/>
</mask>
<g mask="url(#mask1)">
<rect x="244.644" y="166.34" width="147.317" height="24.3276" rx="12.1638" fill="#E8E8E8"/>
<rect x="244.644" y="244.729" width="66.2252" height="13.5153" rx="6.75767" fill="#E8E8E8"/>
<rect x="244.644" y="339.336" width="93.2559" height="13.5153" rx="6.75767" fill="#E8E8E8"/>
<rect x="266.269" y="271.76" width="93.2559" height="10.8123" rx="5.40614" fill="#E8E8E8"/>
<rect x="266.269" y="366.367" width="66.2252" height="10.8123" rx="5.40614" fill="#E8E8E8"/>
<rect x="266.269" y="392.046" width="120.287" height="10.8123" rx="5.40614" fill="#E8E8E8"/>
<rect x="266.269" y="419.077" width="120.287" height="10.8123" rx="5.40614" fill="#E8E8E8"/>
<rect x="266.269" y="446.107" width="120.287" height="10.8123" rx="5.40614" fill="#E8E8E8"/>
<rect x="266.269" y="297.439" width="93.2559" height="10.8123" rx="5.40614" fill="#E8E8E8"/>
</g>
<rect x="242.156" y="499.113" width="29.5175" height="29.2826" rx="14.6413" fill="#575FCF"/>
<path d="M257.672 513.988L257.692 518.77C257.693 519.183 257.359 519.517 256.946 519.515C256.532 519.513 256.196 519.177 256.194 518.764L256.176 513.982L251.394 513.963C250.98 513.961 250.644 513.625 250.642 513.212C250.641 512.798 250.974 512.464 251.388 512.466L256.17 512.486L256.15 507.704C256.149 507.29 256.482 506.956 256.896 506.958C257.309 506.96 257.646 507.296 257.647 507.71L257.666 512.492L262.448 512.51C262.861 512.512 263.198 512.848 263.199 513.262C263.201 513.675 262.867 514.009 262.454 514.007L257.672 513.988Z" fill="white"/>
<path fill-rule="evenodd" clip-rule="evenodd" d="M228.166 247.806C228.166 247.224 228.633 246.752 229.21 246.752C229.786 246.752 230.253 247.224 230.253 247.806C230.253 248.388 229.786 248.86 229.21 248.86C228.633 248.86 228.166 248.388 228.166 247.806ZM228.166 253.428C228.166 252.846 228.633 252.374 229.21 252.374C229.786 252.374 230.253 252.846 230.253 253.428C230.253 254.011 229.786 254.483 229.21 254.483C228.633 254.483 228.166 254.011 228.166 253.428ZM229.21 249.563C228.633 249.563 228.166 250.035 228.166 250.617C228.166 251.199 228.633 251.671 229.21 251.671C229.786 251.671 230.253 251.199 230.253 250.617C230.253 250.035 229.786 249.563 229.21 249.563Z" fill="#CCCCCC"/>
<path fill-rule="evenodd" clip-rule="evenodd" d="M230.977 247.806C230.977 247.224 231.444 246.752 232.02 246.752C232.596 246.752 233.063 247.224 233.063 247.806C233.063 248.388 232.596 248.86 232.02 248.86C231.444 248.86 230.977 248.388 230.977 247.806ZM230.977 253.428C230.977 252.846 231.444 252.374 232.02 252.374C232.596 252.374 233.063 252.846 233.063 253.428C233.063 254.011 232.596 254.483 232.02 254.483C231.444 254.483 230.977 254.011 230.977 253.428ZM232.02 249.563C231.444 249.563 230.977 250.035 230.977 250.617C230.977 251.199 231.444 251.671 232.02 251.671C232.596 251.671 233.063 251.199 233.063 250.617C233.063 250.035 232.596 249.563 232.02 249.563Z" fill="#CCCCCC"/>
<rect x="243.264" y="268.01" width="14.7588" height="14.5996" rx="5.27098" fill="white" fill-opacity="0.0606884" stroke="#CCCCCC" stroke-width="0.702798"/>
<path d="M253.103 273.223L250.226 277.198C250.105 277.325 249.941 277.396 249.769 277.396C249.598 277.396 249.433 277.325 249.312 277.198L247.832 275.643" stroke="#CCCCCC" stroke-width="1.4056" stroke-linecap="round" stroke-linejoin="round"/>
<rect x="243.264" y="362.617" width="14.7588" height="14.5996" rx="5.27098" fill="white" fill-opacity="0.0606884" stroke="#CCCCCC" stroke-width="0.702798"/>
<path d="M253.103 367.83L250.226 371.805C250.105 371.932 249.941 372.003 249.769 372.003C249.598 372.003 249.433 371.932 249.312 371.805L247.832 370.25" stroke="#CCCCCC" stroke-width="1.4056" stroke-linecap="round" stroke-linejoin="round"/>
<rect x="243.264" y="388.296" width="14.7588" height="14.5996" rx="5.27098" fill="white" fill-opacity="0.0606884" stroke="#CCCCCC" stroke-width="0.702798"/>
<rect x="243.264" y="415.327" width="14.7588" height="14.5996" rx="5.27098" fill="white" fill-opacity="0.0606884" stroke="#CCCCCC" stroke-width="0.702798"/>
<rect x="243.264" y="442.358" width="14.7588" height="14.5996" rx="5.27098" fill="white" fill-opacity="0.0606884" stroke="#CCCCCC" stroke-width="0.702798"/>
<rect x="243.264" y="293.746" width="14.7588" height="14.5996" rx="5.27098" fill="white" fill-opacity="0.0606884" stroke="#CCCCCC" stroke-width="0.702798"/>
<path opacity="0.133315" fill-rule="evenodd" clip-rule="evenodd" d="M247.021 209.508C247.021 206.116 249.771 203.367 253.163 203.367H322.567C325.959 203.367 328.708 206.116 328.708 209.508V209.508C328.708 212.9 325.959 215.649 322.567 215.649H253.163C249.771 215.649 247.021 212.9 247.021 209.508V209.508Z" fill="#575FCF"/>
<rect x="247.021" y="203.367" width="31.9503" height="12.2826" rx="6.14129" fill="#575FCF"/>
<path fill-rule="evenodd" clip-rule="evenodd" d="M239.366 298.971L228.118 306.936C222.936 302.823 217.753 298.71 212.571 294.597L217.798 282.795C217.923 282.533 218.082 282.303 218.273 282.105C218.975 281.378 220.04 281.131 221.019 281.566C222.258 282.125 222.799 283.541 222.268 284.815L219.419 291.255C220.762 290.062 222.137 288.901 223.479 287.708L231.673 277.113C232.499 276.06 234.05 275.835 235.1 276.658C236.149 277.48 236.368 279.031 235.542 280.085L227.253 290.844L234.133 285.363C235.19 284.532 236.747 284.696 237.574 285.75C238.4 286.803 238.23 288.362 237.173 289.193L236.309 289.89C237.309 289.579 238.448 289.914 239.077 290.777C239.871 291.863 239.604 293.392 238.482 294.159L238.001 294.525C238.779 294.51 239.562 294.883 240.058 295.554C240.756 296.675 240.488 298.204 239.366 298.971V298.971Z" fill="#FF6876"/>
<path fill-rule="evenodd" clip-rule="evenodd" d="M229.48 288.637L229.435 288.629C229.308 288.559 229.279 288.46 229.303 288.323L231.012 284.671C231.081 284.542 231.179 284.513 231.314 284.536C231.441 284.606 231.47 284.705 231.445 284.842L229.736 288.494C229.667 288.623 229.57 288.653 229.48 288.637V288.637Z" fill="black"/>
<path fill-rule="evenodd" clip-rule="evenodd" d="M233.688 290.871C233.688 290.871 233.643 290.863 233.598 290.855C233.471 290.785 233.45 290.64 233.511 290.557L234.996 287.66C235.065 287.53 235.208 287.508 235.29 287.57C235.417 287.639 235.438 287.785 235.376 287.868L233.892 290.765C233.884 290.811 233.777 290.886 233.688 290.871V290.871Z" fill="black"/>
<path fill-rule="evenodd" clip-rule="evenodd" d="M140.302 587.113C140.066 588.192 139.837 589.226 139.555 590.297C133.528 591.663 127.493 593.074 121.466 594.439C121.408 594.242 119.976 590.814 116.25 590.157C112.568 589.508 110.058 592.194 109.928 592.405C109.944 592.314 110.005 592.232 110.029 592.096C110.045 592.005 110.106 591.923 110.175 591.795C110.251 591.621 110.336 591.403 110.421 591.184C110.49 591.056 110.506 590.966 110.575 590.838C110.575 590.838 110.575 590.838 110.583 590.792C110.652 590.664 110.668 590.574 110.736 590.446C110.829 590.182 110.967 589.926 111.06 589.662C111.137 589.489 111.213 589.316 111.282 589.188C111.359 589.015 111.436 588.841 111.513 588.668C111.606 588.404 111.743 588.148 111.828 587.93C111.905 587.756 111.974 587.628 112.006 587.447C112.099 587.183 112.183 586.965 112.313 586.754C112.382 586.626 112.459 586.453 112.483 586.317C112.499 586.227 112.56 586.144 112.576 586.053C112.645 585.925 112.66 585.835 112.721 585.752C112.729 585.707 112.79 585.624 112.798 585.579C112.806 585.533 112.814 585.488 112.867 585.451C112.883 585.36 112.944 585.278 112.96 585.187C112.968 585.142 112.976 585.096 113.029 585.059C113.368 584.185 113.744 583.364 114.128 582.497L140.302 587.113V587.113Z" fill="#FF6876"/>
<path fill-rule="evenodd" clip-rule="evenodd" d="M77.4744 576.272C77.2541 577.259 77.0416 578.201 76.8742 579.151C71.0992 580.884 65.3692 582.625 59.5863 584.403C59.4043 583.858 58.4994 581.367 55.8558 580.061C52.1892 578.249 48.609 580.415 48.3973 580.565C48.4053 580.519 48.4133 580.474 48.4662 580.437C48.4742 580.392 48.5351 580.309 48.551 580.219C49.0121 579.181 49.9184 577.196 50.6709 575.556C50.7637 575.293 50.9015 575.037 51.0392 574.782C51.2698 574.263 51.4844 573.835 51.6381 573.489C51.707 573.361 51.7229 573.27 51.7838 573.188C52.0144 572.669 52.237 572.195 52.4675 571.676C59.7789 573.059 69.8404 574.88 77.4744 576.272V576.272Z" fill="#FF6876"/>
<path fill-rule="evenodd" clip-rule="evenodd" d="M76.8138 579.158C73.5309 580.17 70.2479 581.182 66.973 582.149C66.19 582.385 65.4069 582.622 64.6688 582.866C62.952 583.405 61.288 583.907 59.5792 584.401C59.4265 583.953 58.7419 582.055 56.8957 580.7C56.5682 580.455 56.2407 580.21 55.8073 580.04C55.4269 579.832 54.9935 579.662 54.634 579.599C51.4095 578.703 48.5538 580.445 48.3501 580.55C48.7268 579.727 49.6341 577.735 50.4116 575.953C50.5735 575.561 50.7803 575.176 50.9422 574.784C51.4365 574.871 52.0207 574.974 52.6579 575.039C57.0329 575.717 63.9165 576.884 69.1743 577.811C70.0281 577.962 70.792 578.097 71.556 578.231C74.7017 578.786 76.8138 579.158 76.8138 579.158V579.158Z" fill="#1F0D60"/>
<path fill-rule="evenodd" clip-rule="evenodd" d="M52.5818 575.323C52.4615 576.005 51.8288 576.503 51.1243 576.379C50.8161 576.325 50.568 576.187 50.3799 575.966C50.5402 575.572 50.7444 575.186 50.9047 574.792C51.389 574.878 51.9614 574.979 52.5859 575.042C52.6138 575.141 52.5978 575.232 52.5818 575.323V575.323Z" fill="white"/>
<path fill-rule="evenodd" clip-rule="evenodd" d="M57.0766 580.167C57.0451 580.345 56.9685 580.516 56.847 580.679C56.5187 580.437 56.1903 580.195 55.7562 580.026C55.3749 579.82 54.9408 579.652 54.5809 579.588C54.7812 578.978 55.3999 578.626 56.0297 578.737C56.7575 578.82 57.2027 579.451 57.0766 580.167V580.167Z" fill="white"/>
<path fill-rule="evenodd" clip-rule="evenodd" d="M61.8638 579.455C62.5595 579.577 63.222 579.118 63.3434 578.43C63.4649 577.741 62.9994 577.083 62.3036 576.96C61.6079 576.837 60.9455 577.296 60.824 577.985C60.7026 578.674 61.1681 579.332 61.8638 579.455Z" fill="white"/>
<path fill-rule="evenodd" clip-rule="evenodd" d="M66.9205 582.121C66.1389 582.352 65.3573 582.583 64.6207 582.821C64.4355 582.558 64.3559 582.222 64.419 581.864C64.5372 581.194 65.1786 580.708 65.8971 580.835C66.473 580.982 66.9331 581.524 66.9205 582.121V582.121Z" fill="white"/>
<path fill-rule="evenodd" clip-rule="evenodd" d="M71.5474 578.695C71.4297 579.362 70.7879 579.845 70.068 579.718C69.3932 579.599 68.9025 578.962 69.028 578.25C69.0516 578.117 69.0751 577.983 69.1436 577.858C69.9984 578.009 70.7632 578.143 71.528 578.278C71.6023 578.383 71.5788 578.517 71.5474 578.695V578.695Z" fill="white"/>
<path fill-rule="evenodd" clip-rule="evenodd" d="M139.577 590.375C133.542 591.749 127.499 593.168 121.464 594.542C121.406 594.344 119.973 590.903 116.243 590.246C113.996 589.849 112.222 590.709 111.118 591.452C110.385 591.932 109.974 592.422 109.921 592.459C110.075 592.112 110.314 591.544 110.569 590.886C111.278 589.229 112.251 586.869 112.798 585.606L139.585 590.329L139.577 590.375Z" fill="#1F0D60"/>
<path fill-rule="evenodd" clip-rule="evenodd" d="M124.052 592.477C124.775 592.605 125.465 592.116 125.594 591.386C125.723 590.656 125.241 589.961 124.518 589.833C123.795 589.706 123.105 590.194 122.976 590.924C122.847 591.655 123.329 592.35 124.052 592.477Z" fill="white"/>
<path fill-rule="evenodd" clip-rule="evenodd" d="M133.673 589.762C133.543 590.499 132.852 590.994 132.131 590.867C131.41 590.74 130.974 590.046 131.104 589.309C131.137 589.125 131.206 588.994 131.276 588.864L133.664 589.285C133.685 589.432 133.706 589.578 133.673 589.762V589.762Z" fill="white"/>
<path fill-rule="evenodd" clip-rule="evenodd" d="M118.606 587.105C118.476 587.842 117.784 588.337 117.062 588.21C116.339 588.082 115.858 587.38 115.988 586.643C116.021 586.459 116.09 586.329 116.16 586.199L118.552 586.621C118.618 586.775 118.639 586.921 118.606 587.105V587.105Z" fill="white"/>
<path fill-rule="evenodd" clip-rule="evenodd" d="M111.118 591.44C110.385 591.924 109.974 592.417 109.921 592.455C110.075 592.105 110.315 591.534 110.57 590.872C110.824 591.011 111.024 591.188 111.118 591.44V591.44Z" fill="white"/>
<path fill-rule="evenodd" clip-rule="evenodd" d="M102.081 619.123C85.1926 613.911 68.3038 608.699 51.415 603.487L51.4948 599.018L47.3201 602.235C43.7782 601.2 40.2061 600.107 36.6642 599.072C38.8286 595.576 41.0499 592.049 43.241 588.465C45.4187 584.925 47.5395 581.415 49.7039 577.918C49.9316 577.797 53.7391 576.093 57.1514 578.332C59.6118 579.944 60.207 582.516 60.3214 583.077C66.2501 582.07 72.1352 581.049 78.0772 579.999C76.5535 584.36 75.0297 588.722 73.506 593.083C80.2197 597.143 85.6998 600.253 89.4838 602.366C96.7302 606.398 101.134 608.51 102.354 613.089C102.929 615.415 102.536 617.637 102.081 619.123V619.123Z" fill="#FFB800"/>
<path fill-rule="evenodd" clip-rule="evenodd" d="M172.456 617.648C154.317 617.286 136.224 616.925 118.085 616.563L116.887 612.048L113.618 616.486C110.428 616.43 107.237 616.375 104.048 616.273C105.962 608.523 107.831 600.725 109.744 592.975C109.839 592.791 111.899 589.723 115.637 589.742C119.42 589.808 121.324 592.991 121.458 593.179C127.197 590.869 132.937 588.514 138.677 586.204C138.367 590.878 138.011 595.552 137.701 600.226C145.279 602.303 151.407 603.8 155.63 604.8C163.712 606.655 168.53 607.526 170.965 611.645C172.294 613.846 172.483 616.073 172.456 617.648V617.648Z" fill="#FFB800"/>
<path fill-rule="evenodd" clip-rule="evenodd" d="M75.3241 587.435L66.832 585.938C66.6972 585.914 66.6232 585.808 66.6469 585.674C66.6707 585.539 66.7764 585.465 66.9112 585.489L75.4032 586.986C75.538 587.01 75.6121 587.116 75.5883 587.25C75.5646 587.385 75.4589 587.459 75.3241 587.435V587.435Z" fill="#1F0D60"/>
<path fill-rule="evenodd" clip-rule="evenodd" d="M74.8934 589.88L66.4013 588.382C66.2666 588.358 66.1925 588.253 66.2163 588.118C66.24 587.983 66.3457 587.909 66.4805 587.933L74.9726 589.431C75.1074 589.454 75.1814 589.56 75.1576 589.695C75.1339 589.829 75.0282 589.903 74.8934 589.88V589.88Z" fill="#1F0D60"/>
<path fill-rule="evenodd" clip-rule="evenodd" d="M138.121 598.456V598.456L129.637 596.914C129.502 596.89 129.428 596.783 129.452 596.647C129.476 596.511 129.582 596.436 129.717 596.46V596.46L138.201 598.003C138.336 598.027 138.41 598.133 138.386 598.269C138.362 598.405 138.256 598.48 138.121 598.456V598.456Z" fill="#1F0D60"/>
<path fill-rule="evenodd" clip-rule="evenodd" d="M137.69 600.901V600.901L129.206 599.358C129.071 599.334 128.998 599.228 129.022 599.092C129.046 598.956 129.196 598.889 129.286 598.905L137.77 600.447C137.905 600.471 137.979 600.578 137.955 600.714C137.931 600.85 137.825 600.925 137.69 600.901V600.901Z" fill="#1F0D60"/>
<path fill-rule="evenodd" clip-rule="evenodd" d="M165.706 429.863C139.615 432.842 113.516 435.867 87.4247 438.846C72.3162 482.505 57.2527 526.171 42.1892 569.837C42.5935 569.908 46.681 570.629 52.3327 571.672C59.7362 573.024 69.7898 574.844 77.4179 576.235C82.9349 577.255 87.2021 578.007 88.325 578.205C99.3092 541.915 110.33 505.678 121.314 469.387C116.455 506.664 111.641 543.949 106.789 581.18L114.066 582.464L140.254 587.081L151.618 589.085C156.344 536.016 161.025 482.939 165.706 429.863V429.863Z" fill="#D4DFEB"/>
<path fill-rule="evenodd" clip-rule="evenodd" d="M146.066 588.283C145.976 588.267 145.857 588.153 145.873 588.062C148.563 535.775 151.306 483.451 153.996 431.164C154.02 431.028 154.126 430.953 154.224 430.924C154.358 430.948 154.432 431.054 154.461 431.153C151.771 483.439 149.028 535.764 146.339 588.05C146.352 588.24 146.246 588.315 146.066 588.283C146.111 588.291 146.066 588.283 146.066 588.283V588.283Z" fill="#1F0D60"/>
<path fill-rule="evenodd" clip-rule="evenodd" d="M63.4672 573.925C63.4222 573.917 63.4222 573.917 63.3773 573.909C63.2505 573.84 63.2296 573.696 63.2905 573.613L120.993 469.41C121.062 469.282 121.205 469.26 121.287 469.322C121.414 469.391 121.435 469.535 121.374 469.617L63.7158 573.828C63.6549 573.911 63.557 573.94 63.4672 573.925V573.925Z" fill="#1F0D60"/>
<path fill-rule="evenodd" clip-rule="evenodd" d="M56.4149 375.44V375.44L48.9726 354.913C48.857 354.518 48.7414 354.124 48.6338 353.684C47.8825 351.121 47.1053 348.179 46.3312 344.956C46.2943 344.903 46.3103 344.813 46.2734 344.759L59.5642 381.465C58.7108 380.006 57.668 378.045 56.4149 375.44V375.44Z" fill="#FF6876"/>
<path fill-rule="evenodd" clip-rule="evenodd" d="M140.821 432.807C140.49 432.842 140.204 432.885 139.874 432.92L105.609 338.429C105.874 338.242 106.102 338.001 106.366 337.814L140.821 432.807V432.807Z" fill="#FF6876"/>
<path fill-rule="evenodd" clip-rule="evenodd" d="M150.789 431.735C150.459 431.77 150.173 431.814 149.843 431.849L114.118 333.214C114.224 333.139 114.367 333.117 114.517 333.05C114.668 332.983 114.819 332.916 115.014 332.857L150.789 431.735V431.735Z" fill="#FF6876"/>
<path fill-rule="evenodd" clip-rule="evenodd" d="M160.785 430.514C160.454 430.549 160.169 430.592 159.838 430.628L123.71 330.817C124.04 330.782 124.371 330.747 124.648 330.749L160.785 430.514V430.514Z" fill="#FF6876"/>
<path fill-rule="evenodd" clip-rule="evenodd" d="M170.762 429.393C170.431 429.428 170.146 429.471 169.815 429.506L134.085 330.903C134.363 330.905 134.73 330.923 135.06 330.888L170.762 429.393V429.393Z" fill="#FF6876"/>
<path fill-rule="evenodd" clip-rule="evenodd" d="M173.527 410.819L144.56 331.006C144.883 331.016 145.205 331.026 145.528 331.036L173.737 408.845C173.714 409.496 173.602 410.131 173.527 410.819V410.819Z" fill="#FF6876"/>
<path fill-rule="evenodd" clip-rule="evenodd" d="M176.187 389.375L155.281 331.727C155.633 331.836 155.984 331.945 156.343 332.008L176.405 387.354C176.329 388.043 176.254 388.731 176.187 389.375V389.375Z" fill="#FF6876"/>
<path fill-rule="evenodd" clip-rule="evenodd" d="M182.152 374.325C181.8 374.216 181.403 374.099 181.051 373.991L166.75 334.572C167.102 334.681 167.499 334.798 167.851 334.907L182.152 374.325V374.325Z" fill="#FF6876"/>
<path fill-rule="evenodd" clip-rule="evenodd" d="M193.445 376.728C193.175 376.68 192.951 376.641 192.681 376.593C192.591 376.577 192.502 376.562 192.412 376.546L178.731 338.845C179.12 339.007 179.508 339.169 179.896 339.331L193.445 376.728V376.728Z" fill="#FF6876"/>
<path fill-rule="evenodd" clip-rule="evenodd" d="M204.398 378.154C204.353 378.146 204.308 378.138 204.219 378.123C203.949 378.075 203.671 378.073 203.394 378.071L191.296 344.713C191.676 344.92 192.102 345.135 192.49 345.297L204.398 378.154V378.154Z" fill="#FF6876"/>
<path fill-rule="evenodd" clip-rule="evenodd" d="M214.813 378.307C214.482 378.342 214.197 378.386 213.875 378.376L203.603 350.021C203.954 350.13 204.313 350.193 204.672 350.256L214.813 378.307V378.307Z" fill="#FF6876"/>
<path fill-rule="evenodd" clip-rule="evenodd" d="M224.454 375.92C224.197 376.062 223.903 376.15 223.601 376.284L212.204 344.868C212.3 344.324 212.404 343.735 212.523 343.055L224.454 375.92V375.92Z" fill="#FF6876"/>
<path fill-rule="evenodd" clip-rule="evenodd" d="M232.339 369.037C232.141 369.376 231.942 369.716 231.743 370.055L214.18 321.599C214.234 320.766 214.236 319.971 214.245 319.13L232.339 369.037V369.037Z" fill="#FF6876"/>
<path fill-rule="evenodd" clip-rule="evenodd" d="M235.772 352.453L217.615 302.328C217.937 302.338 218.296 302.401 218.619 302.411L235.866 350.081C235.82 350.869 235.774 351.657 235.772 352.453V352.453Z" fill="#FF6876"/>
<path fill-rule="evenodd" clip-rule="evenodd" d="M235.944 324.036L228.331 303.086C228.653 303.096 229.013 303.159 229.335 303.169L235.753 320.914C235.847 321.96 235.896 322.998 235.944 324.036V324.036Z" fill="#FF6876"/>
<path fill-rule="evenodd" clip-rule="evenodd" d="M51.6176 330.628C51.3139 330.762 51.0554 330.904 50.7597 330.992L48.6556 325.184C48.9513 325.095 49.2471 325.007 49.5348 324.964L51.6176 330.628V330.628Z" fill="#FF7D80"/>
<path fill-rule="evenodd" clip-rule="evenodd" d="M75.9734 397.887C75.6138 397.824 75.2623 397.715 74.9107 397.607V397.607L50.7392 330.989C50.9959 330.847 51.2976 330.713 51.5913 330.625L75.9734 397.887V397.887Z" fill="#FF6876"/>
<path fill-rule="evenodd" clip-rule="evenodd" d="M90.701 438.578C90.3704 438.614 90.0847 438.657 89.7542 438.692L85.5537 427.039C85.6947 426.502 85.8278 426.01 85.9688 425.473L90.701 438.578V438.578Z" fill="#FF6876"/>
<path fill-rule="evenodd" clip-rule="evenodd" d="M60.5382 326.543C60.5382 326.543 60.2329 326.676 59.7214 326.914L58.1927 322.802C58.49 322.713 58.7873 322.625 59.0766 322.583L60.5087 326.444L60.5382 326.543V326.543Z" fill="#FF7D80"/>
<path fill-rule="evenodd" clip-rule="evenodd" d="M86.1607 397.308C85.8671 397.397 85.5736 397.485 85.28 397.574L59.6624 326.89C60.1677 326.652 60.4693 326.518 60.4693 326.518L60.4933 326.382L86.1607 397.308V397.308Z" fill="#FF6876"/>
<path fill-rule="evenodd" clip-rule="evenodd" d="M100.678 437.457C100.348 437.492 100.063 437.536 99.7331 437.571L89.9503 410.478C90.0912 409.941 90.2241 409.45 90.365 408.913L100.678 437.457V437.457Z" fill="#FF6876"/>
<path fill-rule="evenodd" clip-rule="evenodd" d="M110.713 436.294C110.383 436.33 110.098 436.373 109.768 436.408L94.3584 393.865L94.198 393.463L83.1156 362.867C83.2054 362.883 83.2952 362.899 83.3401 362.907C83.5725 362.901 83.8499 362.903 84.0823 362.897V362.897L110.713 436.294V436.294Z" fill="#FF6876"/>
<path fill-rule="evenodd" clip-rule="evenodd" d="M120.749 435.132C120.418 435.167 120.133 435.21 119.802 435.245L91.355 356.871C91.4769 356.705 91.5988 356.539 91.7287 356.328L91.9885 355.906L120.749 435.132V435.132Z" fill="#FF6876"/>
<path fill-rule="evenodd" clip-rule="evenodd" d="M130.736 433.961C130.405 433.996 130.12 434.039 129.789 434.074L98.0986 346.65C98.3343 346.364 98.525 346.07 98.7607 345.784L130.736 433.961V433.961Z" fill="#FF6876"/>
<path fill-rule="evenodd" clip-rule="evenodd" d="M162.943 305.927C164.291 304.059 165.691 302.153 167.039 300.284C164.429 299.075 161.775 297.858 159.166 296.649C156.527 292.72 154.332 289.946 153.555 289.107C152.667 288.108 151.784 287.344 151.784 287.344C151.538 287.16 151.383 286.992 151.183 286.817C151.157 287.748 150.916 289.905 149.43 292.031C147.694 294.533 145.352 295.477 144.517 295.751C145.298 296.31 146.701 297.54 147.592 299.57C149.091 302.876 148.217 305.998 147.938 306.792C143.859 312.344 142.738 314.768 142.643 315.828C142.627 315.918 142.611 316.009 142.611 316.009C142.677 316.161 143.379 317.689 143.165 319.43C143.149 319.521 143.133 319.612 143.109 319.748C143.101 319.793 143.085 319.884 143.077 319.929C143.061 320.02 143.037 320.156 142.976 320.239C142.968 320.284 142.952 320.375 142.899 320.413C142.875 320.549 142.814 320.632 142.745 320.76C142.737 320.805 142.684 320.843 142.668 320.934C142.591 321.107 142.514 321.281 142.393 321.447C141.89 322.201 140.659 323.669 139.497 323.698C139.452 323.69 139.265 323.704 139.032 323.709V323.709C138.702 323.745 138.274 323.81 138.01 323.997C137.957 324.035 137.79 324.192 137.481 324.372C137.428 324.409 137.375 324.447 137.278 324.477C135.642 325.358 133.56 325.88 131.717 325.836C131.705 329.578 131.693 333.321 131.673 337.108C134.932 337.777 138.192 338.445 141.452 339.114C145.23 338.422 149.044 337.784 152.821 337.093L152.859 327.692L152.881 327.041C152.881 327.041 152.861 326.897 152.811 326.654C153.907 326.473 155.296 326.203 156.896 325.268C162.373 322.021 163.855 314.138 163.316 308.801C163.344 307.589 163.145 306.618 162.943 305.927V305.927Z" fill="#FF6876"/>
<path fill-rule="evenodd" clip-rule="evenodd" d="M147.681 299.587C146.742 297.551 145.374 296.374 144.601 295.77C145.437 295.496 147.781 294.553 149.519 292.052C151.013 289.883 151.209 287.719 151.272 286.842C150.178 285.947 148.779 284.952 147.135 284.288C141.182 281.788 133.881 283.775 129.349 287.935C127.908 289.271 126.925 290.642 126.382 291.622L126.374 291.667C122.747 298.044 123.426 307.333 127.482 314.55C127.622 314.809 127.806 315.075 127.946 315.334C128.086 315.592 128.27 315.859 128.418 316.072C128.89 316.81 130.825 318.976 131.435 319.458V319.458C131.591 319.625 131.8 319.756 132 319.932L131.988 324.467L131.973 325.868C133.818 325.912 135.895 325.437 137.541 324.51C137.594 324.473 137.646 324.436 137.744 324.406C138.054 324.227 138.221 324.069 138.274 324.032C138.493 323.836 138.922 323.772 139.297 323.744V323.744C139.53 323.739 139.718 323.725 139.763 323.733C140.918 323.749 142.203 322.245 142.661 321.484C143.104 320.813 143.33 320.058 143.405 319.37C143.566 317.667 142.899 316.193 142.878 316.049C142.878 316.049 142.894 315.958 142.91 315.867C143.004 314.808 144.126 312.386 148.209 306.838C148.308 306.013 149.183 302.893 147.681 299.587V299.587Z" fill="black"/>
<path fill-rule="evenodd" clip-rule="evenodd" d="M148.755 307.768C148.142 306.253 147.045 305.122 145.77 304.475C144.622 303.897 143.328 303.622 142.043 303.817C141.472 303.904 140.938 304.045 140.388 304.276C137.087 305.664 135.536 309.471 136.848 312.799C138.204 316.134 141.959 317.687 145.252 316.344C148.515 314.903 150.111 311.103 148.755 307.768V307.768Z" fill="#FF6876"/>
<path fill-rule="evenodd" clip-rule="evenodd" d="M146.846 312.698V312.698C146.045 312.509 145.451 311.936 145.219 311.145C145.017 310.453 145.137 309.771 145.519 309.182L139.336 307.435C139.201 307.411 139.135 307.259 139.196 307.176C139.22 307.04 139.371 306.972 139.453 307.034L145.988 308.889C146.078 308.905 146.115 308.959 146.144 309.057C146.172 309.156 146.164 309.202 146.103 309.285C145.648 309.767 145.482 310.441 145.648 311.08C145.821 311.673 146.342 312.14 146.963 312.296C147.098 312.32 147.172 312.427 147.148 312.563C147.087 312.646 146.981 312.721 146.846 312.698V312.698Z" fill="black"/>
<path fill-rule="evenodd" clip-rule="evenodd" d="M152.83 295.141C154.342 293.795 155.297 292.399 154.963 292.023C154.629 291.646 153.132 292.432 151.62 293.778C150.108 295.124 149.154 296.52 149.488 296.896C149.822 297.272 151.318 296.486 152.83 295.141Z" fill="black"/>
<path fill-rule="evenodd" clip-rule="evenodd" d="M157.49 315.449C156.183 315.218 154.89 314.382 154.054 313.064C154.017 313.011 153.988 312.912 154.049 312.829C154.11 312.746 154.163 312.709 154.253 312.725L161.987 312.075C162.077 312.091 162.122 312.099 162.204 312.16C162.241 312.214 162.27 312.312 162.262 312.358C162.084 312.841 161.457 314.557 159.764 315.194C159.008 315.529 158.21 315.576 157.49 315.449V315.449ZM154.642 313.113C155.89 314.731 157.862 315.405 159.509 314.763C160.755 314.284 161.367 313.18 161.622 312.526L154.642 313.113V313.113Z" fill="black"/>
<path fill-rule="evenodd" clip-rule="evenodd" d="M156.364 300.024C156.95 300.128 157.51 299.731 157.615 299.139C157.719 298.546 157.328 297.982 156.742 297.879C156.155 297.775 155.595 298.172 155.491 298.764C155.386 299.357 155.777 299.921 156.364 300.024Z" fill="black"/>
<path fill-rule="evenodd" clip-rule="evenodd" d="M40.1301 327.515C41.4621 327.109 42.7902 326.666 44.1222 326.261C49.4774 324.522 54.6265 322.691 59.5695 320.768C59.2215 319.325 55.2085 302.071 52.9491 300.753C51.903 300.142 51.0174 300.311 51.0174 300.311C50.9786 300.315 50.1008 300.559 49.628 301.292C49.163 302.099 49.444 302.904 49.4558 303.017C49.1478 302.328 48.8786 301.636 48.5746 300.985C48.1297 299.742 46.7261 299.093 45.4718 299.49C44.4466 299.826 43.842 300.8 43.9096 301.817C43.395 300.657 42.073 300.037 40.8575 300.431C39.6032 300.828 38.9603 302.185 39.444 303.424L41.1372 307.95L40.4159 306.319C39.8585 305.125 38.4239 304.555 37.2163 305.024C36.0126 305.53 35.4475 306.879 36.0088 308.109L36.8822 310.066L41.4943 320.316C40.1116 320.613 38.7171 320.798 37.3535 320.903C37.8062 322.221 38.3485 323.643 38.9724 325.095C39.3738 325.925 39.7365 326.76 40.1301 327.515V327.515ZM49.8707 317.931C49.8746 317.968 49.921 318.038 49.9636 318.072C49.9249 318.076 49.8903 318.117 49.8903 318.117C49.8824 318.043 49.8785 318.005 49.8707 317.931V317.931Z" fill="#FF6876"/>
<path fill-rule="evenodd" clip-rule="evenodd" d="M49.5522 303.264C49.5522 303.19 49.5892 303.117 49.7004 303.08C49.8116 303.043 49.8857 303.117 49.9227 303.19L51.7753 309.584C51.8124 309.695 51.7382 309.768 51.6641 309.805C51.553 309.841 51.4789 309.768 51.4418 309.695L49.5892 303.301C49.5522 303.301 49.5522 303.301 49.5522 303.264V303.264Z" fill="black"/>
<path fill-rule="evenodd" clip-rule="evenodd" d="M44.9933 302.162C44.9933 302.089 45.068 302.015 45.1428 301.979C45.2548 301.942 45.3296 302.015 45.3669 302.125L47.3096 310.413C47.347 310.523 47.2723 310.597 47.1602 310.633C47.0481 310.67 46.9734 310.597 46.936 310.487L44.9933 302.162C44.9933 302.199 44.9933 302.199 44.9933 302.162V302.162Z" fill="black"/>
<path fill-rule="evenodd" clip-rule="evenodd" d="M40.062 307.106C40.062 307.037 40.1064 306.968 40.2397 306.934C40.373 306.899 40.4618 306.968 40.5062 307.072L42.2834 312.215C42.3278 312.319 42.2389 312.388 42.1057 312.422C41.9724 312.457 41.8835 312.388 41.8391 312.284L40.062 307.106V307.106V307.106Z" fill="black"/>
<path d="M63.5384 221.753H117.6C121.316 221.753 124.357 224.307 124.357 227.429V278.517L110.842 267.164H63.5384C59.8217 267.164 56.7807 264.61 56.7807 261.488V227.429C56.7807 224.307 59.8217 221.753 63.5384 221.753Z" fill="#FF5E57"/>
<path fill-rule="evenodd" clip-rule="evenodd" d="M105.211 250.135C102.723 250.135 100.706 248.18 100.706 245.768C100.706 243.357 102.723 241.402 105.211 241.402C107.699 241.402 109.716 243.357 109.716 245.768C109.716 248.18 107.699 250.135 105.211 250.135Z" fill="#FFDD59"/>
<path fill-rule="evenodd" clip-rule="evenodd" d="M92.822 250.135C90.3339 250.135 88.3169 248.18 88.3169 245.768C88.3169 243.357 90.3339 241.402 92.822 241.402C95.3101 241.402 97.3271 243.357 97.3271 245.768C97.3271 248.18 95.3101 250.135 92.822 250.135Z" fill="#FFDD59"/>
<path fill-rule="evenodd" clip-rule="evenodd" d="M79.3064 250.135C76.8183 250.135 74.8013 248.18 74.8013 245.768C74.8013 243.357 76.8183 241.402 79.3064 241.402C81.7945 241.402 83.8115 243.357 83.8115 245.768C83.8115 248.18 81.7945 250.135 79.3064 250.135Z" fill="#FFDD59"/>
<g opacity="0.711984" filter="url(#filter1_d)">
<rect x="486.568" y="97.4116" width="208.136" height="221.652" rx="12.1638" fill="#D5E0EA"/>
<rect x="486.92" y="97.763" width="207.433" height="220.949" rx="11.8124" stroke="#F8F8F8" stroke-width="0.702798"/>
</g>
<mask id="mask2" mask-type="alpha" maskUnits="userSpaceOnUse" x="486" y="97" width="209" height="223">
<rect x="486.92" y="97.763" width="207.433" height="220.949" rx="11.8124" fill="white" stroke="white" stroke-width="0.702798"/>
</mask>
<g mask="url(#mask2)">
<path fill-rule="evenodd" clip-rule="evenodd" d="M739.759 144.978C739.704 144.867 739.704 144.702 739.649 144.591L735.543 129.074L734.448 124.932L733.189 120.073L693.549 130.73L694.151 133.105C693.22 133.381 692.344 133.713 691.523 134.099C690.757 134.486 689.99 134.927 689.278 135.424C687.252 136.805 685.61 138.627 684.405 140.671C682.489 143.873 681.668 147.739 682.215 151.66L684.351 150.003L687.033 147.905L688.019 147.132C688.676 143.873 690.702 141.057 693.658 139.511C694.261 139.18 694.918 138.903 695.575 138.738L695.903 139.953L696.615 142.769C697.162 142.99 697.655 143.321 697.984 143.818C698.75 144.757 698.914 146.027 698.531 147.076C698.422 147.408 698.257 147.739 697.984 148.07L698.038 148.181C698.586 147.905 699.188 147.85 699.79 147.905C700.831 148.015 701.816 148.567 702.418 149.451C702.473 149.506 702.528 149.617 702.528 149.672C703.294 151.052 703.021 152.82 701.871 153.924C701.816 153.979 701.761 154.034 701.707 154.034C701.761 154.034 701.871 153.979 701.926 153.979C703.404 153.482 705.156 153.979 706.032 155.36C706.525 156.133 706.689 157.016 706.525 157.845C706.361 158.673 705.923 159.446 705.211 159.998C706.196 159.612 707.291 159.722 708.222 160.275C708.332 160.33 708.386 160.385 708.496 160.44C708.879 160.661 709.153 160.993 709.427 161.379C710.467 162.981 709.974 165.189 708.386 166.239L707.729 166.68C709.208 167.785 710.795 168.613 712.547 169.276C713.423 169.607 714.299 169.883 715.23 170.104C718.351 170.822 721.746 170.822 725.031 169.939C729.301 168.779 732.86 166.349 735.488 163.146C736.09 162.428 736.638 161.655 737.131 160.882C740.032 156.243 741.127 150.555 739.759 144.978V144.978Z" fill="#F4FF00"/>
<path fill-rule="evenodd" clip-rule="evenodd" d="M698.613 139.803C697.795 140.083 696.976 140.139 696.158 140.139L695.831 138.906C695.176 139.13 694.521 139.354 693.921 139.691C692.012 139.018 690.375 137.505 689.502 135.543C690.211 135.038 690.975 134.59 691.739 134.198C693.321 136.776 695.776 138.177 697.904 137.505C700.141 136.776 701.395 134.029 701.177 130.834C701.996 130.554 702.759 130.33 703.578 130.106C704.778 134.142 702.541 138.514 698.613 139.803V139.803Z" fill="#1F0D60"/>
<path fill-rule="evenodd" clip-rule="evenodd" d="M709.467 161.546C709.195 161.157 708.922 160.824 708.54 160.601C708.431 160.546 708.376 160.49 708.267 160.435C707.394 159.934 706.303 159.823 705.267 160.157C705.976 159.601 706.412 158.823 706.576 157.989C706.74 157.156 706.576 156.266 706.085 155.488C705.212 154.099 703.467 153.543 701.994 154.099C701.939 154.099 701.83 154.154 701.775 154.154C701.83 154.099 701.885 154.099 701.939 154.043C703.085 152.931 703.412 151.208 702.594 149.763C702.539 149.708 702.485 149.652 702.485 149.541C701.885 148.596 700.903 148.04 699.866 147.985C699.266 147.929 698.666 147.985 698.12 148.263C698.066 148.263 698.011 148.318 697.902 148.374C697.957 148.318 698.011 148.263 698.066 148.152C698.284 147.874 698.502 147.485 698.611 147.151C698.993 146.04 698.83 144.817 698.066 143.872C697.684 143.372 697.193 143.038 696.702 142.816C696.157 142.594 695.502 142.482 694.902 142.538C694.302 142.594 693.647 142.872 693.156 143.261L692.992 143.427L691.138 144.872L688.137 147.262L687.155 148.04L684.482 150.152L682.355 151.82C681.809 147.874 682.627 143.983 684.537 140.759C684.155 139.592 683.228 138.647 681.973 138.314C680.063 137.869 678.154 139.092 677.663 141.037C672.535 154.265 667.407 167.493 662.279 180.721L689.719 179.221L694.356 175.163C694.684 175.163 695.065 175.052 695.393 174.941C695.611 174.885 695.829 174.774 695.993 174.608L698.83 172.773L707.776 166.938L708.431 166.493C710.068 165.381 710.504 163.158 709.467 161.546V161.546Z" fill="#8235FF"/>
<path fill-rule="evenodd" clip-rule="evenodd" d="M681.795 165.079C681.682 168.039 681.117 171.947 679.421 175.186C679.364 175.297 679.251 175.353 679.138 175.353C679.081 175.353 679.025 175.353 679.025 175.297C678.912 175.241 678.855 175.074 678.912 174.906C680.664 171.668 681.173 167.704 681.286 164.744C681.399 164.856 681.569 164.968 681.795 165.079V165.079Z" fill="black"/>
<path fill-rule="evenodd" clip-rule="evenodd" d="M684.725 165.639C684.616 165.639 684.562 165.583 684.508 165.527C684.399 165.415 684.453 165.246 684.562 165.134L699.293 155.092C699.402 154.979 699.565 155.036 699.673 155.148C699.782 155.26 699.728 155.428 699.619 155.541L684.834 165.583C684.834 165.639 684.779 165.639 684.725 165.639V165.639Z" fill="black"/>
<path fill-rule="evenodd" clip-rule="evenodd" d="M679.925 161.485C679.816 161.485 679.762 161.43 679.707 161.375C679.598 161.265 679.652 161.099 679.762 160.989L695.374 149.914C695.484 149.804 695.647 149.859 695.756 149.969C695.866 150.079 695.811 150.244 695.702 150.355L680.089 161.43C680.035 161.485 679.98 161.485 679.925 161.485V161.485Z" fill="black"/>
<path fill-rule="evenodd" clip-rule="evenodd" d="M691.546 169.282C691.438 169.282 691.383 169.226 691.329 169.171C691.22 169.06 691.274 168.894 691.383 168.783L703.461 160.523C703.57 160.412 703.733 160.467 703.842 160.578C703.951 160.689 703.896 160.855 703.787 160.966L691.71 169.226C691.655 169.226 691.601 169.282 691.546 169.282V169.282Z" fill="black"/>
<path fill-rule="evenodd" clip-rule="evenodd" d="M689.83 178.931C685.234 179.208 680.638 179.429 676.042 179.706C673.908 179.817 664.387 180.315 662.253 180.481C661.87 188.06 661.269 198.129 660.229 209.969C657.384 242.28 655.031 244.548 653.28 245.156C646.058 247.591 640.696 224.797 616.074 210.799C613.174 209.139 610.219 207.756 607.319 206.594C600.644 203.883 594.078 202.39 588.278 201.56C587.348 201.449 586.473 201.283 585.652 201.228C585.597 201.228 585.542 201.283 585.488 201.283V201.283V201.338C582.314 210.799 579.195 220.315 576.022 229.776V229.776C574.818 233.427 573.614 237.024 572.411 240.675C566.392 240.509 560.373 240.288 554.409 240.122C554.464 239.901 554.464 239.679 554.519 239.347C554.574 239.181 554.574 238.96 554.628 238.739C554.683 238.462 554.738 238.185 554.738 237.909C554.792 237.687 554.792 237.466 554.847 237.19C554.902 237.024 554.902 236.858 554.957 236.636C554.957 236.47 555.011 236.304 555.011 236.138C555.175 235.087 555.394 233.87 555.613 232.542C555.668 232.155 555.723 231.823 555.777 231.436C555.832 231.214 555.832 231.048 555.887 230.827C555.887 230.661 555.941 230.55 555.941 230.384C555.996 229.942 556.106 229.499 556.16 229.057C556.16 229.001 556.16 228.946 556.16 228.891C556.215 228.448 556.324 228.005 556.379 227.563C556.926 224.077 557.583 220.26 558.13 216.664C558.185 216.387 558.239 216.166 558.239 215.889C558.349 215.115 558.458 214.395 558.622 213.676C558.677 213.399 558.732 213.123 558.732 212.846C558.787 212.625 558.787 212.459 558.841 212.238C558.896 211.85 558.951 211.463 559.06 211.076C559.115 210.688 559.17 210.301 559.224 209.914C559.279 209.748 559.279 209.527 559.334 209.361C559.607 207.59 559.881 206.041 560.045 204.935C550.743 207.977 543.521 211.85 537.831 215.889C532.304 219.817 528.255 223.967 525.246 227.729C511.239 245.267 506.479 270.994 497.56 270.274C495.7 270.108 492.855 268.504 482.294 237.909C478.738 227.674 475.947 218.821 473.814 211.795C464.786 213.953 455.758 216.11 446.784 218.323C451.38 241.339 459.916 276.858 472.336 298.435C474.087 301.478 475.893 304.245 477.808 306.624C479.613 308.892 482.787 312.488 487.985 314.148C495.371 316.527 502.594 313.65 505.384 312.543C506.862 311.935 508.23 311.216 509.488 310.441C512.06 308.892 514.303 306.956 516.546 304.411C514.631 313.263 512.662 322.834 510.746 333.291C513.537 333.291 516.382 333.346 519.173 333.346C546.257 333.512 573.341 333.678 600.425 333.789C602.833 333.789 605.185 333.789 607.593 333.844C610.055 308.283 612.462 282.723 614.925 257.162C617.989 260.371 636.264 279.182 648.903 285.544C650.763 286.485 653.116 287.481 656.071 288.034C658.314 288.477 666.193 289.804 673.306 285.268C677.957 282.335 680.145 278.075 681.349 275.42C682.608 272.598 683.702 269.5 684.687 266.125C691.8 241.007 691.088 202.113 689.83 178.931V178.931Z" fill="#575FCF"/>
<path fill-rule="evenodd" clip-rule="evenodd" d="M559.237 258.113C560.685 258.113 561.858 256.926 561.858 255.461C561.858 253.997 560.685 252.809 559.237 252.809C557.79 252.809 556.616 253.997 556.616 255.461C556.616 256.926 557.79 258.113 559.237 258.113Z" fill="#F4FF00"/>
<path fill-rule="evenodd" clip-rule="evenodd" d="M556.458 279.203C557.906 279.203 559.079 278.015 559.079 276.551C559.079 275.086 557.906 273.898 556.458 273.898C555.01 273.898 553.837 275.086 553.837 276.551C553.837 278.015 555.01 279.203 556.458 279.203Z" fill="#F4FF00"/>
<path fill-rule="evenodd" clip-rule="evenodd" d="M554.311 300.1C555.759 300.1 556.933 298.913 556.933 297.448C556.933 295.984 555.759 294.796 554.311 294.796C552.864 294.796 551.69 295.984 551.69 297.448C551.69 298.913 552.864 300.1 554.311 300.1Z" fill="#F4FF00"/>
<path fill-rule="evenodd" clip-rule="evenodd" d="M551.533 321.19C552.981 321.19 554.154 320.003 554.154 318.538C554.154 317.073 552.981 315.886 551.533 315.886C550.086 315.886 548.912 317.073 548.912 318.538C548.912 320.003 550.086 321.19 551.533 321.19Z" fill="#F4FF00"/>
<path fill-rule="evenodd" clip-rule="evenodd" d="M516.529 304.702C516.475 304.702 516.475 304.702 516.529 304.702C516.313 304.647 516.259 304.536 516.259 304.37L526.203 251.113C526.257 250.947 526.365 250.892 526.527 250.892C526.689 250.947 526.743 251.058 526.743 251.224L516.799 304.481C516.745 304.591 516.637 304.702 516.529 304.702V304.702Z" fill="#00CE87"/>
<path fill-rule="evenodd" clip-rule="evenodd" d="M700.768 122.309V122.309C700.55 122.254 700.496 122.088 700.55 121.978C702.399 115.9 702.344 110.54 700.441 106.065C698.702 101.976 695.929 99.8765 692.721 97.4454C690.057 95.401 687.067 93.0804 684.294 89.2127C680.924 84.4057 678.858 78.4937 678.26 71.5871C678.26 71.4213 678.368 71.3108 678.532 71.3108C678.695 71.3108 678.803 71.4213 678.803 71.5871C679.401 78.3832 681.359 84.1847 684.729 88.9365C687.393 92.7489 690.275 94.9038 692.993 97.0034C696.092 99.3793 699.028 101.645 700.876 105.844C702.834 110.43 702.888 115.9 701.039 122.143C700.985 122.254 700.876 122.309 700.768 122.309V122.309Z" fill="#1F0D60"/>
<path fill-rule="evenodd" clip-rule="evenodd" d="M711.441 119.817V119.817C711.224 119.762 711.17 119.596 711.224 119.486C713.072 113.408 713.018 108.048 711.115 103.573C709.376 99.4842 706.603 97.3846 703.395 94.9535C700.731 92.9091 697.741 90.5885 694.968 86.7208C691.598 81.9138 689.532 76.0017 688.934 69.0951C688.934 68.9294 689.042 68.8188 689.205 68.8188C689.369 68.8188 689.477 68.9294 689.477 69.0951C690.075 75.8912 692.033 81.6928 695.403 86.4445C698.067 90.2017 700.949 92.4118 703.667 94.5114C706.766 96.8873 709.702 99.1527 711.55 103.352C713.507 107.938 713.562 113.408 711.713 119.652C711.659 119.707 711.55 119.817 711.441 119.817V119.817Z" fill="#1F0D60"/>
<path fill-rule="evenodd" clip-rule="evenodd" d="M592.756 175.747C589.254 175.305 587.174 172.815 586.681 172.207C586.243 171.432 585.586 169.883 585.586 167.781C585.641 164.739 587.174 162.692 587.721 162.084C587.338 162.25 584.82 163.467 582.357 162.25C579.621 160.922 578.745 156.054 579.073 154.284C579.073 154.173 579.128 153.896 579.073 153.841C578.69 153.62 577.431 156.773 574.859 158.377C571.958 160.203 568.51 159.318 567.908 159.207C566.43 158.875 564.405 158.322 563.31 156.386C561.778 153.675 563.584 150.522 563.748 150.301C561.887 151.297 556.961 153.62 551.816 152.016C550.941 151.739 549.627 151.352 548.587 150.522C547.93 151.407 547.383 152.403 546.836 153.399C546.452 154.118 546.124 154.837 545.741 155.611C539.282 170.492 543.333 191.9 554.553 197.819C556.469 198.815 558.603 199.368 560.902 199.589C560.628 201.36 560.355 203.074 560.136 204.845C559.971 205.951 559.698 207.5 559.424 209.27C559.424 209.436 559.369 209.657 559.315 209.823C559.26 210.21 559.205 210.598 559.15 210.985C559.096 211.372 559.041 211.759 558.932 212.147C558.877 212.368 558.877 212.534 558.822 212.755C558.767 213.032 558.713 213.308 558.713 213.585C558.603 214.304 558.494 215.078 558.329 215.798C558.275 216.074 558.22 216.295 558.22 216.572C558.001 217.844 557.782 219.172 557.563 220.5C563.31 222.104 571.301 224.372 577.267 226.032C580.004 217.734 582.795 209.436 585.532 201.138C585.532 201.138 585.532 201.138 585.532 201.083V201.083C585.532 201.083 585.532 201.083 585.532 201.028V200.972C586.188 196.436 586.791 191.9 587.447 187.419C589.856 184.653 591.826 181.556 593.194 178.126C593.359 177.683 593.577 177.185 593.742 176.688C593.851 176.356 593.961 176.024 594.07 175.692C593.632 175.803 593.194 175.803 592.756 175.747V175.747Z" fill="#FF6876"/>
<path fill-rule="evenodd" clip-rule="evenodd" d="M624.992 166.845C622.148 160.591 612.687 157.326 601.475 158.543C601.421 158.543 601.366 158.543 601.311 158.488C599.561 153.618 596.116 147.53 589.881 142.438C598.96 141.996 606.179 134.414 606.179 125.116C606.179 115.542 598.522 107.738 589.115 107.738C579.709 107.738 572.052 115.486 572.052 125.116C572.052 128.713 573.146 132.089 575.005 134.856C565.763 132.753 559.036 132.864 555.098 133.196C555.098 133.196 548.207 133.805 546.293 136.849C545.363 138.288 545.528 139.671 545.528 139.671C545.582 140.003 545.637 140.723 546.184 141.387C546.895 142.328 547.825 142.549 548.098 142.604C548.098 142.604 546.785 144.597 546.785 146.866C539.129 147.807 533.113 152.788 531.636 158.986C529.996 165.793 534.48 171.66 535.191 172.6C530.105 172.324 525.566 175.866 524.581 180.847C523.597 185.717 526.222 190.642 530.816 192.524C522.941 198.612 522.011 207.854 525.566 211.673C527.972 214.274 532.621 214.661 537.051 213.333C537.324 214.274 537.598 215.104 537.926 215.934C543.613 211.894 550.832 208.075 560.13 204.976C560.403 203.205 560.677 201.49 560.895 199.719C558.598 199.553 556.466 198.944 554.551 197.948C543.34 192.026 539.293 170.608 545.746 155.721C546.074 154.946 546.403 154.227 546.84 153.507C547.387 152.511 547.934 151.57 548.59 150.629V150.629C549.629 151.459 550.887 151.847 551.817 152.123C556.958 153.673 561.88 151.404 563.739 150.408C563.63 150.629 561.825 153.784 563.302 156.496C564.396 158.433 566.419 158.986 567.896 159.318C568.552 159.429 571.943 160.314 574.841 158.488C577.466 156.883 578.67 153.728 579.052 153.95C579.162 154.005 579.107 154.282 579.052 154.393C578.724 156.164 579.599 161.034 582.334 162.362C584.795 163.524 587.311 162.362 587.693 162.196C587.201 162.805 585.615 164.852 585.561 167.896C585.506 169.833 586.162 171.383 586.6 172.158C586.6 172.213 586.654 172.268 586.654 172.268C587.147 172.933 589.225 175.368 592.725 175.81C593.162 175.866 593.6 175.866 594.037 175.866C593.928 176.198 593.819 176.53 593.709 176.862C593.545 177.36 593.381 177.803 593.162 178.301C591.795 181.732 589.826 184.831 587.42 187.598C586.764 192.137 586.162 196.675 585.506 201.158V201.158V201.213C585.506 201.268 585.506 201.268 585.506 201.268C585.561 201.268 585.615 201.213 585.67 201.213C586.545 201.324 587.42 201.434 588.295 201.545C594.092 202.375 600.6 203.925 607.327 206.581C608.147 204.921 608.749 203.427 609.187 202.209C609.679 202.154 616.734 201.49 620.124 195.014C622.421 190.642 622.203 185.385 619.578 181.179C620.453 180.847 624.007 179.408 625.593 175.644C627.234 171.715 625.484 167.896 624.992 166.845V166.845Z" fill="black"/>
<path fill-rule="evenodd" clip-rule="evenodd" d="M562.805 179.635V179.635L555.12 178.528C555.066 178.528 554.957 178.473 554.902 178.418C554.848 178.362 554.848 178.252 554.848 178.197L558.717 165.251C558.772 165.085 558.935 165.029 559.044 165.085C559.208 165.14 559.262 165.306 559.208 165.417L555.393 178.031L562.696 179.082C562.86 179.082 562.969 179.248 562.914 179.414C563.078 179.524 562.969 179.635 562.805 179.635V179.635Z" fill="black"/>
<path fill-rule="evenodd" clip-rule="evenodd" d="M555.8 162.963C555.782 162.351 553.884 161.909 551.562 161.975C549.239 162.041 547.372 162.59 547.391 163.202C547.41 163.814 549.307 164.256 551.63 164.19C553.952 164.124 555.819 163.575 555.8 162.963Z" fill="black"/>
<path fill-rule="evenodd" clip-rule="evenodd" d="M570.129 164.796C572.356 165.118 574.233 164.883 574.322 164.272C574.411 163.66 572.678 162.905 570.451 162.583C568.224 162.262 566.346 162.497 566.257 163.108C566.168 163.719 567.901 164.475 570.129 164.796Z" fill="black"/>
<path fill-rule="evenodd" clip-rule="evenodd" d="M563.368 188.07C561.567 188.07 560.203 187.287 560.094 187.231C559.985 187.175 559.931 187.008 559.985 186.84C560.04 186.728 560.203 186.672 560.367 186.728C560.476 186.784 563.313 188.406 566.096 186.728C568.441 185.33 568.878 182.645 568.878 182.365C568.878 182.197 569.042 182.086 569.205 182.142C569.369 182.142 569.478 182.309 569.423 182.477C569.369 183.036 568.878 185.777 566.368 187.287C565.332 187.903 564.295 188.07 563.368 188.07V188.07Z" fill="black"/>
<path fill-rule="evenodd" clip-rule="evenodd" d="M560.915 200.213C560.86 200.213 560.86 200.213 560.806 200.213C560.642 200.213 560.532 200.102 560.532 199.936C560.532 199.77 560.642 199.659 560.806 199.659C560.86 199.659 560.86 199.659 560.915 199.659C562.773 199.659 564.686 199.493 566.545 199.161L566.709 199.106C566.818 199.106 566.873 199.05 566.982 199.05C567.583 198.94 568.239 198.774 568.95 198.608C568.95 198.608 568.95 198.608 569.004 198.608V198.608C569.387 198.497 569.824 198.386 570.207 198.276C570.262 198.276 570.262 198.276 570.316 198.276C570.426 198.22 570.535 198.22 570.644 198.165C570.917 198.054 571.191 197.999 571.464 197.888C574.853 196.781 578.078 195.121 580.975 192.962C581.029 192.907 581.084 192.907 581.139 192.851L581.248 192.796C581.357 192.685 581.521 192.741 581.631 192.851C581.74 192.962 581.685 193.128 581.576 193.239L581.521 193.294C581.467 193.349 581.412 193.349 581.357 193.405C578.406 195.563 575.181 197.279 571.737 198.442C571.464 198.552 571.191 198.608 570.917 198.718C570.808 198.774 570.699 198.774 570.59 198.829C570.535 198.829 570.48 198.829 570.48 198.884C570.098 198.995 569.66 199.106 569.278 199.217H569.223C568.512 199.383 567.857 199.549 567.255 199.659C567.146 199.659 567.037 199.715 566.982 199.715L566.818 199.77C564.741 200.047 562.828 200.213 560.915 200.213V200.213Z" fill="black"/>
<path fill-rule="evenodd" clip-rule="evenodd" d="M602.659 180.265C602.659 185.908 598.111 190.499 592.522 190.499C586.933 190.499 582.385 185.908 582.385 180.265C582.385 176.835 584.029 173.792 586.604 171.966C586.604 172.021 586.659 172.077 586.659 172.077C587.152 172.741 589.234 175.175 592.741 175.617C593.179 175.673 593.618 175.673 594.056 175.673C596.302 175.617 598.439 174.677 599.974 173.294C601.672 175.175 602.659 177.609 602.659 180.265V180.265Z" fill="#FF6876"/>
<path fill-rule="evenodd" clip-rule="evenodd" d="M589.238 185.067C589.183 185.067 589.129 185.067 589.075 185.012C588.966 184.901 588.911 184.735 589.02 184.624C589.891 183.459 590.162 182.35 589.945 181.407C589.619 180.132 588.422 179.522 588.422 179.522C588.313 179.466 588.259 179.411 588.259 179.3C588.259 179.189 588.313 179.078 588.368 179.022L596.309 174.364C596.418 174.309 596.581 174.309 596.689 174.475C596.744 174.586 596.744 174.752 596.581 174.863L589.02 179.3C589.455 179.632 590.162 180.298 590.434 181.296C590.706 182.405 590.38 183.625 589.401 184.956C589.401 185.012 589.347 185.067 589.238 185.067V185.067Z" fill="black"/>
<path fill-rule="evenodd" clip-rule="evenodd" d="M576.701 168.338C576.373 172.752 572.495 176.186 568.125 175.913C563.865 175.641 560.478 171.99 560.533 167.684C565.94 167.902 571.348 168.12 576.701 168.338V168.338Z" fill="#D5E0EA"/>
<path fill-rule="evenodd" clip-rule="evenodd" d="M556.554 167.444C556.39 171.807 552.675 175.242 548.305 175.024C543.934 174.806 540.493 171.152 540.711 166.79C545.956 167.008 551.255 167.226 556.554 167.444V167.444Z" fill="#D5E0EA"/>
<path fill-rule="evenodd" clip-rule="evenodd" d="M562.428 168.388C562.318 168.388 562.263 168.331 562.209 168.275C562.099 168.107 561.058 166.368 559.03 166.087C557.496 165.919 555.962 166.592 555.03 167.939C554.921 168.051 554.756 168.107 554.647 167.995C554.537 167.883 554.482 167.714 554.592 167.602C555.633 166.087 557.332 165.302 559.085 165.47C561.332 165.751 562.482 167.546 562.647 167.939C562.702 168.051 562.702 168.219 562.537 168.331C562.537 168.388 562.482 168.388 562.428 168.388V168.388Z" fill="black"/>
<path fill-rule="evenodd" clip-rule="evenodd" d="M586.691 170.113C586.691 170.113 586.637 170.113 586.582 170.113L575.648 169.346C575.484 169.346 575.375 169.193 575.375 169.09C575.375 168.937 575.539 168.835 575.648 168.835L586.582 169.602C586.746 169.602 586.855 169.755 586.855 169.857C586.91 170.011 586.801 170.113 586.691 170.113V170.113Z" fill="black"/>
<path fill-rule="evenodd" clip-rule="evenodd" d="M549.692 175.289C549.579 175.289 549.466 175.235 549.409 175.125C548.9 174.137 548.674 173.039 548.73 171.941C548.787 169.69 549.862 167.988 550.767 167C550.88 166.89 551.05 166.89 551.163 167C551.276 167.11 551.276 167.274 551.163 167.384C550.314 168.317 549.353 169.855 549.296 171.941C549.296 172.984 549.522 173.972 549.975 174.905C550.032 175.07 549.975 175.18 549.862 175.289C549.749 175.289 549.749 175.289 549.692 175.289V175.289Z" fill="white"/>
<path fill-rule="evenodd" clip-rule="evenodd" d="M569.698 176.184C569.583 176.184 569.525 176.129 569.467 176.02C569.005 175.2 568.428 173.887 568.428 172.247C568.485 170.278 569.294 168.802 569.987 167.927C570.102 167.817 570.276 167.763 570.391 167.872C570.507 167.981 570.565 168.145 570.449 168.255C569.814 169.075 569.005 170.442 569.005 172.247C569.005 173.778 569.525 174.981 569.987 175.747C570.045 175.856 570.045 176.02 569.871 176.129C569.814 176.184 569.756 176.184 569.698 176.184V176.184Z" fill="white"/>
<path fill-rule="evenodd" clip-rule="evenodd" d="M564.334 172.368C565.032 172.368 565.598 171.796 565.598 171.09C565.598 170.384 565.032 169.812 564.334 169.812C563.637 169.812 563.071 170.384 563.071 171.09C563.071 171.796 563.637 172.368 564.334 172.368Z" fill="black"/>
<path fill-rule="evenodd" clip-rule="evenodd" d="M544.693 171.793C545.39 171.793 545.956 171.221 545.956 170.515C545.956 169.809 545.39 169.237 544.693 169.237C543.995 169.237 543.43 169.809 543.43 170.515C543.43 171.221 543.995 171.793 544.693 171.793Z" fill="black"/>
<path fill-rule="evenodd" clip-rule="evenodd" d="M593.691 194.206C595.818 194.206 597.543 192.46 597.543 190.307C597.543 188.154 595.818 186.409 593.691 186.409C591.563 186.409 589.838 188.154 589.838 190.307C589.838 192.46 591.563 194.206 593.691 194.206Z" fill="#00CE87"/>
<path fill-rule="evenodd" clip-rule="evenodd" d="M557.468 220.664C557.084 222.984 556.7 225.359 556.317 227.624C556.262 228.066 556.152 228.507 556.097 228.949C556.042 229.446 555.933 229.944 555.878 230.385C555.823 230.717 555.768 231.103 555.713 231.435C555.659 231.821 555.604 232.208 555.549 232.539C555.439 233.202 555.33 233.81 555.22 234.417C555.165 234.694 555.11 235.025 555.056 235.301C555.001 235.577 554.946 235.853 554.946 236.13C554.946 236.295 554.891 236.461 554.891 236.627C554.781 237.4 554.672 238.118 554.562 238.67C554.507 238.891 554.507 239.112 554.452 239.278C554.398 239.554 554.343 239.83 554.343 240.051C560.374 240.217 566.405 240.438 572.381 240.604C573.587 236.958 574.794 233.368 576 229.723C576.384 228.563 576.767 227.348 577.206 226.188C571.23 224.531 563.17 222.266 557.468 220.664V220.664Z" fill="white"/>
<path fill-rule="evenodd" clip-rule="evenodd" d="M577.165 226.415V226.415L557.433 220.864C557.269 220.809 557.214 220.642 557.269 220.531C557.323 220.365 557.433 220.309 557.597 220.365L577.274 225.916C577.438 225.971 577.493 226.138 577.438 226.249C577.438 226.36 577.329 226.415 577.165 226.415V226.415Z" fill="#1F0D60"/>
</g>
<path fill-rule="evenodd" clip-rule="evenodd" d="M739.759 144.978C739.704 144.868 739.704 144.702 739.649 144.592L735.543 129.074L734.448 124.932L733.189 120.073L693.549 130.731L694.151 133.105C693.22 133.381 692.344 133.713 691.523 134.099C690.757 134.486 689.99 134.928 689.278 135.425C687.252 136.805 685.61 138.628 684.405 140.671C682.489 143.874 681.668 147.739 682.215 151.66L684.351 150.003L687.033 147.905L688.019 147.132C688.676 143.874 690.702 141.057 693.658 139.511C694.261 139.18 694.918 138.904 695.575 138.738L695.903 139.953L696.615 142.769C697.162 142.99 697.655 143.321 697.984 143.819C698.75 144.757 698.914 146.027 698.531 147.077C698.422 147.408 698.257 147.739 697.984 148.071L698.038 148.181C698.586 147.905 699.188 147.85 699.79 147.905C700.831 148.015 701.816 148.568 702.418 149.451C702.473 149.506 702.528 149.617 702.528 149.672C703.294 151.053 703.021 152.82 701.871 153.924C701.816 153.979 701.761 154.035 701.707 154.035C701.761 154.035 701.871 153.979 701.926 153.979C703.404 153.482 705.156 153.979 706.032 155.36C706.525 156.133 706.689 157.017 706.525 157.845C706.361 158.673 705.923 159.447 705.211 159.999C706.196 159.612 707.291 159.723 708.222 160.275C708.332 160.33 708.386 160.385 708.496 160.441C708.879 160.661 709.153 160.993 709.427 161.379C710.467 162.981 709.974 165.19 708.386 166.239L707.729 166.681C709.208 167.785 710.795 168.613 712.547 169.276C713.423 169.607 714.299 169.884 715.23 170.104C718.351 170.822 721.746 170.822 725.031 169.939C729.301 168.779 732.86 166.349 735.488 163.146C736.09 162.429 736.638 161.655 737.131 160.882C740.032 156.244 741.127 150.556 739.759 144.978V144.978Z" fill="#FF6876"/>
<path fill-rule="evenodd" clip-rule="evenodd" d="M735.545 129.056C734.611 130.171 733.401 131.063 731.917 131.564C727.96 132.791 723.672 130.505 722.408 126.491C723.233 126.212 724.002 125.989 724.827 125.766C726.366 128.498 728.949 130.059 731.203 129.334C732.907 128.777 734.061 127.104 734.446 124.93L735.545 129.056V129.056Z" fill="#1F0D60"/>
<path fill-rule="evenodd" clip-rule="evenodd" d="M725.723 143.096C725.94 146.285 724.688 149.027 722.456 149.755C720.224 150.482 717.666 148.915 716.087 146.173C715.27 146.397 714.508 146.677 713.691 146.901C714.889 150.93 719.135 153.28 723.11 151.993C727.029 150.762 729.316 146.397 728.064 142.312C727.356 142.592 726.539 142.872 725.723 143.096V143.096Z" fill="#1F0D60"/>
<path fill-rule="evenodd" clip-rule="evenodd" d="M698.613 139.803C697.795 140.084 696.976 140.14 696.158 140.14L695.831 138.907C695.176 139.131 694.521 139.355 693.921 139.691C692.012 139.019 690.375 137.505 689.502 135.543C690.211 135.039 690.975 134.59 691.739 134.198C693.321 136.777 695.776 138.178 697.904 137.505C700.141 136.777 701.395 134.03 701.177 130.835C701.996 130.555 702.759 130.33 703.578 130.106C704.778 134.142 702.541 138.514 698.613 139.803V139.803Z" fill="#1F0D60"/>
<path fill-rule="evenodd" clip-rule="evenodd" d="M715.303 170.241C714.393 170.02 713.537 169.744 712.681 169.414C713.965 168.201 714.661 166.106 714.5 163.736C715.303 163.46 716.052 163.24 716.855 163.019C717.604 165.555 716.962 168.311 715.303 170.241V170.241Z" fill="#1F0D60"/>
<path fill-rule="evenodd" clip-rule="evenodd" d="M737.123 161.006C736.635 161.78 736.092 162.555 735.496 163.275C734.302 162.334 733.326 161.061 732.892 159.456C733.705 159.18 734.465 158.958 735.279 158.737C735.821 159.622 736.418 160.397 737.123 161.006V161.006Z" fill="#1F0D60"/>
<path fill-rule="evenodd" clip-rule="evenodd" d="M709.469 161.547C709.197 161.157 708.924 160.824 708.542 160.602C708.433 160.546 708.378 160.491 708.269 160.435C707.396 159.935 706.305 159.824 705.269 160.157C705.978 159.601 706.414 158.823 706.578 157.989C706.742 157.156 706.578 156.266 706.087 155.488C705.214 154.099 703.469 153.543 701.996 154.099C701.941 154.099 701.832 154.154 701.777 154.154C701.832 154.099 701.887 154.099 701.941 154.043C703.087 152.932 703.414 151.209 702.596 149.764C702.541 149.708 702.487 149.652 702.487 149.541C701.887 148.596 700.905 148.041 699.868 147.985C699.268 147.93 698.668 147.985 698.122 148.263C698.068 148.263 698.013 148.319 697.904 148.374C697.959 148.319 698.013 148.263 698.068 148.152C698.286 147.874 698.504 147.485 698.613 147.151C698.995 146.04 698.832 144.817 698.068 143.872C697.686 143.372 697.195 143.038 696.704 142.816C696.159 142.594 695.504 142.483 694.904 142.538C694.304 142.594 693.649 142.872 693.158 143.261L692.994 143.428L691.14 144.873L688.139 147.263L687.157 148.041L684.484 150.153L682.357 151.82C681.811 147.874 682.629 143.983 684.539 140.76C684.157 139.593 683.23 138.648 681.975 138.314C680.065 137.87 678.156 139.092 677.665 141.038C672.537 154.266 667.409 167.494 662.281 180.722L689.721 179.221L694.358 175.164C694.686 175.164 695.067 175.052 695.395 174.941C695.613 174.886 695.831 174.775 695.995 174.608L698.832 172.774L707.778 166.938L708.433 166.493C710.069 165.382 710.506 163.158 709.469 161.547V161.547Z" fill="#FF6876"/>
<path fill-rule="evenodd" clip-rule="evenodd" d="M681.797 165.079C681.684 168.038 681.119 171.947 679.423 175.185C679.366 175.297 679.253 175.353 679.14 175.353C679.083 175.353 679.027 175.353 679.027 175.297C678.914 175.241 678.857 175.074 678.914 174.906C680.666 171.668 681.175 167.703 681.288 164.744C681.401 164.856 681.571 164.967 681.797 165.079V165.079Z" fill="black"/>
<path fill-rule="evenodd" clip-rule="evenodd" d="M684.726 165.639C684.617 165.639 684.563 165.583 684.508 165.527C684.4 165.415 684.454 165.246 684.563 165.134L699.294 155.091C699.402 154.979 699.566 155.035 699.674 155.148C699.783 155.26 699.729 155.428 699.62 155.54L684.835 165.583C684.835 165.639 684.78 165.639 684.726 165.639V165.639Z" fill="black"/>
<path fill-rule="evenodd" clip-rule="evenodd" d="M679.927 161.485C679.818 161.485 679.764 161.43 679.709 161.375C679.6 161.265 679.654 161.1 679.764 160.989L695.376 149.914C695.485 149.804 695.649 149.859 695.758 149.969C695.868 150.079 695.813 150.245 695.704 150.355L680.091 161.43C680.036 161.485 679.982 161.485 679.927 161.485V161.485Z" fill="black"/>
<path fill-rule="evenodd" clip-rule="evenodd" d="M691.547 169.282C691.439 169.282 691.384 169.227 691.33 169.171C691.221 169.06 691.275 168.894 691.384 168.783L703.462 160.523C703.571 160.412 703.734 160.468 703.843 160.579C703.952 160.69 703.897 160.856 703.788 160.967L691.711 169.227C691.656 169.227 691.602 169.282 691.547 169.282V169.282Z" fill="black"/>
<path fill-rule="evenodd" clip-rule="evenodd" d="M700.768 122.309V122.309C700.55 122.254 700.496 122.088 700.55 121.978C702.399 115.9 702.344 110.541 700.441 106.065C698.702 101.976 695.929 99.8768 692.721 97.4457C690.057 95.4013 687.067 93.0807 684.294 89.213C680.924 84.406 678.858 78.4939 678.26 71.5873C678.26 71.4215 678.368 71.311 678.532 71.311C678.695 71.311 678.803 71.4215 678.803 71.5873C679.401 78.3834 681.359 84.185 684.729 88.9367C687.393 92.7492 690.275 94.904 692.993 97.0036C696.092 99.3795 699.028 101.645 700.876 105.844C702.834 110.43 702.888 115.9 701.039 122.144C700.985 122.254 700.876 122.309 700.768 122.309V122.309Z" fill="#1F0D60"/>
<path fill-rule="evenodd" clip-rule="evenodd" d="M711.441 119.818V119.818C711.224 119.762 711.17 119.596 711.224 119.486C713.072 113.408 713.018 108.049 711.115 103.573C709.376 99.4844 706.603 97.3848 703.395 94.9537C700.731 92.9094 697.741 90.5887 694.968 86.721C691.598 81.914 689.532 76.002 688.934 69.0954C688.934 68.9296 689.042 68.8191 689.205 68.8191C689.369 68.8191 689.477 68.9296 689.477 69.0954C690.075 75.8915 692.033 81.693 695.403 86.4448C698.067 90.202 700.949 92.4121 703.667 94.5117C706.766 96.8876 709.702 99.1529 711.55 103.352C713.507 107.938 713.562 113.408 711.713 119.652C711.659 119.707 711.55 119.818 711.441 119.818V119.818Z" fill="#1F0D60"/>
<path fill-rule="evenodd" clip-rule="evenodd" d="M722.052 117.325V117.325C721.834 117.27 721.78 117.104 721.834 116.993C723.683 110.915 723.628 105.556 721.726 101.08C719.986 96.9918 717.213 94.8922 714.006 92.461C711.342 90.4167 708.351 88.0961 705.579 84.2284C702.208 79.4214 700.142 73.5093 699.544 66.6027C699.544 66.4369 699.653 66.3264 699.816 66.3264C699.979 66.3264 700.088 66.4369 700.088 66.6027C700.686 73.3988 702.643 79.2003 706.014 83.9521C708.678 87.7093 711.559 89.9194 714.277 92.019C717.376 94.3949 720.312 96.6603 722.161 100.859C724.118 105.445 724.172 110.915 722.324 117.159C722.269 117.214 722.161 117.325 722.052 117.325V117.325Z" fill="#1F0D60"/>
<path fill-rule="evenodd" clip-rule="evenodd" d="M466.265 193.373C462.493 187.625 458.284 183.701 455.223 181.269C454.239 180.219 452.763 179.998 451.615 180.551C451.342 180.716 451.068 180.882 450.795 181.103C449.538 182.319 449.538 184.419 450.686 185.746L456.48 192.102L449.647 191.218L432.374 178.506C430.953 177.456 428.985 177.842 428.001 179.279C427.29 180.385 427.29 181.822 427.946 182.872L427.454 182.651C426.033 181.601 424.065 181.988 423.081 183.425C422.097 184.917 422.425 186.962 423.847 188.012L424.721 188.62C423.628 188.509 422.535 189.007 421.879 190.002C421.496 190.554 421.332 191.218 421.332 191.881C421.332 192.931 421.824 193.981 422.699 194.589L424.721 196.081C424.393 196.136 424.01 196.192 423.737 196.358C423.3 196.579 422.917 196.91 422.589 197.297C421.551 198.734 421.824 200.779 423.191 201.884C426.306 204.372 429.914 207.135 439.316 210.949C442.104 212.054 444.29 212.994 445.438 213.491C445.876 215.094 446.313 216.697 446.75 218.299V218.299C455.769 216.144 464.789 213.988 473.753 211.778V211.778C472.933 207.522 470.966 200.558 466.265 193.373V193.373Z" fill="#FF6876"/>
<path fill-rule="evenodd" clip-rule="evenodd" d="M458.457 206.348C458.401 206.348 458.344 206.348 458.288 206.292C452.349 201.268 456.93 194.57 456.987 194.514C457.1 194.402 457.27 194.347 457.383 194.458C457.496 194.57 457.552 194.737 457.439 194.849C457.439 194.849 456.308 196.468 455.912 198.645C455.403 201.492 456.308 203.948 458.627 205.957C458.74 206.069 458.74 206.237 458.684 206.348C458.627 206.292 458.514 206.348 458.457 206.348V206.348Z" fill="#1F0000"/>
<path fill-rule="evenodd" clip-rule="evenodd" d="M443.915 194.206C443.86 194.206 443.805 194.206 443.75 194.15L427.699 183.08C427.589 182.969 427.534 182.802 427.644 182.691C427.754 182.58 427.919 182.524 428.029 182.635L444.08 193.705C444.19 193.817 444.245 193.983 444.135 194.095C444.135 194.15 444.025 194.206 443.915 194.206V194.206Z" fill="#1F0000"/>
<path fill-rule="evenodd" clip-rule="evenodd" d="M440.735 198.935C440.68 198.935 440.625 198.935 440.571 198.879L424.495 188.847C424.386 188.791 424.331 188.57 424.386 188.459C424.44 188.348 424.659 188.292 424.768 188.348L440.844 198.381C440.953 198.436 441.008 198.658 440.953 198.769C440.953 198.879 440.844 198.935 440.735 198.935V198.935Z" fill="#1F0000"/>
<path fill-rule="evenodd" clip-rule="evenodd" d="M439.921 205.198C439.866 205.198 439.812 205.198 439.812 205.143L424.62 196.261C424.511 196.206 424.456 196.039 424.511 195.873C424.565 195.762 424.729 195.706 424.893 195.762L440.085 204.643C440.194 204.699 440.249 204.865 440.194 205.032C440.085 205.198 440.03 205.198 439.921 205.198V205.198Z" fill="#1F0000"/>
<path fill-rule="evenodd" clip-rule="evenodd" d="M497.561 270.275C495.701 270.109 492.856 268.504 482.295 237.909C478.739 227.674 475.948 218.822 473.815 211.795C464.787 213.953 455.758 216.111 446.785 218.324C451.381 241.339 459.917 276.859 472.337 298.436C474.088 301.479 475.894 304.245 477.809 306.624C479.614 308.892 482.788 312.489 487.986 314.148C495.372 316.527 502.595 313.65 505.385 312.544C506.863 311.935 508.231 311.216 509.489 310.441C512.061 308.892 514.304 306.956 516.547 304.411C514.632 313.263 506.48 270.994 497.561 270.275Z" fill="#575FCF"/>
<path d="M441.021 82.5447H509.139C513.822 82.5447 517.653 85.5248 517.653 89.1672V148.77L500.624 135.525H441.021C436.338 135.525 432.507 132.545 432.507 128.902V89.1672C432.507 85.5248 436.338 82.5447 441.021 82.5447Z" fill="#575FCF"/>
<path fill-rule="evenodd" clip-rule="evenodd" d="M494.511 117.913C491.468 117.913 489.001 115.446 489.001 112.403C489.001 109.36 491.468 106.893 494.511 106.893C497.555 106.893 500.021 109.36 500.021 112.403C500.021 115.446 497.555 117.913 494.511 117.913Z" fill="#FFDD59"/>
<path fill-rule="evenodd" clip-rule="evenodd" d="M477.981 117.913C474.938 117.913 472.471 115.446 472.471 112.403C472.471 109.36 474.938 106.893 477.981 106.893C481.024 106.893 483.491 109.36 483.491 112.403C483.491 115.446 481.024 117.913 477.981 117.913Z" fill="#FFDD59"/>
<path fill-rule="evenodd" clip-rule="evenodd" d="M461.45 117.913C458.407 117.913 455.94 115.446 455.94 112.403C455.94 109.36 458.407 106.893 461.45 106.893C464.493 106.893 466.96 109.36 466.96 112.403C466.96 115.446 464.493 117.913 461.45 117.913Z" fill="#FFDD59"/>
<rect x="551.441" y="270.408" width="78.389" height="37.843" rx="18.9215" fill="#F53B57"/>
<path d="M590.636 284.577C587.925 284.577 585.315 284.996 582.865 285.785V290.995C582.865 291.658 582.476 292.228 581.919 292.505C580.272 293.328 578.76 294.376 577.417 295.61C577.113 295.903 576.699 296.088 576.234 296.088C575.769 296.088 575.347 295.903 575.043 295.593L570.862 291.44C570.549 291.129 570.363 290.71 570.363 290.248C570.363 289.787 570.549 289.368 570.862 289.057C576.006 284.199 582.975 281.221 590.636 281.221C598.298 281.221 605.267 284.199 610.411 289.057C610.723 289.359 610.909 289.787 610.909 290.248C610.909 290.71 610.723 291.129 610.411 291.431L606.23 295.584C605.926 295.886 605.503 296.079 605.039 296.079C604.582 296.079 604.16 295.895 603.856 295.601C602.513 294.368 601.001 293.319 599.354 292.497C598.796 292.22 598.408 291.65 598.408 290.987V285.777C595.958 284.996 593.348 284.577 590.636 284.577Z" fill="white"/>
<path d="M218.594 31.101C218.594 35.8849 214.715 39.763 209.932 39.763C205.148 39.763 201.27 35.8849 201.27 31.101C201.27 26.3171 205.148 22.439 209.932 22.439C214.715 22.439 218.594 26.3171 218.594 31.101Z" fill="#5B95BF"/>
<circle cx="732.541" cy="238.412" r="11.5494" fill="#F64942"/>
<circle cx="643.611" cy="634.555" r="28.8734" fill="#F4CE45"/>
<circle cx="31.494" cy="453.23" r="17.324" fill="#EF90A4"/>
<defs>
<filter id="filter0_d" x="185.176" y="123.091" width="384.971" height="463.847" filterUnits="userSpaceOnUse" color-interpolation-filters="sRGB">
<feFlood flood-opacity="0" result="BackgroundImageFix"/>
<feColorMatrix in="SourceAlpha" type="matrix" values="0 0 0 0 0 0 0 0 0 0 0 0 0 0 0 0 0 0 127 0"/>
<feOffset dy="1.35153"/>
<feGaussianBlur stdDeviation="1.35153"/>
<feColorMatrix type="matrix" values="0 0 0 0 0 0 0 0 0 0 0 0 0 0 0 0 0 0 0.0796547 0"/>
<feBlend mode="normal" in2="BackgroundImageFix" result="effect1_dropShadow"/>
<feBlend mode="normal" in="SourceGraphic" in2="effect1_dropShadow" result="shape"/>
</filter>
<filter id="filter1_d" x="483.865" y="96.0601" width="213.542" height="227.058" filterUnits="userSpaceOnUse" color-interpolation-filters="sRGB">
<feFlood flood-opacity="0" result="BackgroundImageFix"/>
<feColorMatrix in="SourceAlpha" type="matrix" values="0 0 0 0 0 0 0 0 0 0 0 0 0 0 0 0 0 0 127 0"/>
<feOffset dy="1.35153"/>
<feGaussianBlur stdDeviation="1.35153"/>
<feColorMatrix type="matrix" values="0 0 0 0 0 0 0 0 0 0 0 0 0 0 0 0 0 0 0.0796547 0"/>
<feBlend mode="normal" in2="BackgroundImageFix" result="effect1_dropShadow"/>
<feBlend mode="normal" in="SourceGraphic" in2="effect1_dropShadow" result="shape"/>
</filter>
</defs>
</svg>
