<svg width="834" height="730" viewBox="0 0 834 730" fill="none" xmlns="http://www.w3.org/2000/svg">
<mask id="mask0" mask-type="alpha" maskUnits="userSpaceOnUse" x="19" y="0" width="806" height="730">
<path d="M240.578 546.874C-6.92189 367.373 1.57735 177.874 104.077 102.374C206.577 26.8743 420.578 32.8741 532.577 79.3741C644.576 125.874 854.575 268.874 785.078 503.374C715.581 737.874 488.078 726.374 240.578 546.874Z" fill="#C4C4C4"/>
</mask>
<g mask="url(#mask0)">
<path fill-rule="evenodd" clip-rule="evenodd" d="M789.809 583.16C820.275 428.559 849.939 51.4101 762.382 38.8454C674.825 26.2808 173.344 511.446 233.352 623.864C293.36 736.283 753.033 769.787 789.809 583.16Z" fill="#F4CE45"/>
<path fill-rule="evenodd" clip-rule="evenodd" d="M103.733 110.523C114.261 251.531 698.296 335.316 763.245 445.77C828.195 556.225 862.666 44.2146 763.247 -36.2667C663.827 -116.748 91.0242 -59.6953 103.733 110.523Z" fill="#F64942"/>
<path fill-rule="evenodd" clip-rule="evenodd" d="M126.228 141.605C229.092 304.816 360.989 265.935 473.12 484.642C624.605 751.502 38.0732 828.499 39.1186 567.67C40.164 306.841 2.05551 -55.4144 126.228 141.605Z" fill="#EF90A4"/>
<path fill-rule="evenodd" clip-rule="evenodd" d="M30.3316 106.321C39.1877 288.067 203.234 388.375 300.317 380.096C606.196 354.009 618.855 14.3824 571.077 -37.7657C523.298 -89.9138 19.641 -113.074 30.3316 106.321Z" fill="#5B95BF"/>
</g>
<path d="M77 51C77 59.2843 70.2843 66 62 66C53.7157 66 47 59.2843 47 51C47 42.7157 53.7157 36 62 36C70.2843 36 77 42.7157 77 51Z" fill="#5B95BF"/>
<circle cx="809" cy="134" r="25" fill="#F64942"/>
<circle cx="576.5" cy="716.5" r="12.5" fill="#F4CE45"/>
<circle cx="15" cy="372" r="15" fill="#EF90A4"/>
</svg>
