<?xml version="1.0" encoding="utf-8"?>
<!-- Generator: Adobe Illustrator 22.1.0, SVG Export Plug-In . SVG Version: 6.00 Build 0)  -->
<svg version="1.1" id="Слой_1" xmlns="http://www.w3.org/2000/svg" xmlns:xlink="http://www.w3.org/1999/xlink" x="0px" y="0px"
	 viewBox="0 0 821.6 1022.9" style="enable-background:new 0 0 821.6 1022.9;" xml:space="preserve">
<style type="text/css">
	.st0{fill:#D5E0EA;}
	.st1{fill:#FF6876;}
	.st2{fill:#FF009D;}
	.st3{fill:#1F0D60;}
	.st4{fill:#FFB800;}
	.st5{fill:#1F0000;}
	.st6{fill:#8400EC;}
	.st7{fill:#290060;}
	.st8{fill:#00DE60;}
</style>
<g id="background_1_">
	<g id="background">
		<circle id="circle_1_" class="st0" cx="207.7" cy="207.7" r="207.7"/>
		<path id="line_2_" class="st0" d="M202.9,688.6c0.4,0.2,0.8,0.6,1.1,1.1c3.8,9.2,9,27.4,2,46.8c-2,5.6-8.1,22.6-23.4,28.2
			c0.3,10.1-1.6,20.9-6.9,30.3c-6.2,11-16.3,19-26.9,23.7c1.2,7.6,0.7,15.6-2.2,22.3c-14.2,33.1-53.4,33.4-53.8,33.5
			c-1.2,0-2.1-0.9-2.1-2.1c0-1.1,0.8-2.1,2.1-2c0.3,0,36.8-0.5,49.9-31c2.5-5.7,3.1-12.4,2.1-19c-11.3,4-22.5,4.2-30.1,0l0,0
			c-2-1.1-11.6-6.9-12.5-16.7c0-0.3-0.7-8.6,5.1-13.4c7.3-6.1,18.9-2.4,23.9,0.4c0,0,0,0,0.1,0.1c7.9,4.4,13.8,13.4,16.4,23.5
			c9.6-4.5,18.6-11.8,24.1-21.6c4.7-8.3,6.5-17.9,6.4-26.9c-3.9,0.9-10,1.4-16.5-1.1c-8.4-3-19.3-11.8-17.8-21.6
			c0.7-4.4,3.9-8.8,8.6-11.7c4.4-2.7,9.4-3.6,13.3-2.4c4.8,1.5,9.1,6.3,12.2,13.8c2,4.8,3.4,10.7,4,17.1
			c12.4-5.5,17.7-19.7,19.6-25.2c6.5-18,1.6-35.2-1.9-43.8c-0.4-1,0.1-2.3,1.2-2.7C201.7,688.2,202.4,688.3,202.9,688.6z M178,761.8
			c-0.4-6.3-1.9-12.3-3.9-17c-2.6-6.1-6-10.2-9.5-11.3c-2.7-0.8-6.4,0-9.8,1.9c-3.7,2.3-6.3,5.7-6.8,8.7c-1.1,6.9,8.1,14.2,15,16.8
			C169.1,763.3,174.6,762.7,178,761.8z M143.7,816.4c-2.3-9.3-7.4-17.7-14.5-21.6c0,0,0,0-0.1-0.1c-4.9-2.7-14.1-5.1-19.1-0.8
			c-4.2,3.4-3.6,9.8-3.6,9.8c0.7,7.6,8.6,12.4,10.1,13.3l0,0C123.2,820.6,133.5,820.2,143.7,816.4z"/>
		<path id="line_1_" class="st0" d="M657.5,514.2c1.1,0.4,1.6,1.7,1.2,2.8c-3.5,8.8-8.6,26.4-2,44.9c1.9,5.7,7.3,20.2,20,25.9
			c0.6-6.6,2.1-12.6,4.1-17.5c3.2-7.7,7.7-12.6,12.5-14.1c4-1.2,9.1-0.3,13.6,2.5c4.9,3,8.2,7.5,8.8,12c1.5,10-9.7,19-18.3,22.1
			c-6.7,2.5-12.8,2-16.9,1.1c-0.1,9.2,1.6,19.1,6.5,27.6c5.7,10,14.9,17.5,24.7,22.1c2.7-10.3,8.7-19.6,16.8-24.1
			c0.1-0.1,0.1-0.1,0.1-0.1c5.2-2.8,17-6.6,24.5-0.4c5.9,4.9,5.2,13.4,5.2,13.7c-0.9,10-10.7,15.9-12.8,17.1l0,0
			c-7.7,4.3-19.3,4.1-30.8,0c-1,6.8-0.4,13.7,2.2,19.5c13.4,31.3,50.7,31.8,51.1,31.8c1.3-0.1,2.2,0.9,2.2,2.1c0,1.3-1,2.2-2.2,2.2
			c-0.4-0.1-40.5-0.5-55-34.4c-3-6.9-3.5-15.1-2.2-22.9c-10.9-4.8-21.2-13.1-27.6-24.3c-5.5-9.6-7.4-20.7-7.1-31
			c-15.6-5.8-21.9-23.2-23.9-28.9c-7.1-19.9-1.8-38.5,2.1-47.9c0.2-0.5,0.7-0.9,1.1-1.1C656.2,514.3,657,514.2,657.5,514.2z
			 M696.5,588.7c7.1-2.6,16.5-10.1,15.4-17.2c-0.6-3.1-3.2-6.6-7-8.9c-3.5-2-7.3-2.9-10-2c-3.6,1.2-7.1,5.4-9.7,11.6
			c-2,4.9-3.5,11-4,17.5C684.7,590.4,690.2,591.1,696.5,588.7z M744.2,646.1L744.2,646.1c1.5-0.9,9.6-5.8,10.3-13.6
			c0,0,0.6-6.6-3.7-10.1c-5.1-4.4-14.5-2-19.6,0.8c-0.1,0.1-0.1,0.1-0.1,0.1c-7.2,4-12.5,12.7-14.9,22.1
			C726.6,649.4,737.1,649.8,744.2,646.1z"/>
	</g>
</g>
<g id="general">
	<g id="man">
		<g id="head">
			<path class="st1" d="M561.8,289.5c-1.4,8.1-4.5,16.2-8.8,23.6c-0.6,1-1.2,2.1-1.9,3.1c-0.7,1.1-1.4,2.2-2.2,3.2
				c0.2,0.2,0.5,0.3,0.7,0.5l-2.8,15.2c-16-2.5-45.2-6.7-62.7-9.1c-7.2-11.2-9.6-27.1-7.2-42.3c0-0.2,0.1-0.4,0.1-0.6
				c0.5-2.8,1.1-5.6,1.9-8.3c0.7-2.5,1.6-4.9,2.6-7.2c0.4-0.8,0.8-1.9,1.4-3.1c1.9-3.8,4.2-7.4,7-10.5l0.1-0.1
				c3.3-3.5,14.7-14.4,30.8-12.5c8.5,1,21.7,6,25,16.1c4.2,13.2-11.1,27.7-4.9,35c1,1.1,2.8,2.5,5,3l0,0c0.2-0.2,0.4-0.5,0.6-0.7
				C550.4,290.2,556.3,288.4,561.8,289.5z"/>
			<g id="eyes">
				<circle cx="499.6" cy="262.5" r="2.6"/>
				<circle cx="519.9" cy="264.7" r="2.6"/>
			</g>
			<g id="hair_1_">
				<path d="M560.6,322.5c-2.2,2.2-4.2,3.8-5.8,4.5c-1.2,0.5-5.1,2.2-6.7,0.7c-1.6-1.5-0.2-5.3,0.7-7.6c0.1-0.2,0.2-0.4,0.2-0.6
					C552.5,321.9,556.7,322.9,560.6,322.5z"/>
				<path id="hair" d="M575.1,248.4c-5.5-11.5-19.1-29.4-36.1-30.5c-10.7-0.7-17.2,5.5-26.9,0.8c-7.5-3.6-9.6-10.3-17.5-10.9
					c-0.7-0.1-7.1-0.5-10.5,3.3c-5.2,5.6-2.4,19,4.1,28.4c-2.5,1.6-10.1,6.9-13.7,17.1c-4.7,13.6,1.2,25.2,2.3,27.2
					c0.6-4,1.8-9.7,4.5-16c0-0.1,0-0.1,0.1-0.2c0.4-0.8,0.8-1.9,1.4-3.1c1.4-2.8,3.4-6.5,6.3-9.8c0.1-0.2,0.3-0.4,0.6-0.7l0.1-0.1
					c3.3-3.5,14.7-14.4,30.8-12.5c8.5,1,21.7,6,25,16.1c4.2,13.2-11.1,27.7-4.9,35c1,1.1,2.8,2.5,5,3l0,0c0.2-0.2,0.4-0.5,0.6-0.7
					c4-4.5,9.9-6.2,15.4-5.2c3,0.5,5.8,1.9,8.2,4c2.2,1.9,3.7,4.3,4.6,6.9C580.8,285.5,583.7,266.3,575.1,248.4z"/>
			</g>
			<g id="ear">
				<path id="face" class="st1" d="M575.2,303.2c-0.1-0.9-0.4-1.9-0.7-2.8c-0.9-2.6-2.4-5-4.6-6.9c-6.8-6.2-17.4-5.7-23.6,1.2
					c-0.2,0.2-0.4,0.5-0.6,0.7l0,0c-5.5,6.8-4.8,16.9,1.8,22.9l0,0c0.4,0.3,0.7,0.6,1.1,0.9c0.1,0.1,0.3,0.2,0.4,0.3
					c3.4,2.4,7.6,3.4,11.5,3s7.7-2.2,10.5-5.4C574.7,313.1,576,308,575.2,303.2z"/>
				<path d="M549.2,306.9c-0.1,0-0.3,0-0.4,0c-0.3,0-0.5-0.3-0.5-0.5c0-0.3,0.2-0.5,0.5-0.5c1.8,0.1,3.4-0.7,4.4-2.2
					s1.1-3.4,0.3-4.9c-0.1-0.1-0.1-0.3,0-0.5c0.1-0.1,0.2-0.2,0.4-0.3l14.6-0.9c0.3,0,0.5,0.2,0.5,0.5s-0.2,0.5-0.5,0.5l-13.9,0.9
					c0.6,1.7,0.4,3.7-0.6,5.3C553,305.9,551.2,306.9,549.2,306.9z"/>
			</g>
			<path d="M499.4,290.1c-0.1,0-0.2,0-0.3-0.1l-8.6-6.2c-0.1-0.1-0.2-0.2-0.2-0.4c0-0.1,0-0.3,0.1-0.4l15.9-17
				c0.2-0.2,0.5-0.2,0.7,0s0.2,0.5,0,0.7l-15.5,16.6l8.2,5.8c0.2,0.2,0.3,0.5,0.1,0.7C499.7,290,499.5,290.1,499.4,290.1z"/>
			<path id="mouth" d="M504.1,305.1L504.1,305.1l-14.2-1.3c-0.3,0-0.5-0.3-0.5-0.5c0-0.3,0.3-0.5,0.5-0.5l14.2,1.3
				c0.3,0,0.5,0.3,0.5,0.5C504.6,304.9,504.4,305.1,504.1,305.1z"/>
			<path d="M507.6,331.7c-2.9,0-5.7-0.3-8.7-0.8c-0.3,0-0.5-0.3-0.4-0.6s0.3-0.5,0.6-0.4c7.3,1.3,14.5,0.9,21.4-1.1
				c3.1-0.9,6.1-2.1,9-3.6c0.2-0.1,0.5,0,0.7,0.2c0.1,0.2,0,0.5-0.2,0.7c-2.9,1.6-6,2.8-9.2,3.7C516.5,331,512.1,331.7,507.6,331.7z
				"/>
			<g id="brows">
				<ellipse transform="matrix(0.4171 -0.9089 0.9089 0.4171 73.8636 626.2352)" cx="525.1" cy="255.5" rx="2.3" ry="7.4"/>
				<ellipse transform="matrix(0.9541 -0.2994 0.2994 0.9541 -52.8944 160.9502)" cx="498.8" cy="253.1" rx="7.4" ry="2.3"/>
			</g>
			<g id="moustache">
				<path d="M499.5,292.1c2.8,0,7.3,0.3,12.4,2.2c7,2.6,11.2,6.7,13.1,8.8c-8.8-1.5-17.5-3-26.3-4.6
					C499,296.4,499.3,294.3,499.5,292.1z"/>
				<path d="M497.1,291.9c-2.8-0.5-7.3-1-12.6-0.1c-7.3,1.2-12.3,4.5-14.5,6.2c8.9,0.1,17.8,0.3,26.7,0.4
					C496.8,296.2,496.9,294,497.1,291.9z"/>
			</g>
		</g>
		<g id="legs_1_">
			<g id="legs">
				<path class="st1" d="M359.5,939.3l-64.9-10.5l3.6-12.9C318.6,923.7,339,931.5,359.5,939.3z"/>
				<path class="st1" d="M598.4,950.3l-70.1-14.2c23.3,3.1,46.6,6.2,69.9,9.3L598.4,950.3z"/>
			</g>
			<g id="pants_pattern">
				<path class="st2" d="M384.8,603.7c-1.8-4.7-4.8-8.7-8.8-11.6c-0.3,1-0.7,2-1,3c3.2,2.5,5.6,5.8,7,9.6c2.1,5.5,1.8,11.5-0.6,16.9
					c-2.5,5.4-6.8,9.5-12.4,11.5c-2.5,0.9-5.1,1.4-7.7,1.4c-0.4,1-0.7,2-1,3c0.3,0,0.7,0,1,0c3,0,5.9-0.5,8.8-1.6
					c6.3-2.3,11.3-7,14-13.1C386.9,616.8,387.2,609.9,384.8,603.7z"/>
				<path class="st2" d="M469,572.3c-0.2-0.6-0.5-1.3-0.8-1.9h-3.4c0.5,0.9,1,1.9,1.4,3c2.1,5.5,1.8,11.5-0.6,16.9
					s-6.8,9.5-12.4,11.5c-5.5,2.1-11.5,1.9-16.9-0.6s-9.4-6.8-11.5-12.4c-2.1-5.5-1.9-11.5,0.6-16.9c0.2-0.5,0.5-1,0.8-1.5h-3.4
					c-0.1,0.1-0.1,0.2-0.1,0.3c-2.8,6.1-3,12.9-0.7,19.2s7,11.3,13.1,14c3.3,1.5,6.9,2.3,10.4,2.3c3,0,5.9-0.5,8.8-1.6
					c6.3-2.3,11.3-7,14.1-13.1C471.1,585.3,471.4,578.5,469,572.3z"/>
				<path class="st2" d="M537.3,570.4c-4.9,1.8-10.2,1.8-15.1,0h-6.6c1.2,0.8,2.4,1.5,3.7,2.1c3.3,1.5,6.9,2.3,10.4,2.3
					c3,0,5.9-0.5,8.8-1.6c1.9-0.7,3.7-1.6,5.3-2.8H537.3z"/>
				<path class="st2" d="M362.2,690.5c-2.3-6.3-7-11.3-13.1-14c-0.7-0.3-1.3-0.6-2-0.8c-0.3,0.9-0.7,1.9-1,2.8
					c0.6,0.2,1.2,0.4,1.7,0.7c5.4,2.5,9.5,6.8,11.5,12.4c2.1,5.5,1.8,11.5-0.6,16.9c-2.5,5.4-6.8,9.5-12.4,11.5
					c-4.9,1.8-10.1,1.8-14.7,0.2c-0.3,1-0.7,1.9-1,2.8c2.6,0.9,5.3,1.3,8,1.3c2.9,0,5.9-0.5,8.7-1.6c6.3-2.3,11.3-7,14-13.1
					C364.3,703.5,364.5,696.7,362.2,690.5z"/>
				<path class="st2" d="M450.5,657.5c-4.8-13-19.3-19.6-32.3-14.7c-13,4.8-19.6,19.3-14.7,32.2c3.8,10.1,13.3,16.3,23.5,16.3
					c2.9,0,5.9-0.5,8.7-1.6C448.7,684.9,455.3,670.5,450.5,657.5z M434.7,686.9c-11.4,4.2-24.1-1.6-28.4-13s1.6-24.1,13-28.4
					c2.5-1,5.1-1.4,7.7-1.4c9,0,17.4,5.5,20.7,14.4C451.9,669.9,446.1,682.7,434.7,686.9z"/>
				<path class="st2" d="M538.8,624.5c-4.8-13-19.3-19.6-32.2-14.7c-6.3,2.3-11.3,7-14.1,13.1c-2.8,6.1-3,12.9-0.7,19.2
					s7,11.3,13.1,14.1c3.3,1.5,6.8,2.3,10.4,2.3c3,0,5.9-0.5,8.8-1.6C537.1,652,543.7,637.5,538.8,624.5z M523.1,654
					c-5.5,2.1-11.5,1.8-16.9-0.6c-5.4-2.5-9.5-6.8-11.5-12.4c-2.1-5.5-1.8-11.5,0.6-16.9c2.5-5.4,6.8-9.5,12.4-11.5
					c2.5-0.9,5.1-1.4,7.7-1.4c9,0,17.4,5.5,20.7,14.4C540.3,637,534.5,649.7,523.1,654z"/>
				<path class="st2" d="M343.6,775.7c-4-10.8-14.7-17.1-25.6-16.2c-0.4,1-0.7,2.1-1.1,3.1c1.1-0.2,2.1-0.2,3.2-0.2
					c9,0,17.4,5.5,20.7,14.4c4.2,11.4-1.6,24.1-13,28.4c-8.5,3.2-17.8,0.7-23.8-5.5c-0.4,1-0.7,2.1-1.1,3.1
					c4.6,4.3,10.8,6.8,17.1,6.8c2.9,0,5.9-0.5,8.7-1.6C341.9,803.1,348.5,788.7,343.6,775.7z"/>
				<path class="st2" d="M427.8,744.3c-4.8-13-19.3-19.6-32.2-14.7c-13,4.8-19.6,19.3-14.7,32.3c3.8,10.1,13.3,16.3,23.5,16.3
					c2.9,0,5.9-0.5,8.7-1.6C426.1,771.7,432.7,757.2,427.8,744.3z M412.1,773.7c-11.4,4.2-24.1-1.6-28.4-13
					c-4.2-11.4,1.6-24.1,13-28.4c2.5-0.9,5.1-1.4,7.7-1.4c9,0,17.4,5.5,20.7,14.4C429.3,756.7,423.5,769.5,412.1,773.7z"/>
				<path class="st2" d="M516.2,711.3c-4.8-13-19.3-19.6-32.3-14.7c-3.7,1.4-6.9,3.5-9.5,6.3c0.2,1.3,0.4,2.7,0.6,4
					c2.5-3.4,5.9-6,10-7.5c2.5-0.9,5.1-1.4,7.7-1.4c8.9,0,17.4,5.5,20.7,14.4c4.2,11.4-1.6,24.1-13,28.4c-5.5,2.1-11.5,1.8-16.9-0.6
					c-1.4-0.7-2.8-1.4-4-2.4c0.2,1.3,0.4,2.6,0.6,4c0.7,0.4,1.4,0.8,2.2,1.1c3.3,1.5,6.9,2.3,10.4,2.3c3,0,5.9-0.5,8.8-1.6
					C514.4,738.8,521,724.3,516.2,711.3z"/>
				<path class="st2" d="M584.8,708.9c-4.3,0.8-8.8,0.2-12.9-1.7c-5.4-2.5-9.4-6.8-11.5-12.4c-4.3-11.4,1.6-24.1,13-28.4
					c1.6-0.6,3.2-1,4.9-1.2l-0.4-3c-1.9,0.2-3.7,0.7-5.5,1.4c-13,4.8-19.5,19.3-14.7,32.3c3.8,10.1,13.3,16.3,23.5,16.3
					c1.4,0,2.8-0.1,4.2-0.4L584.8,708.9z"/>
				<path class="st2" d="M323.2,855.8c-4.8-12.9-19.3-19.6-32.3-14.7c-0.5,0.2-1,0.4-1.4,0.6c-0.5,1.4-0.9,2.8-1.4,4.1
					c1.2-0.7,2.5-1.4,3.9-1.9c2.5-1,5.1-1.4,7.7-1.4c9,0,17.4,5.5,20.7,14.4c0.9,2.5,1.4,5.1,1.4,7.7c0,9-5.5,17.4-14.4,20.7
					c-11.4,4.2-24.1-1.6-28.4-13c0,0,0-0.1-0.1-0.2c-0.5,1.4-0.9,2.8-1.4,4.2c2.6,4.9,6.6,8.8,11.8,11.1c3.3,1.5,6.9,2.3,10.4,2.3
					c3,0,5.9-0.5,8.8-1.6C321.4,883.2,328,868.8,323.2,855.8z"/>
				<path class="st2" d="M407.4,824.4c-4.8-13-19.3-19.6-32.2-14.7c-6.3,2.3-11.3,7-14,13.1c-2.8,6.1-3,12.9-0.7,19.2
					s7,11.3,13.1,14.1c3.3,1.5,6.9,2.3,10.4,2.3c3,0,5.9-0.5,8.8-1.6c5.2-2,9.4-5.5,12.3-9.8c2.1-3.2,3.4-6.9,3.9-10.8
					C409.3,832.2,408.8,828.3,407.4,824.4z M391.6,853.9c-5.5,2.1-11.5,1.8-16.9-0.6c-5.4-2.4-9.5-6.8-11.5-12.4
					c-2.1-5.5-1.8-11.5,0.6-16.9c2.5-5.4,6.8-9.4,12.4-11.5c2.5-1,5.1-1.4,7.7-1.4c9,0,17.4,5.5,20.7,14.4
					C408.9,836.9,403,849.6,391.6,853.9z"/>
				<path class="st2" d="M495.8,791.4c-2-5.3-5.5-9.6-10.2-12.5c0.2,1.4,0.4,2.7,0.6,4.1c3.1,2.5,5.4,5.7,6.8,9.5
					c2.1,5.5,1.8,11.5-0.6,16.9c-0.5,1.2-1.2,2.3-1.9,3.4l0.6,4.1c1.6-1.8,3-3.9,4-6.2C497.8,804.5,498.1,797.7,495.8,791.4z"/>
				<path class="st2" d="M584.1,758.5c-4.8-13-19.3-19.6-32.3-14.7c-13,4.8-19.6,19.3-14.7,32.2c3.8,10.1,13.3,16.3,23.5,16.3
					c2.9,0,5.9-0.5,8.7-1.6C582.3,785.9,588.9,771.4,584.1,758.5z M568.3,787.9c-11.4,4.2-24.1-1.6-28.4-13
					c-4.3-11.4,1.6-24.2,13-28.4c2.5-1,5.1-1.4,7.7-1.4c9,0,17.4,5.5,20.7,14.4c0.9,2.5,1.4,5.1,1.4,7.7
					C582.7,776.2,577.2,784.6,568.3,787.9z"/>
				<path class="st2" d="M362.1,896.9c2.5-1,5.1-1.4,7.7-1.4c5.7,0,11.2,2.2,15.3,6.2c0.4-1,0.7-2,1.1-3c-6.7-5.8-16.3-7.8-25.2-4.5
					c-12.9,4.8-19.6,19.3-14.7,32.2c1.7,4.5,4.6,8.3,8.2,11.1c1.7,0.6,3.3,1.3,5,1.9c2.9,1.1,5.7,2.2,8.6,3.3c0.6,0,1.2,0.1,1.8,0.1
					c0.1,0,0.3,0,0.5,0c0.4-1,0.7-2,1.1-3c-9.5,0.7-18.8-4.9-22.3-14.3C344.9,913.9,350.7,901.2,362.1,896.9z"/>
				<path class="st2" d="M565.8,844.5c-4.8-13-19.3-19.6-32.2-14.7c-6.3,2.3-11.3,7-14.1,13.1s-3,12.9-0.7,19.2s7,11.3,13.1,14
					c3.3,1.5,6.8,2.3,10.4,2.3c3,0,5.9-0.5,8.8-1.6C564.1,871.9,570.7,857.4,565.8,844.5z M550.1,873.9c-5.5,2.1-11.5,1.8-16.9-0.6
					c-5.4-2.5-9.5-6.8-11.5-12.4c-2.1-5.5-1.8-11.5,0.6-16.9c2.5-5.4,6.8-9.5,12.4-11.5c2.5-1,5.1-1.4,7.7-1.4
					c9,0,17.4,5.5,20.7,14.4c0.9,2.5,1.4,5.1,1.4,7.7C564.4,862.2,558.9,870.6,550.1,873.9z"/>
				<path class="st2" d="M545.4,924.6c-2.3-6.3-7-11.3-13.1-14c-6.1-2.8-12.9-3-19.2-0.7c-3,1.1-5.7,2.8-7.9,4.8
					c0.2,1.2,0.4,2.4,0.5,3.7c2.3-2.4,5.1-4.4,8.4-5.6c2.5-0.9,5.1-1.4,7.7-1.4c3.1,0,6.2,0.7,9.2,2c5.4,2.5,9.4,6.8,11.5,12.4
					c1.5,4,1.8,8.3,0.9,12.5c1,0.1,2,0.3,3,0.4C547.4,933.9,547.1,929.1,545.4,924.6z"/>
				<path class="st2" d="M616.8,921.5c-11.1,3.4-23.1-2.4-27.2-13.4c-4.2-11.4,1.6-24.1,13-28.4c2.5-0.9,5.1-1.4,7.7-1.4l-0.4-3
					c-2.8,0-5.6,0.6-8.3,1.6c-6.3,2.3-11.3,7-14,13.1c-2.8,6.1-3,12.9-0.7,19.2c3.8,10.1,13.3,16.3,23.5,16.3c2.3,0,4.6-0.3,6.9-1
					L616.8,921.5z"/>
			</g>
			<g id="socks">
				<path class="st3" d="M359.5,939.3l-1.6,5.2c-3-2.3-7.6-4.9-12.9-4.5c-8.1,0.7-11.7,7.9-17.9,12c-6.3,4.2-17.4,6.7-38.5-1.5
					l6-21.8L359.5,939.3z"/>
				<path class="st3" d="M598.7,958.7c-25.9,8.5-36.6,5-41.7,0.1c-4.4-4.3-5.7-11-13-14.5c-5.6-2.7-11.5-2-15.7-1.1
					c0-0.6,0-1.1,0-1.7c0-0.1,0-0.3,0-0.4l-0.1-5.1l70.1,14.2L598.7,958.7z"/>
			</g>
			<g id="shoes">
				<path class="st4" d="M344.9,940.1c-8.1,0.7-11.7,7.9-17.9,12c-6.3,4.2-17.4,6.7-38.5-1.5c-23.6,11.4-41.9,18.4-55.1,23
					c-8.6,3-19.8,6.5-26.7,17.1c-4.4,6.8-5.4,13.9-5.6,18.8c34.8-2.7,69.5-5.4,104.3-8.1l10.7-10.9l7.5,9.4
					c9.2-0.7,18.5-1.4,27.7-2.2c2.1-17.7,4.3-35.5,6.4-53.2C354.8,942.3,350.2,939.7,344.9,940.1z"/>
				<path class="st4" d="M675.1,1003.9c-6.3-10.9-17.2-15-25.8-18.5c-12.6-5.2-29.7-13.4-50.6-26.6c-25.9,8.5-36.6,5-41.7,0.1
					c-4.4-4.3-5.7-11-13-14.5c-5.6-2.7-11.5-2-15.7-1.1c0,1.1,0.2,6.4,0.4,12.4c0,0.7,0,1.4,0.1,2.1c0,0.5,0,1,0,1.5
					c0,1,0.1,1.9,0.1,2.9c0,0.2,0,0.5,0,0.7c0,0.7,0,1.4,0.1,2.1c0.2,5.8,0.3,10.7,0.4,11.7c0,1.7,0.8,24.9,0.8,26.5
					c7.6,1,15.2,2,22.8,3l7-8.7l11,11.1c36.2,4.8,72.5,9.6,108.7,14.4C679.8,1018,679.1,1010.8,675.1,1003.9z"/>
				<path class="st3" d="M202.5,1000.7c-0.2,0-0.5-0.2-0.5-0.4c0-0.3,0.2-0.5,0.4-0.6c34.5-4.5,109.3-12.9,150.7-17.6
					c0.3,0,0.5,0.2,0.6,0.4s-0.2,0.5-0.4,0.6C311.8,987.8,237.1,996.3,202.5,1000.7C202.6,1000.7,202.6,1000.7,202.5,1000.7z"/>
				<path class="st3" d="M678.6,1013.2L678.6,1013.2c-42.6-7.6-118.6-21.3-149-27.2c-0.3-0.1-0.4-0.3-0.4-0.6
					c0.1-0.3,0.3-0.4,0.6-0.4c30.4,5.9,106.3,19.6,148.9,27.2c0.3,0,0.5,0.3,0.4,0.6C679.1,1013.1,678.9,1013.2,678.6,1013.2z"/>
			</g>
		</g>
		<g id="hands">
			<g id="hand_r">
				<path class="st1" d="M818.5,269.5c-1.1-1.9-3-2.9-5-2.9l1.6-1c2.7-1.6,3.7-5.3,2.1-8.1c-1.6-2.8-5.1-3.7-7.8-2.1l-0.8,0.5
					c1.3-1.9,1.6-4.4,0.4-6.5c-1.6-2.8-5.1-3.8-7.8-2.1l-33.3,20.1l0,0c-2.8-0.2-5.6-0.4-8.4-0.5c2.4-3.1,4.9-6.3,7.3-9.5
					c2.4-2.2,2.6-5.9,0.6-8.3c-0.1-0.1-0.7-0.8-1.4-1.2c-2.4-1.2-7.4,2.1-7.4,2.1c-4,2.7-32.1,26.4-38.3,31.8
					c-0.7,0.7-1.2,1-1.2,1.1c3.4,4.8,42.7,34.1,44,35l0,0c5.8-2.8,52.5-25.2,53.7-30.9c0.6-3-0.5-4.6-0.5-4.6
					c-0.5-0.7-1.5-1.7-2.9-2.2c-0.4-0.1-0.7-0.2-0.9-0.3l3.9-2.4c1.7-1,2.7-2.8,2.9-4.7C819.3,271.8,819.1,270.6,818.5,269.5z"/>
				<path class="st5" d="M750.7,296.1c-0.2,0-0.3-0.1-0.4-0.2c-0.1-0.2-0.1-0.5,0.2-0.7c1.2-0.7,7.2-4.7,8.2-12.3
					c0.7-5.5-1.6-9.7-2.7-11.3c-0.2-0.2-0.1-0.5,0.1-0.7c0.2-0.2,0.5-0.1,0.7,0.1c1.4,2.1,3.5,6.4,2.8,12c-1,8-7.4,12.3-8.7,13
					C750.9,296,750.8,296.1,750.7,296.1z"/>
				<path class="st5" d="M777.9,273.7c-0.2,0-0.3-0.1-0.4-0.3c-0.1-0.2-0.1-0.5,0.2-0.7l30.7-17.3c0.2-0.1,0.5-0.1,0.7,0.2
					c0.1,0.2,0.1,0.5-0.2,0.7l-30.7,17.3C778.1,273.7,778,273.7,777.9,273.7z"/>
				<path class="st5" d="M782.8,282.6c-0.2,0-0.4-0.1-0.4-0.3c-0.1-0.2,0-0.5,0.2-0.7l30.7-15.5c0.2-0.1,0.5,0,0.7,0.2
					c0.1,0.2,0,0.5-0.2,0.7L783,282.5C782.9,282.6,782.9,282.6,782.8,282.6z"/>
				<path class="st5" d="M785.5,293c-0.2,0-0.4-0.1-0.5-0.3c-0.1-0.2,0-0.5,0.2-0.7l26.9-12.6c0.2-0.1,0.5,0,0.7,0.2
					c0.1,0.2,0,0.5-0.2,0.7L785.7,293C785.6,293,785.5,293,785.5,293z"/>
			</g>
			<g id="hand_l">
				<path class="st1" d="M406.1,113.3C406,113.3,406,113.3,406.1,113.3c-2.5-2-6.2-1.7-8.3,0.8l-12,14.6l-3.4,4.2
					c-5.2-0.7-10.4-1.5-15.6-2.2c-0.1-6.8-0.1-13.7-0.2-20.5l2.2-2.3l13.5-14.1c0.6-0.7,1.1-1.4,1.4-2.3c0.7-2.1,0.1-4.4-1.5-6
					c-1.1-1.1-2.6-1.6-4.1-1.6s-3.1,0.6-4.2,1.8L360,100.1l4.6-15.1c1-3.1-0.8-6.4-3.9-7.3c-0.6-0.2-1.1-0.3-1.7-0.3
					c-2.4,0-4.6,1.4-5.5,3.7c-0.6-0.6-1.4-1.1-2.3-1.4c-0.6-0.2-1.1-0.3-1.7-0.3c-2.5,0-4.9,1.6-5.6,4.1l-3,9.7v-0.5
					c0.2-3.2-2.3-6-5.6-6.2c-0.1,0-0.2,0-0.3,0c-3.1,0-5.7,2.5-5.9,5.6l-1.2,22.9c-0.4,1.5,3.5,26.8,5,38.2c0,0,0,0,0-0.1l0,0
					c18,3.2,36,6.4,54,9.6c0,0.1,0,0.1,0,0.2l0,0c2.9-7.6,6.4-15.7,10.6-24.2c3.1-6.2,6.2-12,9.3-17.3
					C408.9,119.1,408.6,115.4,406.1,113.3z"/>
				<path class="st5" d="M355.3,116.4h-0.1c-0.3-0.1-0.4-0.4-0.3-0.6l4.7-15.8c0.1-0.3,0.4-0.4,0.6-0.3c0.3,0.1,0.4,0.4,0.3,0.6
					l-4.7,15.8C355.7,116.3,355.5,116.4,355.3,116.4z"/>
				<path class="st5" d="M345.4,116.4h-0.1c-0.3-0.1-0.4-0.3-0.4-0.6l8.2-34.8c0.1-0.3,0.3-0.4,0.6-0.4c0.3,0.1,0.4,0.3,0.4,0.6
					l-8.2,34.8C345.8,116.2,345.6,116.4,345.4,116.4z"/>
				<path class="st5" d="M336.3,116.2h-0.1c-0.3-0.1-0.4-0.3-0.4-0.6l4.7-22.9c0.1-0.3,0.3-0.4,0.6-0.4c0.3,0.1,0.4,0.3,0.4,0.6
					l-4.7,22.9C336.7,116.1,336.5,116.2,336.3,116.2z"/>
			</g>
		</g>
		<g id="tshirt">
			<path class="st4" d="M546.8,335.1c-16-2.5-45.2-6.7-62.7-9.1c-4.8-0.7-8.8-1.2-11.3-1.4c-0.9,8.6-1.7,17.2-2.6,25.8
				c-7.7,77-15.4,153.9-23.1,230.9c23.8-0.5,47.7-1.1,71.5-1.6c4-27.8,8.1-55.6,12.2-83.3c6.8-45.9,13.8-91.7,21-137.5l0,0
				c1.2-7.5,2.3-15,3.5-22.4C553.3,336.1,550.4,335.6,546.8,335.1z"/>
			<path class="st3" d="M477,352.7L477,352.7c-0.3,0-0.5-0.3-0.5-0.5l1.9-26.5c0-0.3,0.3-0.5,0.5-0.5c0.3,0,0.5,0.3,0.5,0.5
				l-1.9,26.5C477.5,352.4,477.2,352.7,477,352.7z"/>
			<path class="st3" d="M485.8,353.5C485.7,353.5,485.7,353.5,485.8,353.5c-0.3,0-0.5-0.3-0.5-0.5l1.9-26.5c0-0.3,0.3-0.5,0.5-0.5
				c0.3,0,0.5,0.3,0.5,0.5l-1.9,26.5C486.2,353.3,486,353.5,485.8,353.5z"/>
			<path class="st3" d="M495.4,354.5C495.3,354.5,495.3,354.5,495.4,354.5c-0.3,0-0.5-0.3-0.5-0.6l3.6-26.3c0-0.3,0.3-0.5,0.6-0.4
				c0.3,0,0.5,0.3,0.4,0.6l-3.6,26.3C495.8,354.3,495.6,354.5,495.4,354.5z"/>
			<path class="st3" d="M507.5,356.7L507.5,356.7c-0.3,0-0.5-0.3-0.5-0.5l1.9-26.5c0-0.3,0.3-0.5,0.5-0.5c0.3,0,0.5,0.3,0.5,0.5
				l-1.9,26.5C508,356.5,507.8,356.7,507.5,356.7z"/>
			<path class="st3" d="M515.8,358L515.8,358c-0.4,0-0.5-0.3-0.5-0.6l4.1-26.2c0-0.3,0.3-0.5,0.6-0.4c0.3,0,0.5,0.3,0.4,0.6
				l-4.1,26.2C516.3,357.8,516.1,358,515.8,358z"/>
			<path class="st3" d="M525.1,359.5L525.1,359.5c-0.4-0.1-0.5-0.3-0.5-0.6l4.9-26.1c0.1-0.3,0.3-0.5,0.6-0.4s0.4,0.3,0.4,0.6
				l-4.9,26.1C525.6,359.3,525.4,359.5,525.1,359.5z"/>
			<path class="st3" d="M533.6,360.4L533.6,360.4c-0.4-0.1-0.5-0.3-0.5-0.6l6.9-25.6c0.1-0.3,0.3-0.4,0.6-0.4
				c0.3,0.1,0.4,0.3,0.4,0.6l-6.9,25.6C534.1,360.3,533.9,360.4,533.6,360.4z"/>
			<path class="st3" d="M543.4,362L543.4,362c-0.4-0.1-0.5-0.3-0.5-0.6l5.5-26c0.1-0.3,0.3-0.4,0.6-0.4c0.3,0.1,0.4,0.3,0.4,0.6
				l-5.5,26C543.8,361.8,543.6,362,543.4,362z"/>
			<path class="st4" d="M387,162.9c0,0.1,0,0.1,0,0.2c-0.6,5.4-1.2,10.8-1.8,16.2c-0.8,7-1.5,13.9-2.2,20.8l-58.5-14.2
				c2.7-13.8,6-24.8,8.6-32.5c0,0,0,0,0-0.1l0,0C351,156.5,369,159.7,387,162.9z"/>
			<path class="st4" d="M763.2,318c-0.1,5.2-0.2,11.4-0.7,18.3c-16.3-6.4-38.9-15.4-50.7-20c3-13.3,5.5-24.7,7.4-33.4
				C722.6,287.7,761.8,317.1,763.2,318C763.1,318,763.2,318,763.2,318z"/>
		</g>
		<g id="cardigan">
			<path class="st6" d="M470.2,350.4c-7.7,77-15.4,153.9-23.1,230.9l-2.3,23.1h-120c24.6-63.6,49.2-127.2,73.8-190.8
				c-16.8-15.6-52.8-53.4-69.8-114.2c-13.8-49.4-8.7-91.4-4.4-113.5l58.5,14.2c-0.5,22.6,2.6,50.2,14.9,78.3
				c8.2,18.7,26.5,57.2,63,70C462.8,349,465.9,349.7,470.2,350.4z"/>
			<path class="st6" d="M762.4,336.3c-0.7,10.2-1.9,22.1-4.2,35.2c-5.3,30.8-8,46.2-17.9,58.2c-18.3,22.1-48.9,24.9-79.8,27.8
				c-26.9,2.5-49.1-0.3-63.5-3c-3.4,62.3-6.8,124.6-10.2,186.9c-24.3-9.3-48.7-18.7-73-28c1.6-11.2,3.2-22.4,4.8-33.7
				c4-27.8,8.1-55.6,12.2-83.3c6.8-45.9,13.8-91.7,21-137.5l0,0l0,0c8.8,0.8,16.6,2.1,23.3,3.6c5.4,1.2,9.8,2.4,12.9,3.3
				c2,0.6,3.5,1.1,3.9,1.2c57.2,18.5,85.8,27.8,99.3,18.7c4.2-2.8,6.1-6.2,18.5-60.5c0.7-3,1.4-6,2-8.9
				C723.5,321,746.2,329.9,762.4,336.3z"/>
			<path class="st3" d="M444.8,604.9L444.8,604.9c-0.3,0-0.5-0.3-0.5-0.5l25.4-254c0-0.3,0.3-0.5,0.5-0.4c0.3,0,0.5,0.3,0.4,0.5
				l-25.4,254C445.3,604.7,445.1,604.9,444.8,604.9z"/>
			<path class="st3" d="M513.8,613.9L513.8,613.9c-0.3,0-0.5-0.3-0.5-0.6l38-254.5c0-0.3,0.3-0.5,0.6-0.4c0.3,0,0.5,0.3,0.4,0.6
				l-38,254.5C514.3,613.7,514.1,613.9,513.8,613.9z"/>
			<path class="st3" d="M382.9,200.5h-0.1l-58.5-14.2c-0.3-0.1-0.4-0.3-0.4-0.6s0.3-0.4,0.6-0.4l58.5,14.2c0.3,0.1,0.4,0.3,0.4,0.6
				C383.4,200.4,383.2,200.5,382.9,200.5z"/>
			<path class="st3" d="M762.4,336.8c-0.1,0-0.1,0-0.2,0l-50.7-20c-0.3-0.1-0.4-0.4-0.3-0.6c0.1-0.3,0.4-0.4,0.6-0.3l50.7,20
				c0.3,0.1,0.4,0.4,0.3,0.6C762.8,336.7,762.6,336.8,762.4,336.8z"/>
		</g>
	</g>
	<g id="scheme">
		<path id="line" class="st4" d="M352.6,518.7H158.7c-0.8,0-1.5-0.7-1.5-1.5V109.3c0-0.8,0.7-1.5,1.5-1.5h509.2
			c0.8,0,1.5,0.7,1.5,1.5v75h94.9c0.8,0,1.5,0.7,1.5,1.5s-0.7,1.5-1.5,1.5h-96.4c-0.8,0-1.5-0.7-1.5-1.5v-75H160.2v404.9h192.4
			c0.8,0,1.5,0.7,1.5,1.5S353.5,518.7,352.6,518.7z"/>
		<path id="circle" class="st7" d="M406.3,110c0,1.1-0.1,2.2-0.3,3.3c-2.5-2-6.2-1.6-8.2,0.8l-12,14.6c-9.6-0.9-17.1-8.9-17.1-18.8
			c0-0.7,0-1.4,0.1-2.1l13.5-14.1c0.6-0.7,1.1-1.4,1.4-2.3c1.2-0.3,2.5-0.4,3.8-0.4C397.9,91.2,406.3,99.6,406.3,110z"/>
		<path id="semicircle" class="st4" d="M133.6,149.8c-3.6,0-7.2-0.5-10.8-1.4l5.2-19.9c5.6,1.5,11.5,0.6,16.5-2.3
			c5.1-3,8.7-7.7,10.2-13.3c1.5-5.6,0.6-11.5-2.3-16.5c-3-5.1-7.7-8.7-13.3-10.2l5.2-19.9c10.9,2.9,20.1,9.9,25.8,19.7
			s7.3,21.3,4.4,32.2c-2.9,10.9-9.9,20.1-19.7,25.8C148.4,147.8,141,149.8,133.6,149.8z"/>
		<path id="semicircle_1_" class="st6" d="M171.7,348.2c-24.4-3.7-41.6-25.5-38.2-48.2c3.5-22.8,26.4-38.5,50.8-34.8
			C180.1,292.8,175.9,320.5,171.7,348.2z"/>
		<path id="rhomb_1_" class="st2" d="M130.7,486.1c15.3,2.3,30.7,4.6,46,7c3.3,15.3,6.6,30.7,9.9,46c-14.9-2.9-29.7-5.9-44.6-8.8
			C138.3,515.6,134.5,500.9,130.7,486.1z"/>
		<path id="rhomb" class="st8" d="M773.7,130.3c16,16.2,31.9,32.4,47.9,48.5c-9.6,20.9-19.1,41.8-28.7,62.7
			c-14.9-16.5-29.8-32.9-44.6-49.4C756.8,171.5,765.2,150.9,773.7,130.3z"/>
		<path id="semicircle_2_" class="st8" d="M337.9,488c0.3-3.6,1-7.2,2.2-10.6l19.5,6.7c-1.9,5.5-1.5,11.4,1.1,16.7
			c2.6,5.3,7,9.2,12.5,11.1c5.5,1.9,11.4,1.5,16.7-1.1c5.3-2.6,9.2-7,11.1-12.5l19.5,6.7c-3.7,10.7-11.3,19.3-21.5,24.3
			s-21.7,5.8-32.4,2.1c-10.7-3.7-19.3-11.3-24.3-21.5C338.8,502.9,337.3,495.4,337.9,488z"/>
	</g>
</g>
</svg>
