<?xml version="1.0" encoding="utf-8"?>
<!-- Generator: Adobe Illustrator 22.0.1, SVG Export Plug-In . SVG Version: 6.00 Build 0)  -->
<svg version="1.1" id="Слой_1" xmlns="http://www.w3.org/2000/svg" xmlns:xlink="http://www.w3.org/1999/xlink" x="0px" y="0px"
	 viewBox="0 0 885.5 899.6" style="enable-background:new 0 0 885.5 899.6;" xml:space="preserve">
<style type="text/css">
	.st0{fill:#FFFFFF;}
	.st1{fill:#FFC800;}
	.st2{fill:#1F0D60;}
	.st3{fill:#00DC99;}
	.st4{fill:#FF0F97;}
	.st5{fill:#D5E0EA;}
	.st6{fill:#892BFF;}
</style>
<g id="background_1_">
	<g id="background">
		<g id="scheme">
			<g id="window1">
				<rect x="33.2" y="110.6" class="st0" width="242.9" height="174"/>
				<path class="st1" d="M33.2,286.1h242.9c0.8,0,1.5-0.7,1.5-1.5v-174c0-0.8-0.7-1.5-1.5-1.5H33.2c-0.8,0-1.5,0.7-1.5,1.5v174
					C31.7,285.5,32.4,286.1,33.2,286.1z M274.6,283.1H34.7v-171h239.9V283.1z"/>
				<g id="figures">
					<path id="semicircle" class="st2" d="M95.8,179.3c-15.3-7.8-34.3-1.7-42.2,13.6c-7.8,15.3-1.7,34.3,13.6,42.2
						C76.8,216.5,86.3,197.9,95.8,179.3z"/>
					<rect id="square" x="200" y="180.1" class="st3" width="50.7" height="50.7"/>
					<path id="semicircle_1_" class="st4" d="M180.9,187c-0.2-3.1-0.8-6.1-1.9-9.1l-16.8,5.7c1.6,4.7,1.3,9.8-1,14.3
						c-2.2,4.5-6,7.9-10.7,9.5s-9.8,1.3-14.3-1c-4.5-2.2-7.9-6-9.5-10.7l-16.8,5.7c3.1,9.2,9.7,16.6,18.5,20.9
						c8.8,4.3,18.7,4.9,27.8,1.8c9.2-3.1,16.6-9.7,20.9-18.5C180.1,199.8,181.4,193.4,180.9,187z"/>
				</g>
			</g>
			
				<ellipse id="circle_button" transform="matrix(0.9487 -0.3162 0.3162 0.9487 21.7125 210.8611)" class="st1" cx="660.5" cy="38.5" rx="38.5" ry="38.5"/>
			<g id="lines">
				<path class="st1" d="M147.2,112.1c0.8,0,1.5-0.7,1.5-1.5V40H625c0.8,0,1.5-0.7,1.5-1.5S625.8,37,625,37H147.2
					c-0.8,0-1.5,0.7-1.5,1.5v72.1C145.7,111.4,146.3,112.1,147.2,112.1z"/>
				<path class="st1" d="M68.1,637.1h82.3c0.8,0,1.5-0.7,1.5-1.5s-0.7-1.5-1.5-1.5H69.6V284.6c0-0.8-0.7-1.5-1.5-1.5
					s-1.5,0.7-1.5,1.5v351C66.6,636.5,67.3,637.1,68.1,637.1z"/>
			</g>
			<g id="window2">
				<g>
					<rect x="150.4" y="462.1" class="st0" width="473.5" height="317"/>
					<path class="st1" d="M150.4,780.6h473.5c0.8,0,1.5-0.7,1.5-1.5v-317c0-0.8-0.7-1.5-1.5-1.5H150.4c-0.8,0-1.5,0.7-1.5,1.5v317
						C148.9,779.9,149.6,780.6,150.4,780.6z M622.4,777.6H151.9v-314h470.5V777.6z"/>
				</g>
				<path class="st1" d="M150.9,514.3h473c0.8,0,1.5-0.7,1.5-1.5s-0.7-1.5-1.5-1.5h-473c-0.8,0-1.5,0.7-1.5,1.5
					S150,514.3,150.9,514.3z"/>
				<path class="st1" d="M557.8,502.6c8.2,0,14.9-6.7,14.9-14.9s-6.7-14.9-14.9-14.9s-14.9,6.7-14.9,14.9S549.6,502.6,557.8,502.6z
					 M557.8,475.8c6.5,0,11.9,5.3,11.9,11.9s-5.3,11.9-11.9,11.9c-6.5,0-11.9-5.3-11.9-11.9S551.2,475.8,557.8,475.8z"/>
				<path class="st1" d="M513.5,502.6c8.2,0,14.9-6.7,14.9-14.9s-6.7-14.9-14.9-14.9s-14.9,6.7-14.9,14.9S505.3,502.6,513.5,502.6z
					 M513.5,475.8c6.5,0,11.9,5.3,11.9,11.9s-5.3,11.9-11.9,11.9c-6.5,0-11.9-5.3-11.9-11.9S507,475.8,513.5,475.8z"/>
				<path class="st1" d="M150.4,780.6h218.7c0.3,0,0.6-0.1,0.9-0.3l35.9-25.1c20.8-14.5,41.5-29.1,62.3-43.6c0.5-0.4,0.7-1,0.6-1.6
					c-0.2-0.6-0.7-1.1-1.3-1.1l-121.9-14.1c17-36.4,33.9-72.8,50.9-109.2c0.3-0.6,0.1-1.3-0.4-1.8s-1.3-0.5-1.8-0.1
					c-27.3,19.3-54.6,38.5-81.9,57.8l-22.2,15.6l-15.9-116.7c-0.1-0.6-0.6-1.2-1.2-1.3c-0.6-0.1-1.3,0.2-1.6,0.8l-51.3,98.8
					l-68.5-100.9c-0.4-0.5-1.1-0.8-1.7-0.6c-0.6,0.2-1.1,0.8-1.1,1.4v240.3C148.9,779.9,149.6,780.6,150.4,780.6z M368.6,777.6
					H151.9v-234l67.2,98.9c0.3,0.4,0.8,0.7,1.3,0.7s1-0.3,1.2-0.8l50.3-96.9L287.5,660c0.1,0.5,0.4,1,0.9,1.2s1,0.2,1.5-0.1
					l24.2-17.1c25.8-18.2,51.6-36.3,77.3-54.5c-16.5,35.3-33,70.6-49.4,105.9c-0.2,0.4-0.2,0.9,0,1.4c0.2,0.4,0.7,0.7,1.1,0.8
					l120,13.8c-19.7,13.8-39.4,27.6-59.1,41.3L368.6,777.6z"/>
				<path class="st1" d="M602.1,502.6c8.2,0,14.9-6.7,14.9-14.9s-6.7-14.9-14.9-14.9c-8.2,0-14.9,6.7-14.9,14.9
					S593.9,502.6,602.1,502.6z M602.1,475.8c6.5,0,11.9,5.3,11.9,11.9s-5.3,11.9-11.9,11.9c-6.6,0-11.9-5.3-11.9-11.9
					S595.5,475.8,602.1,475.8z"/>
			</g>
		</g>
		<path id="line_1_" class="st5" d="M179.5,899.1l2.3-2c-7.2-8.3-17.7-21.9-23.2-35.6c7-1.3,14.3-4.4,17.5-10.8
			c2.3-4.7,2.9-12-1.4-17c-4.3-5.1-12.5-6.6-17.5-3.3c-4.9,3.3-5.1,10.2-5.2,13.5c-0.2,4.9,0.8,10,2.6,15.1c-2.6,0.3-5,0.3-7.1,0.2
			c-15.6-1-27.2-13-34.3-22.8c-7.7-10.7-13.2-23.3-16.6-34.4c5.1-0.2,9.7-1.5,13.7-3.9c2.9-1.7,12.4-8.1,12.8-18.9
			c0.1-2.3-0.2-10.1-6.4-14.8c-6.5-4.9-15.8-3.5-20.9,0.7c-2.6,2.1-4.4,5.1-5.3,8.9c-1.4,5.4-0.6,14.6,2.2,24.9
			c-3.2-0.2-5.8-0.8-7.2-1.2c-34.6-8.1-68.3-83.7-68.7-84.5l-2.7,1.2c0.1,0.2,8.7,19.6,21.5,39.7c17.4,27.3,34,42.9,49.2,46.5
			c3,0.7,6,1.1,8.7,1.3c3.5,12,9.5,25.3,17.3,36.2c10.7,14.8,23.3,23.1,36.5,24c2.3,0.2,5.2,0.1,8.4-0.3
			C161.2,876.4,172.1,890.5,179.5,899.1z M163.5,831.7c3.2,0,6.7,1.4,8.9,4c3.4,4,2.9,9.9,1,13.7c-2.7,5.3-9.3,8.1-15.9,9.3
			c-1.7-5-2.7-9.9-2.6-14.6c0.1-3,0.3-8.7,3.9-11.1C160.1,832.1,161.8,831.7,163.5,831.7z M107,764.4c2.8,0,5.5,0.7,7.9,2.5
			c5.1,3.8,5.2,10.4,5.2,12.3c-0.3,9.2-8.7,14.9-11.3,16.4c-4.4,2.6-9,3.4-13,3.5c-2.8-10.5-3.7-19.6-2.4-24.2
			c0.3-1.2,1.2-4.7,4.3-7.3C99.9,765.6,103.4,764.4,107,764.4z"/>
		<path id="line" class="st5" d="M732.2,379c5,0,9.9-0.8,14.5-2.2c17.4-5.6,25.3-19.3,28.3-24.4c0.2-0.4,0.4-0.8,0.7-1.2
			c3.1,1.7,6.4,2.8,9.5,3.1c0.8,0.1,1.5,0.1,2.3,0.1c16,0,28.6-18.3,34.8-27.3c3-4.3,7.3-11.6,9.5-20.4c7.9,1,15.2-4,18.1-6.1
			c10.4-7.1,14-17.7,17.1-26.9c3.4-10.1,4.9-20.8,4.4-31.9c0-0.6-0.5-1-1-0.9c-0.6,0-1,0.5-0.9,1c0.5,10.8-0.9,21.3-4.2,31.2
			c-3.1,9-6.5,19.2-16.4,25.9c-3,2.1-9.5,6.5-16.6,5.7c0.7-3.2,1-6.6,0.9-10.1c-0.1-3.3-0.3-11.1-5.5-14.2c-1-0.6-3.5-1.9-6.3-1.1
			c-3.9,1.1-5.3,5.6-5.5,6.5c-2,7,4.1,16.9,12.2,19.9c0.6,0.2,1.2,0.4,1.7,0.5c-2.1,8.4-6.3,15.5-9.1,19.7
			c-6.3,9.1-19.3,28.1-35.2,26.3c-2.9-0.3-6-1.3-8.8-2.9c2.8-5.2,6-12.6,3-18.5c-0.8-1.5-3-5.1-6.4-5.2c-3.5-0.1-5.9,3.6-6.5,4.7
			c-1.1,1.9-2.1,5.2-0.8,9.8c1.2,4,4.3,7.5,8,10c-0.2,0.4-0.5,0.8-0.7,1.2c-2.9,5-10.5,18.2-27.2,23.5c-6.5,2.1-13.6,2.7-20.6,1.7
			c-0.6-0.1-1.1,0.3-1.1,0.8c-0.1,0.5,0.3,1.1,0.8,1.1C727.6,378.8,729.9,379,732.2,379z M773.1,327.7
			C773.1,327.7,773.2,327.7,773.1,327.7c2.5,0.1,4.3,3.2,4.8,4.1c2.6,5.1-0.3,11.8-2.9,16.6c-3.3-2.2-6.1-5.2-7.1-8.8
			c-1.1-4-0.3-6.7,0.6-8.3C768.8,330.7,770.7,327.7,773.1,327.7z M823.3,281.1c1.6,0,2.9,0.7,3.4,1c4.2,2.6,4.4,9.6,4.5,12.6
			c0.1,3.3-0.2,6.6-0.9,9.7c-0.5-0.1-1-0.3-1.5-0.5c-7.2-2.7-12.7-11.4-11-17.5c0.2-0.7,1.3-4.3,4.2-5.1
			C822.5,281.2,822.9,281.1,823.3,281.1z"/>
	</g>
</g>
<g id="general">
	<g id="man">
		<g id="pattern_tshirt">
			<path class="st2" d="M452.6,342.6c0.3,0.1,0.6,0.2,1,0.2c1,0,1.9-0.6,2.3-1.5l6.5-15.7c-0.9-2.1-1.8-4.2-2.8-6.4l-8.4,20.2
				C450.7,340.6,451.3,342.1,452.6,342.6z"/>
			<path class="st2" d="M399.7,334c0.2,0,0.4,0,0.6-0.1l25.3-6.5c1.3-0.3,2.1-1.7,1.8-3c-0.3-1.3-1.7-2.1-3-1.8l-25.3,6.5
				c-1.3,0.3-2.1,1.7-1.8,3C397.6,333.2,398.6,334,399.7,334z"/>
			<path class="st2" d="M349.5,209.2c0.8,0,1.6-0.4,2.1-1.1c0.7-1.2,0.4-2.7-0.8-3.5l-22-14.1c-1.2-0.7-2.7-0.4-3.5,0.8
				c-0.7,1.2-0.4,2.7,0.8,3.5l22,14.1C348.6,209.1,349.1,209.2,349.5,209.2z"/>
			<path class="st2" d="M358.9,318.6c0.7,1.5,1.5,3.1,2.2,4.6l7.3-1.9c1.3-0.3,2.1-1.7,1.8-3c-0.4-1.3-1.7-2.1-3-1.8L358.9,318.6z"
				/>
			<path class="st2" d="M323.7,245.8c0.7,1.5,1.5,3.1,2.2,4.6l20-5.2c1.3-0.3,2.1-1.7,1.8-3c-0.4-1.3-1.7-2.1-3-1.8L323.7,245.8z"/>
			<path class="st2" d="M388.3,298.7c0.8,0,1.6-0.4,2.1-1.1c0.8-1.1,0.5-2.7-0.6-3.5l-21.5-14.8c-1.1-0.8-2.7-0.5-3.5,0.6
				s-0.5,2.7,0.6,3.5l21.5,14.8C387.3,298.6,387.8,298.7,388.3,298.7z"/>
			<path class="st2" d="M290.7,161.4c5,5.1,10,10.3,15,15.4c0.3,0.3,0.7,0.5,1.1,0.6c0.8,0.2,1.8,0,2.4-0.6c1-1,1-2.6,0-3.5
				l-13.4-13.4C295.1,160,291.3,161.1,290.7,161.4z"/>
			<path class="st2" d="M387.8,245.3c1.3,0,2.4-1.1,2.5-2.4l0.9-26.1c0-1.4-1-2.5-2.4-2.6c-1.4,0-2.5,1-2.6,2.4l-0.9,26.1
				C385.3,244.1,386.3,245.3,387.8,245.3C387.7,245.3,387.8,245.3,387.8,245.3z"/>
			<path class="st2" d="M425,277.9c0.2,0,0.4,0,0.5-0.1c1.3-0.3,2.2-1.6,1.9-3l-5.6-25.5c-0.3-1.3-1.6-2.2-3-1.9
				c-1.3,0.3-2.2,1.6-1.9,3l5.6,25.5C422.9,277.1,423.9,277.9,425,277.9z"/>
			<path class="st2" d="M378.5,187.4c0.5,0.5,1.1,0.7,1.7,0.7c0.7,0,1.3-0.3,1.8-0.8l12.2-13.2c-0.8-1.6-1.5-3.2-2.3-4.9l-13.5,14.6
				C377.4,184.9,377.5,186.5,378.5,187.4z"/>
			<path class="st2" d="M404.8,376l9.6,12c1.4-1,2.7-1.9,4.1-2.9l-9.8-12.2c-0.9-1.1-2.4-1.2-3.5-0.4
				C404.1,373.4,404,374.9,404.8,376z"/>
		</g>
		<g id="head">
			<path id="face" class="st4" d="M279.8,100.6c6.9-6.6,17.9-6.3,24.5,0.7c0,0,6.9-8.3-7.1-34.9c-12.8-24.2,23.3-24.6,30.1-36.1
				c4.7,2,9,4.5,12.7,7.2c2.8,2,9.1,6.3,15.1,13.9c1.8,2.3,3.8,5.1,5.7,8.3c10.7,17.7,20.4,46.1,5,63.2c-3.1,3.4-7,6.2-11.6,8.3
				l4.6,17.3c3.6,13.4-4.5,27.3-17.9,30.9c-13.4,3.6-27.3-4.5-30.9-17.9l-8.5-32c-0.3-1.2-0.5-2.3-0.7-3.5
				c-4.2-2.2-8.1-4.7-11.6-7.5c-1.9-1.6-3.9-3.4-5.8-5.3c-2.4-2.4-4.7-5.1-6.8-8C277.3,103.4,278.4,101.9,279.8,100.6z"/>
			<path id="nose" d="M355.2,91.3c0.1,0,0.2,0,0.3-0.1l10.7-8.2c0.1-0.1,0.2-0.3,0.2-0.4s-0.1-0.3-0.2-0.4l-21.4-14.4
				c-0.2-0.2-0.5-0.1-0.7,0.1s-0.1,0.5,0.1,0.7l20.8,14l-10.2,7.7c-0.2,0.2-0.3,0.5-0.1,0.7C354.9,91.2,355,91.3,355.2,91.3z"/>
			<g id="brows">
				<ellipse transform="matrix(0.9133 -0.4072 0.4072 0.9133 8.7151 147.5462)" cx="351" cy="53.3" rx="9" ry="2.3"/>
				<ellipse transform="matrix(0.9133 -0.4072 0.4072 0.9133 1.4195 137.5133)" cx="323.8" cy="65.4" rx="10.1" ry="2.3"/>
			</g>
			<path d="M345.7,131.8c3,0,6-0.3,9-0.8c0.3,0,0.5-0.3,0.4-0.6s-0.3-0.5-0.6-0.4c-3.1,0.6-6.2,0.8-9.3,0.8
				c-6.5-0.1-12.9-1.4-19.1-4c-0.3-0.1-0.5,0-0.7,0.3s0,0.5,0.3,0.7c6.3,2.6,12.8,4,19.5,4C345.4,131.8,345.5,131.8,345.7,131.8z"/>
			<g id="ear">
				<path class="st4" d="M274.6,110.8c0.5-3.8,2.3-7.4,5.2-10.2c6.9-6.6,17.9-6.3,24.5,0.7c6.6,6.9,6.3,17.9-0.7,24.4
					c-6.9,6.6-17.9,6.3-24.4-0.7C275.4,121.1,273.9,115.8,274.6,110.8z"/>
				<path d="M300.3,118.1c0.2,0,0.4-0.2,0.5-0.4c0.1-0.3-0.1-0.5-0.4-0.6c-1.8-0.4-3.3-1.7-3.8-3.4c-0.6-1.7-0.2-3.7,1.1-5
					c0.1-0.1,0.2-0.3,0.1-0.5c0-0.2-0.2-0.3-0.3-0.3l-14.4-4.8c-0.3-0.1-0.5,0.1-0.6,0.3c-0.1,0.3,0.1,0.5,0.3,0.6l13.7,4.6
					c-1.1,1.6-1.4,3.6-0.8,5.4C296.3,116.1,298.1,117.7,300.3,118.1C300.2,118.1,300.3,118.1,300.3,118.1z"/>
			</g>
			<path id="hair" d="M262.2,37.9c0-26.4,29.4-20.2,29.4-20.2c9.5-17.5,32.4-8.7,36.2,4.8l0,0c1.5-0.2,15.2-1.6,25.4,8.8
				c11.3,11.7,7.8,27.3,7.5,28.3c-1.9-3.1-3.8-5.9-5.7-8.3c-6-7.6-12.3-11.9-15.1-13.9c-3.7-2.7-8-5.2-12.7-7.2
				c-6.8,11.5-42.9,11.9-30.1,36.1c14,26.6,7.1,34.9,7.1,34.9c-6.6-6.9-17.5-7.2-24.5-0.7c-1.4,1.3-2.5,2.8-3.4,4.4
				c-1,1.8-1.6,3.8-1.9,5.8C247.1,101,255.7,75,255.7,75C239.3,51.1,262.2,37.9,262.2,37.9z"/>
			<g id="eyes">
				<circle cx="352.5" cy="63.3" r="2.7"/>
				<circle cx="331" cy="73.9" r="2.7"/>
			</g>
			<path id="mouth" d="M348,107.5c5.7,0,10.1-4.9,10.1-4.9c0.2-0.2,0.2-0.5,0-0.7s-0.5-0.2-0.7,0c0,0-1.9,2.1-4.7,3.5
				c-3.7,1.8-7.3,1.4-10.6-1c-0.2-0.2-0.5-0.1-0.7,0.1s-0.1,0.5,0.1,0.7C343.7,106.9,346,107.5,348,107.5z"/>
		</g>
		<g id="legs">
			<g id="socks">
				<path class="st5" d="M685.3,687.7c0.8,7.6,1.6,15.2,2.4,22.9c0.2,1.5,0.3,3,0.5,4.5c1.9-0.5,4-1.1,6.2-1.7
					c0.3-0.1,0.6-0.2,1-0.3c2.4-0.6,4.9-1.3,7.5-2c0.3-0.1,0.7-0.2,1-0.3c2.4-0.7,4.9-1.3,7.5-2c0.3-0.1,0.7-0.2,1-0.3
					c1.7-0.5,3.4-0.9,5.1-1.4c0.4-0.1,0.8-0.2,1.2-0.3c3.1-0.8,6.2-1.6,9.1-2.4c0.3-0.1,0.7-0.2,1-0.3c2.2-0.6,4.3-1.1,6.3-1.6
					c0.3-0.1,0.6-0.2,1-0.2l0,0c2.6-0.7,5.1-1.3,7.4-1.9c0.3-0.1,0.7-0.2,1-0.2c0.9-0.2,1.8-0.5,2.7-0.7c-0.9-4.2-3.9-20.2-6.1-31.9
					c-1.4,0.5-2.7,1-4.1,1.5c-0.4,0.1-0.7,0.3-1.1,0.4c-3,1-5.9,2.1-8.9,3.2c-0.3,0.1-0.6,0.2-1,0.3c-1.4,0.5-2.7,1-4.1,1.5
					c-0.5,0.2-1,0.4-1.5,0.5c-0.3,0.1-0.7,0.2-1,0.4c-2.5,0.9-5,1.8-7.5,2.7c-0.3,0.1-0.7,0.2-1,0.4l0,0c-2.3,0.8-4.6,1.7-7,2.5
					c-0.3,0.1-0.7,0.2-1,0.4c-2.1,0.8-4.2,1.5-6.3,2.3c-0.3,0.1-0.6,0.2-1,0.3c-2.4,0.9-4.9,1.8-7.3,2.6c-0.3,0.1-0.6,0.2-1,0.3
					C686.6,687.3,685.9,687.5,685.3,687.7z"/>
				<path class="st5" d="M445.3,684.6l5.6,2.3l1,0.4l6.8,2.8l1,0.4l5.5,2.2l0.9,0.4l5,2.1l1,0.4l5.5,2.2l0.9,0.4l10.6,4.3l0.9,0.4
					l6.7,2.8l0.9,0.4l2.8,1.2c1.7-2.9,3.4-5.7,5-8.6c-1.9-1.5-3.7-3.1-5.6-4.6c-0.3-0.2-0.5-0.5-0.8-0.7c-1.3-1.1-2.7-2.2-4-3.3
					c-0.3-0.2-0.5-0.4-0.8-0.6c-1.5-1.2-2.9-2.4-4.4-3.6c-0.3-0.2-0.6-0.5-0.8-0.7c-2.1-1.7-4.1-3.4-6.2-5.1
					c-0.3-0.2-0.6-0.5-0.8-0.7c-2.4-1.9-4.7-3.9-7.1-5.8c-0.3-0.2-0.5-0.4-0.8-0.6c-1.7-1.4-3.4-2.8-5.1-4.2
					c-0.3-0.2-0.6-0.5-0.9-0.7c-2.3-1.9-4.6-3.8-6.9-5.7c-0.3-0.2-0.6-0.5-0.9-0.8c-0.5-0.4-1-0.9-1.6-1.3l0,0
					C454.4,668.1,449.8,676.3,445.3,684.6z"/>
				<g id="pattern">
					<path class="st4" d="M736.8,683.8c0.5,1,1,1.7,1.5,2.5c0.4,0.6,0.8,1.2,1.3,2c2.1,3.5,3.4,7.7,3.8,12.4c0.3-0.1,0.7-0.2,1-0.2
						c-0.5-4.8-1.8-9-3.9-12.6c-0.5-0.9-1-1.5-1.3-2.1c-0.5-0.7-1-1.4-1.4-2.3c-1.9-3.9-2.2-8.6-0.8-14.1c-0.4,0.1-0.7,0.3-1.1,0.4
						C734.5,675.1,734.8,679.8,736.8,683.8z"/>
					<path class="st4" d="M726,673.2c1.8,2.7,2.9,5.4,3.5,8.2c0.2,0.9,0.2,1.8,0.3,2.7c0.2,1.8,0.3,3.6,1.2,6.3
						c0.5,1.7,1,2.7,1.5,3.6c0.3,0.7,0.7,1.3,1,2.3c0.8,2,1.3,4.2,1.5,6.5c0.3-0.1,0.6-0.2,1-0.2c-0.2-2.4-0.7-4.6-1.5-6.6
						c-0.4-1-0.7-1.7-1.1-2.4c-0.5-1-0.9-1.8-1.5-3.5c-0.8-2.6-1-4.3-1.2-6.1c-0.1-0.9-0.2-1.8-0.4-2.8c-0.5-2.8-1.7-5.6-3.5-8.3
						C726.6,672.9,726.3,673,726,673.2z"/>
					<path class="st4" d="M704.5,691.4c0.5,1,1,1.7,1.5,2.4c0.4,0.6,0.8,1.2,1.3,2c2.2,3.7,3.5,8.1,3.9,13.1c0.3-0.1,0.7-0.2,1-0.3
						c-0.4-5.1-1.8-9.5-4-13.3c-0.5-0.9-1-1.5-1.4-2.1c-0.5-0.7-0.9-1.4-1.4-2.3c-1.4-2.9-1.9-6.2-1.6-9.9c-0.3,0.1-0.7,0.2-1,0.4
						C702.5,685.2,703.1,688.5,704.5,691.4z"/>
					<path class="st4" d="M695.5,684.1c0.8,1.6,1.3,3.3,1.6,4.9c0.2,0.9,0.2,1.8,0.3,2.7c0.2,1.8,0.3,3.6,1.2,6.3
						c0.5,1.7,1,2.7,1.5,3.6c0.3,0.7,0.7,1.3,1,2.3c0.9,2.3,1.4,4.7,1.5,7.3c0.3-0.1,0.7-0.2,1-0.3c-0.2-2.7-0.7-5.2-1.6-7.5
						c-0.4-1-0.7-1.7-1.1-2.4c-0.5-1-0.9-1.9-1.5-3.5c-0.8-2.5-1-4.3-1.2-6.1c-0.1-0.9-0.2-1.8-0.3-2.8c-0.3-1.7-0.9-3.4-1.6-5.1
						C696.2,683.8,695.9,684,695.5,684.1z"/>
					<path class="st4" d="M687.3,687c0.7,1.5,1.1,3,1.4,4.5c0.2,1,0.3,1.8,0.3,2.7c0.2,1.8,0.4,3.6,1.2,6.3c0.5,1.7,1,2.7,1.5,3.6
						c0.3,0.7,0.7,1.3,1,2.3c0.8,2.2,1.4,4.6,1.5,7.1c0.3-0.1,0.6-0.2,1-0.3c-0.2-2.6-0.7-5-1.6-7.2c-0.4-1-0.7-1.7-1.1-2.4
						c-0.5-1-0.9-1.9-1.5-3.5c-0.8-2.5-1-4.3-1.2-6.1c-0.1-0.9-0.2-1.8-0.3-2.8c-0.3-1.6-0.8-3.1-1.4-4.6
						C687.9,686.8,687.6,686.9,687.3,687z"/>
					<path class="st4" d="M714.2,684.4c1.2,3.5,1.1,7,1,9.4s-0.3,4-0.6,5.3c-0.3,1.9-0.5,3.1,0.1,4.8c0.5,1.3,1.4,2.4,2.6,3.4
						c0.4-0.1,0.8-0.2,1.2-0.3c-1.4-1-2.3-2.2-2.8-3.5c-0.6-1.4-0.4-2.5-0.1-4.3c0.2-1.3,0.5-3,0.6-5.5c0.1-2.4,0.2-6-1.1-9.7
						c-0.7-2.1-1.8-4.1-3.3-5.9c-0.3,0.1-0.7,0.2-1,0.4C712.3,680.4,713.5,682.4,714.2,684.4z"/>
					<path class="st4" d="M721.7,686.5c-0.5,2-1,3.8,0,6c0.7,1.5,1.6,2.2,2.5,2.9c0.7,0.5,1.5,1.1,2.2,2.2c1.2,1.8,1.6,4.2,1.3,7
						c0.3-0.1,0.7-0.2,1-0.3c0.2-3-0.3-5.4-1.5-7.3c-0.8-1.2-1.7-1.9-2.5-2.5c-0.9-0.6-1.6-1.2-2.2-2.5c-0.8-1.9-0.4-3.5,0.1-5.4
						c0.4-1.5,0.8-3.1,0.7-5.1c-0.2-2.2-1.2-4.4-2.9-6.5c-0.3,0.1-0.7,0.2-1,0.4c1.8,2,2.7,4.1,2.9,6.2
						C722.5,683.5,722.1,685,721.7,686.5z"/>
					<path class="st4" d="M496.8,705.6l0.9,0.4c0.8-1.9,1.2-3.8,1.5-5.8c0.1-0.9,0.1-1.6,0.2-2.2c0-0.8,0.1-1.5,0.2-2.5
						c0.1-0.5,0.2-1.1,0.4-1.6c-0.3-0.2-0.5-0.5-0.8-0.7c-0.3,0.7-0.5,1.4-0.6,2.1c-0.2,1-0.2,1.8-0.3,2.6c0,0.6,0,1.3-0.1,2.2
						C498,701.9,497.5,703.8,496.8,705.6z"/>
					<path class="st4" d="M489.1,702.4l0.9,0.4c0.3-0.7,0.6-1.4,0.8-2.1c0.3-0.9,0.4-1.6,0.5-2.3c0.2-0.9,0.3-1.8,0.9-3.2
						c0.8-2.2,1.7-3.5,2.5-4.7c0.2-0.2,0.3-0.4,0.4-0.6c-0.3-0.2-0.5-0.4-0.8-0.6c-0.2,0.2-0.3,0.5-0.5,0.7
						c-0.9,1.3-1.8,2.6-2.7,4.9c-0.5,1.5-0.7,2.5-0.9,3.4c-0.1,0.7-0.2,1.3-0.5,2.2C489.7,701.1,489.4,701.8,489.1,702.4z"/>
					<path class="st4" d="M465.1,692.6l0.9,0.4c1-2.8,2.1-5.7,3.2-8.6c1.5-3.9,1.9-4.9,2.4-5.8c1-1.9,2.1-3.7,3.6-5.4
						c-0.3-0.2-0.5-0.4-0.8-0.6c-1.5,1.8-2.7,3.6-3.7,5.6c-0.5,1-0.9,2-2.4,5.9C467.2,687,466.1,689.8,465.1,692.6z"/>
					<path class="st4" d="M458.7,690l1,0.4c1.4-1.8,2.3-3.8,2.5-5.9c0.1-1.3,0-2.4-0.2-3.4c-0.2-1.3-0.4-2.4,0.2-3.8
						c0.6-1.5,1.5-2.1,2.6-2.8c0.8-0.5,1.7-1.1,2.5-2c1-1.1,1.6-2.4,2-4c-0.3-0.2-0.6-0.5-0.9-0.7c-0.3,1.6-1,3-1.9,4.1
						c-0.7,0.8-1.5,1.4-2.3,1.9c-1.2,0.8-2.3,1.5-3,3.3c-0.7,1.6-0.5,3-0.3,4.3c0.1,1,0.3,1.9,0.2,3.2
						C460.9,686.4,460.1,688.3,458.7,690z"/>
					<path class="st4" d="M450.8,686.8l1,0.4c1.9-1.8,3.1-3.7,3.5-5.9c0.2-1.1,0.1-1.9,0.1-2.7c-0.1-1-0.1-1.9,0.2-3.4
						c0.5-2,1.4-3.2,2.3-4.4c0.5-0.7,1.1-1.4,1.6-2.3c1-1.9,1.7-4.1,2-6.5c-0.3-0.2-0.6-0.5-0.9-0.8c-0.2,2.6-0.9,4.8-2,6.8
						c-0.5,0.8-1,1.5-1.5,2.2c-1,1.3-1.9,2.5-2.4,4.8c-0.4,1.6-0.3,2.7-0.3,3.7c0,0.8,0.1,1.5-0.1,2.5
						C453.9,683.2,452.8,685.1,450.8,686.8z"/>
					<path class="st4" d="M471.1,695.1l1,0.4c0-0.7,0-1.4,0.2-2c0.4-1.3,1.1-1.8,2.3-2.8c0.9-0.7,2.1-1.7,3.5-3.2s3.6-3.9,4.7-7.1
						c0.1-0.2,0.1-0.4,0.2-0.6c-0.3-0.2-0.6-0.5-0.8-0.7c-0.1,0.3-0.2,0.6-0.3,0.9c-1.1,3.1-3.2,5.3-4.5,6.8
						c-1.4,1.5-2.5,2.4-3.4,3.1c-1.3,1-2.2,1.7-2.7,3.3C471.2,693.8,471.1,694.4,471.1,695.1z"/>
					<path class="st4" d="M477.6,697.7l0.9,0.4c0.4-2.1,1.3-3.5,2.5-4.3c0.7-0.4,1.3-0.5,2-0.6c0.8-0.2,1.8-0.3,3-1.1
						c2.4-1.5,3.4-3.9,4.1-6.4c-0.3-0.2-0.6-0.5-0.8-0.7c-0.7,2.5-1.6,4.8-3.8,6.3c-1,0.7-1.8,0.8-2.6,0.9c-0.7,0.1-1.5,0.3-2.3,0.8
						C479,693.8,478,695.4,477.6,697.7z"/>
				</g>
			</g>
			<g id="shoes">
				<path class="st2" d="M688.1,715.1c1,9.4,2,18.8,3,28.1c10.6,5.3,21.6,10.6,33,15.8c17.6,8,34.6,15,51.1,21.4l49.7,20.8
					c0.6-2.4,1.2-5.4,1.6-8.6c0,0,0.3-2.9,0.4-5.5c0.1-6.8-3.6-16.5-5.8-20.3c-9.2-16.3-51.5-36.3-68.9-59.2c-1.7-2.3-3.4-4.8-5-7.8
					c-3.9-5.9-11.2-8.5-17.9-6.6c-6.3,1.8-10.9,7.5-11.4,14.1C707.9,709.9,698,712.5,688.1,715.1z"/>
				<path class="st5" d="M826.8,788.3c0.2,0,0.4-0.1,0.5-0.3c0.1-0.3,0-0.5-0.3-0.7l-137-56.7c-0.3-0.1-0.5,0-0.7,0.3
					c-0.2,0.3,0,0.5,0.3,0.7l137,56.7C826.7,788.3,826.7,788.3,826.8,788.3z"/>
				<path class="st5" d="M756.2,740.4c0.1,0,0.2,0,0.3-0.1l15.4-9.9c0.2-0.1,0.3-0.5,0.1-0.7c-0.1-0.2-0.5-0.3-0.7-0.2l-15.4,9.9
					c-0.2,0.1-0.3,0.5-0.1,0.7C755.8,740.4,756,740.4,756.2,740.4z"/>
				<path class="st5" d="M749.4,732.5c0.1,0,0.1,0,0.2,0l16.7-7.1c0.3-0.1,0.4-0.4,0.3-0.7c-0.1-0.3-0.4-0.4-0.7-0.3l-16.7,7.1
					c-0.3,0.1-0.4,0.4-0.3,0.7C749,732.3,749.2,732.5,749.4,732.5z"/>
				<path class="st2" d="M429.2,713.9c6,10.6,12.5,21.6,19.6,32.7c11,17.4,22.2,33.4,33.1,48c18.5,6.9,37,13.9,55.5,20.9
					c0.5-2.8,0.9-6.9,0.4-11.8c-0.8-7.8-3.6-13.6-5.3-16.7c-10.2-19.3-19.9-24.5-28.2-42c-2.6-5.6-6.6-14.5-6.2-25.7
					c0.2-4.4,1-8.5,2.3-12.3c-0.8-4.9-4.3-9-8.9-10.5c-6.3-2.1-11.5,1.6-12,2c-11.5-4.7-23-9.4-34.4-14c-0.1,0.2-0.5,1-0.7,1.2
					C439.4,695.2,434.3,704.6,429.2,713.9z"/>
				<path class="st5" d="M537.8,804.3c0.2,0,0.4-0.1,0.5-0.3c0.1-0.3,0-0.5-0.3-0.6l-47.6-18.3l-55.1-81.9c-0.2-0.2-0.5-0.3-0.7-0.1
					s-0.3,0.5-0.1,0.7l55.2,82c0.1,0.1,0.1,0.2,0.2,0.2l47.7,18.4C537.7,804.3,537.8,804.3,537.8,804.3z"/>
				<path class="st5" d="M502.3,746c0.3,0,0.5-0.2,0.5-0.5s-0.2-0.5-0.5-0.5l-20.1-0.6c-0.2,0-0.5,0.2-0.5,0.5s0.2,0.5,0.5,0.5
					L502.3,746L502.3,746z"/>
				<path class="st5" d="M499.5,740c0.2,0,0.4-0.2,0.5-0.4c0.1-0.3-0.1-0.5-0.4-0.6l-19.6-4.5c-0.3-0.1-0.5,0.1-0.6,0.4
					s0.1,0.5,0.4,0.6l19.6,4.5H499.5z"/>
			</g>
			<g id="pants">
				<path class="st3" d="M392.1,460.6c11.8,0,23.6,0,35.4-0.1c-9.9-20.4-19.7-40.8-29.6-61.2c19.5-12.9,39.3-27.2,59.2-42.9
					c4.7-3.7,9.2-7.3,13.8-11c10,2,24,5,40.6,9.1c17.2,4.2,28.4,6.9,40.6,10.7c24.3,7.5,56.1,17.6,87.5,42.5
					c2.3,1.8,12.5,10,23.9,22.3c21.6,23.3,38.5,51.7,62.5,122.4c9.8,28.6,21.3,65.9,32,110.3c-6.6,2-12.3,3.8-16.9,5.2
					c-2,0.6-2.5,0.8-2.9,0.9c-3.7,1.2-6.6,2.5-16.2,5.9c-12.2,4.4-24.4,8.8-36.6,13.1c-5.8,2.1-11.7,4.2-17.5,6.3l-7.4,2.6
					c-12.6-52.5-25.3-104.9-37.9-157.4c-7.5,19.7-19.5,40-34.3,63.7c-25.8,41.3-49.8,76.6-70.4,105.5c-3.6-3-7.2-5.9-10.8-8.9
					c-0.5-0.4-1-0.8-1.4-1.2c-15.5-12.8-31-25.7-46.6-38.5l0,0c-9.6-7.9-19.2-15.9-28.8-23.8c35.5-44.1,71.1-88.2,106.6-132.3
					c-51.1-16.2-91.8-28-119.5-35.8C407.2,465.2,399,462.9,392.1,460.6z"/>
				<path class="st2" d="M618,550.5c0.2,0,0.4-0.1,0.5-0.3c7.9-17.1,10.7-35.2,8.2-52.3c-4.2-28.2-21.4-45.9-35.2-60.1
					c-18.1-18.6-40.1-32.6-65.6-41.7c-0.3-0.1-0.5,0-0.6,0.3c-0.1,0.3,0,0.5,0.3,0.6c25.3,9,47.3,23,65.2,41.5
					c13.7,14.1,30.8,31.7,34.9,59.6c3.2,21.5-2.7,40-8.1,51.8c-0.1,0.2,0,0.5,0.2,0.7C617.9,550.5,618,550.5,618,550.5z"/>
				<path class="st2" d="M481.5,679.1c0.2,0,0.4-0.1,0.5-0.3l83-190.9c0.1-0.3,0-0.5-0.3-0.7l-157-68.7c-0.3-0.1-0.5,0-0.7,0.3
					c-0.1,0.3,0,0.5,0.3,0.7L563.9,488l-82.8,190.4c-0.1,0.3,0,0.5,0.3,0.7C481.4,679,481.5,679.1,481.5,679.1z"/>
				<path class="st2" d="M708.4,680c0.1,0,0.2,0,0.2-0.1c0.2-0.1,0.3-0.4,0.2-0.7l-81.7-161c-0.1-0.2-0.4-0.3-0.7-0.2
					c-0.2,0.1-0.3,0.4-0.2,0.7l81.7,161C708.1,679.9,708.2,680,708.4,680z"/>
			</g>
		</g>
		<g id="cardigan">
			<path class="st6" d="M158.4,337.3c62.9-120.7,83.1-144.9,110.5-163.6c3.4-2.3,8.7-5.9,15.2-9.9c27.9,57.7,55.8,115.5,83.7,173.2
				c10,20.7,20,41.4,30,62.1c9.9,20.4,19.7,40.8,29.6,61.2c-11.8,0-23.6,0.1-35.4,0.1c-4.7,0-9.4,0-14,0c-17.8,0-35.6,0-53.4-0.1
				c-16.5-60.9-33-121.8-49.4-182.7c-34.7,52.8-69.4,105.5-104.1,158.3c-19.3-3.1-38.6-6.3-57.9-9.4
				C123.5,405.6,139,374.6,158.4,337.3z"/>
			<path class="st6" d="M381.1,145.1c0.3,0,0.5,0.1,0.8,0.1l0,0c0.3,0.1,0.7,0.1,1.1,0.2c1.2,0.2,2.5,0.4,4,0.7
				c0.5,0.1,1,0.2,1.5,0.3s1.1,0.2,1.6,0.4c59.6,13.4,81.4,62,101.9,58.5c0,0,0,0,0.1,0c0.2,0,0.5-0.1,0.7-0.1
				c11.4-2.7,24.5-22.1,26.6-105.3c0,0,0,0,0.1,0c15.5-3.6,31-7.1,46.4-10.7c0,0,0.1,0,0.2,0c9.2,50.2,6.2,90.4,2.3,116.1
				c-5.6,36.6-10.7,70.1-34.7,81.6c-13,6.2-27.2,4-42.1-1.1l0,0c-7.2-2.5-14.5-5.5-21.9-8.7c-1.4-0.6-2.8-1.2-4.2-1.9
				c-0.4-0.2-0.9-0.4-1.3-0.6c2,3.4,4.1,6.9,6.2,10.5c4.2,7.1,8.6,14.5,12.5,21.2c9.5,16.1,19,32.1,28.5,48.2
				c-1.9-0.5-3.8-0.9-5.7-1.4c-11-2.6-22.6-5.2-34.9-7.7c-12.7-29.7-25.8-59.8-39.5-90.2c-1.7-3.7-3.3-7.4-5-11.1
				c-14.5-32-29.1-63.4-43.7-94.1l-2.5-5C380.4,145,380.7,145.1,381.1,145.1z"/>
			<path class="st2" d="M470.2,285.1c0.1,0,0.2,0,0.2-0.1c0.2-0.1,0.3-0.4,0.2-0.7l-28.2-51.1c-0.1-0.2-0.4-0.3-0.7-0.2
				c-0.2,0.1-0.3,0.4-0.2,0.7l28.2,51.1C469.8,285,470,285.1,470.2,285.1z"/>
		</g>
		<g id="hands">
			<path id="hand_l" class="st4" d="M550.7,74.1c2.2,0.6,4.9-0.9,6.3-3.7c2.5-6.7,5-13.4,7.4-20.2c0.2-0.5,0.5-1,0.8-1.5
				c-3.6,4.5-7.3,9.4-11,14.5c-2.1,3-4.2,6-6.1,8.9C548.5,72.8,549.4,73.7,550.7,74.1z M520.1,60.5c2.1-3.4,6.6-6,15.7-11.1
				c7.6-4.3,14.3-7.2,19-9.1c10.1-4.5,20.2-9,30.4-13.4c3.2-1.3,6.9,0.2,8.2,3.4c1.3,3.2-0.2,6.9-3.5,8.2L571.6,46
				c0.4,0.1,0.9,0.2,1.3,0.3c3.4,1.3,5.1,5.1,3.8,8.5c-1.3,5.7-2.9,11.7-4.8,18c-1.8,5.8-3.7,11.1-5.7,16.1c0,0-0.1,0-0.2,0
				c-15.5,3.6-31,7.1-46.4,10.7c-0.2-1.9-0.4-4.9-0.6-8.5C517.3,65.7,519.1,62.1,520.1,60.5z"/>
			<g id="hand_r">
				<path class="st4" d="M61.1,451.3c-0.4-0.7-0.6-1.4-0.7-2.2l0,0c-0.5-3.6,2-6.9,5.6-7.4h0.2c0.4-3.2,3.2-5.7,6.5-5.7h35.6
					l4.9-9.3l57.9,9.4c-2.3,5.8-3.7,10.6-4.5,13.9c-1,4.1-1.6,7.4-4.3,10.7c-1.7,2-21.4,17.6-29.6,24.4c-2.7,2.4-6.9,2.1-9.2-0.5
					c-2.4-2.7-2.2-6.9,0.5-9.2l16.4-14.6c-3.8,0-7.7,0-11.5,0l0,0l-50.6,15.9c-3.4,1.1-7.1-0.8-8.2-4.3s0.8-7.1,4.3-8.2l10.8-3.4
					l-19.5,2.6c-3.6,0.5-6.9-2-7.4-5.6C57.9,455.1,59.1,452.6,61.1,451.3z"/>
				<path d="M85.1,461.1c0.1,0,0.1,0,0.2,0l16.7-5.6c0.3-0.1,0.4-0.4,0.3-0.6c-0.1-0.3-0.4-0.4-0.6-0.3L85,460.2
					c-0.3,0.1-0.4,0.4-0.3,0.6C84.7,461,84.9,461.1,85.1,461.1z"/>
				<path d="M61.1,451.8C61.1,451.8,61.2,451.8,61.1,451.8l39.4-5.9c0.3,0,0.5-0.3,0.4-0.6c0-0.3-0.3-0.5-0.6-0.4l-39.4,5.9
					c-0.3,0-0.5,0.3-0.4,0.6C60.7,451.6,60.9,451.8,61.1,451.8z"/>
				<path d="M66.2,442.1C66.2,442.1,66.3,442.1,66.2,442.1l32.9-2.2c0.3,0,0.5-0.3,0.5-0.5c0-0.3-0.3-0.5-0.5-0.5l-32.9,2.2
					c-0.3,0-0.5,0.3-0.5,0.5C65.8,441.9,66,442.1,66.2,442.1z"/>
			</g>
		</g>
	</g>
</g>
</svg>
