<svg width="644" height="418" viewBox="0 0 644 418" fill="none" xmlns="http://www.w3.org/2000/svg">
<g filter="url(#filter0_d)">
<rect x="3" y="200.395" width="232.458" height="68.8974" rx="5.73718" fill="white"/>
<rect x="3.35857" y="200.753" width="231.741" height="68.1802" rx="5.3786" stroke="#F1F1F1" stroke-width="0.717147"/>
</g>
<g filter="url(#filter1_d)">
<rect x="270.01" y="54.5059" width="118.483" height="43.285" rx="5.73718" fill="white"/>
<rect x="270.368" y="54.8644" width="117.766" height="42.5678" rx="5.3786" stroke="#F1F1F1" stroke-width="0.717147"/>
</g>
<g filter="url(#filter2_d)">
<rect x="422.403" y="2.00049" width="211.968" height="43.285" rx="5.73718" fill="white"/>
<rect x="422.762" y="2.35906" width="211.251" height="42.5678" rx="5.3786" stroke="#F1F1F1" stroke-width="0.717147"/>
</g>
<rect x="435.568" y="15.1652" width="15.0601" height="15.0601" rx="5.3786" fill="white" fill-opacity="0.0606884" stroke="#CCCCCC" stroke-width="0.717147"/>
<path d="M445.608 20.5439L442.672 24.6423C442.549 24.7733 442.381 24.8468 442.206 24.8468C442.031 24.8468 441.864 24.7733 441.74 24.6423L440.229 23.0394" stroke="#CCCCCC" stroke-width="1.43429" stroke-linecap="round" stroke-linejoin="round"/>
<rect x="457.031" y="15.9336" width="162.895" height="13.3184" rx="6.65922" fill="#FF7C85"/>
<g filter="url(#filter3_d)">
<rect x="422.403" y="54.5059" width="186.356" height="43.285" rx="5.73718" fill="white"/>
<rect x="422.762" y="54.8644" width="185.639" height="42.5678" rx="5.3786" stroke="#F1F1F1" stroke-width="0.717147"/>
</g>
<rect x="435.568" y="67.6706" width="15.0601" height="15.0601" rx="5.3786" fill="white" fill-opacity="0.0606884" stroke="#CCCCCC" stroke-width="0.717147"/>
<path d="M445.608 73.0493L442.672 77.1477C442.549 77.2786 442.381 77.3522 442.206 77.3522C442.031 77.3522 441.864 77.2786 441.74 77.1477L440.229 75.5448" stroke="#CCCCCC" stroke-width="1.43429" stroke-linecap="round" stroke-linejoin="round"/>
<rect x="457.031" y="68.439" width="137.282" height="13.3184" rx="6.65922" fill="#FFDD59"/>
<g filter="url(#filter4_d)">
<rect x="422.403" y="109.573" width="186.356" height="43.285" rx="5.73718" fill="white"/>
<rect x="422.762" y="109.931" width="185.639" height="42.5678" rx="5.3786" stroke="#F1F1F1" stroke-width="0.717147"/>
</g>
<rect x="435.568" y="122.737" width="15.0601" height="15.0601" rx="5.3786" fill="white" fill-opacity="0.0606884" stroke="#CCCCCC" stroke-width="0.717147"/>
<rect x="457.031" y="123.506" width="137.282" height="13.3184" rx="6.65922" fill="#EDACC8"/>
<path d="M406.934 77.7951H422.394" stroke="#575FCF" stroke-width="1.53674" stroke-linecap="square" stroke-linejoin="round"/>
<path d="M388.492 77.7951H407.634" stroke="#575FCF" stroke-width="1.53674" stroke-linecap="square" stroke-linejoin="round"/>
<path d="M422.587 22.542L410.775 22.542C408.654 22.542 406.934 24.2621 406.934 26.3839V98.6421" stroke="#575FCF" stroke-width="1.53674"/>
<path d="M422.587 132.194L410.775 132.194C408.654 132.194 406.934 130.474 406.934 128.352V43.288" stroke="#575FCF" stroke-width="1.53674"/>
<path fill-rule="evenodd" clip-rule="evenodd" d="M406.165 85.8046C410.833 85.8046 414.617 82.0204 414.617 77.3525C414.617 72.6845 410.833 68.9004 406.165 68.9004C401.497 68.9004 397.713 72.6845 397.713 77.3525C397.713 82.0204 401.497 85.8046 406.165 85.8046Z" fill="#575FCF"/>
<path d="M410.391 77.9562H406.768H405.561H401.938V76.7488H405.561H406.768H410.391V77.9562Z" fill="white"/>
<g clip-path="url(#clip0)">
<g filter="url(#filter5_d)">
<rect x="431.368" y="177.446" width="186.356" height="61.2136" rx="5.73718" fill="white"/>
<rect x="431.727" y="177.804" width="185.639" height="60.4965" rx="5.3786" stroke="#F1F1F1" stroke-width="0.717147"/>
</g>
<path d="M489.622 215.888V222.278H490.58V215.888H492.979V215.081H487.223V215.888H489.622ZM493.139 219.678C493.139 219.362 493.179 219.083 493.26 218.841C493.347 218.592 493.465 218.384 493.613 218.216C493.761 218.048 493.932 217.92 494.127 217.833C494.329 217.746 494.54 217.702 494.762 217.702C494.984 217.702 495.192 217.746 495.387 217.833C495.589 217.92 495.763 218.048 495.911 218.216C496.059 218.384 496.173 218.592 496.254 218.841C496.341 219.083 496.385 219.362 496.385 219.678C496.385 219.994 496.341 220.276 496.254 220.524C496.173 220.766 496.059 220.971 495.911 221.139C495.763 221.301 495.589 221.425 495.387 221.512C495.192 221.6 494.984 221.643 494.762 221.643C494.54 221.643 494.329 221.6 494.127 221.512C493.932 221.425 493.761 221.301 493.613 221.139C493.465 220.971 493.347 220.766 493.26 220.524C493.179 220.276 493.139 219.994 493.139 219.678ZM492.232 219.678C492.232 220.061 492.286 220.417 492.393 220.746C492.501 221.075 492.662 221.364 492.877 221.613C493.092 221.855 493.358 222.046 493.673 222.188C493.989 222.322 494.352 222.389 494.762 222.389C495.179 222.389 495.542 222.322 495.851 222.188C496.167 222.046 496.432 221.855 496.647 221.613C496.862 221.364 497.023 221.075 497.131 220.746C497.238 220.417 497.292 220.061 497.292 219.678C497.292 219.295 497.238 218.938 497.131 218.609C497.023 218.273 496.862 217.984 496.647 217.742C496.432 217.494 496.167 217.299 495.851 217.158C495.542 217.017 495.179 216.946 494.762 216.946C494.352 216.946 493.989 217.017 493.673 217.158C493.358 217.299 493.092 217.494 492.877 217.742C492.662 217.984 492.501 218.273 492.393 218.609C492.286 218.938 492.232 219.295 492.232 219.678ZM498.302 217.067V222.278H499.159V219.033C499.159 218.932 499.183 218.807 499.23 218.66C499.283 218.505 499.364 218.357 499.472 218.216C499.586 218.075 499.73 217.954 499.905 217.853C500.086 217.752 500.302 217.702 500.55 217.702C500.745 217.702 500.903 217.732 501.024 217.793C501.152 217.846 501.252 217.927 501.326 218.035C501.4 218.135 501.451 218.256 501.478 218.398C501.511 218.539 501.528 218.693 501.528 218.861V222.278H502.385V219.033C502.385 218.629 502.506 218.307 502.748 218.065C502.99 217.823 503.322 217.702 503.746 217.702C503.954 217.702 504.122 217.732 504.25 217.793C504.384 217.853 504.488 217.937 504.562 218.045C504.636 218.146 504.686 218.266 504.713 218.408C504.74 218.549 504.754 218.7 504.754 218.861V222.278H505.61V218.458C505.61 218.189 505.567 217.961 505.479 217.773C505.399 217.578 505.281 217.42 505.126 217.299C504.979 217.178 504.797 217.09 504.582 217.037C504.374 216.976 504.139 216.946 503.877 216.946C503.534 216.946 503.218 217.023 502.929 217.178C502.647 217.332 502.418 217.551 502.244 217.833C502.136 217.51 501.951 217.282 501.689 217.148C501.427 217.013 501.135 216.946 500.812 216.946C500.08 216.946 499.519 217.242 499.129 217.833H499.109V217.067H498.302ZM507.521 219.678C507.521 219.362 507.561 219.083 507.642 218.841C507.729 218.592 507.847 218.384 507.995 218.216C508.142 218.048 508.314 217.92 508.509 217.833C508.71 217.746 508.922 217.702 509.144 217.702C509.366 217.702 509.574 217.746 509.769 217.833C509.97 217.92 510.145 218.048 510.293 218.216C510.441 218.384 510.555 218.592 510.636 218.841C510.723 219.083 510.767 219.362 510.767 219.678C510.767 219.994 510.723 220.276 510.636 220.524C510.555 220.766 510.441 220.971 510.293 221.139C510.145 221.301 509.97 221.425 509.769 221.512C509.574 221.6 509.366 221.643 509.144 221.643C508.922 221.643 508.71 221.6 508.509 221.512C508.314 221.425 508.142 221.301 507.995 221.139C507.847 220.971 507.729 220.766 507.642 220.524C507.561 220.276 507.521 219.994 507.521 219.678ZM506.614 219.678C506.614 220.061 506.667 220.417 506.775 220.746C506.882 221.075 507.044 221.364 507.259 221.613C507.474 221.855 507.739 222.046 508.055 222.188C508.371 222.322 508.734 222.389 509.144 222.389C509.56 222.389 509.923 222.322 510.232 222.188C510.548 222.046 510.814 221.855 511.029 221.613C511.244 221.364 511.405 221.075 511.513 220.746C511.62 220.417 511.674 220.061 511.674 219.678C511.674 219.295 511.62 218.938 511.513 218.609C511.405 218.273 511.244 217.984 511.029 217.742C510.814 217.494 510.548 217.299 510.232 217.158C509.923 217.017 509.56 216.946 509.144 216.946C508.734 216.946 508.371 217.017 508.055 217.158C507.739 217.299 507.474 217.494 507.259 217.742C507.044 217.984 506.882 218.273 506.775 218.609C506.667 218.938 506.614 219.295 506.614 219.678ZM512.654 217.067V222.278H513.511V219.96C513.511 219.624 513.544 219.328 513.611 219.073C513.679 218.811 513.786 218.589 513.934 218.408C514.082 218.226 514.277 218.088 514.519 217.994C514.761 217.9 515.053 217.853 515.396 217.853V216.946C514.932 216.933 514.549 217.027 514.246 217.228C513.944 217.43 513.689 217.742 513.48 218.166H513.46V217.067H512.654ZM516.011 217.067V222.278H516.867V219.96C516.867 219.624 516.901 219.328 516.968 219.073C517.035 218.811 517.143 218.589 517.291 218.408C517.439 218.226 517.633 218.088 517.875 217.994C518.117 217.9 518.41 217.853 518.752 217.853V216.946C518.289 216.933 517.906 217.027 517.603 217.228C517.301 217.43 517.045 217.742 516.837 218.166H516.817V217.067H516.011ZM519.845 219.678C519.845 219.362 519.886 219.083 519.966 218.841C520.054 218.592 520.171 218.384 520.319 218.216C520.467 218.048 520.638 217.92 520.833 217.833C521.035 217.746 521.246 217.702 521.468 217.702C521.69 217.702 521.898 217.746 522.093 217.833C522.295 217.92 522.469 218.048 522.617 218.216C522.765 218.384 522.879 218.592 522.96 218.841C523.047 219.083 523.091 219.362 523.091 219.678C523.091 219.994 523.047 220.276 522.96 220.524C522.879 220.766 522.765 220.971 522.617 221.139C522.469 221.301 522.295 221.425 522.093 221.512C521.898 221.6 521.69 221.643 521.468 221.643C521.246 221.643 521.035 221.6 520.833 221.512C520.638 221.425 520.467 221.301 520.319 221.139C520.171 220.971 520.054 220.766 519.966 220.524C519.886 220.276 519.845 219.994 519.845 219.678ZM518.938 219.678C518.938 220.061 518.992 220.417 519.099 220.746C519.207 221.075 519.368 221.364 519.583 221.613C519.798 221.855 520.064 222.046 520.379 222.188C520.695 222.322 521.058 222.389 521.468 222.389C521.885 222.389 522.248 222.322 522.557 222.188C522.873 222.046 523.138 221.855 523.353 221.613C523.568 221.364 523.729 221.075 523.837 220.746C523.944 220.417 523.998 220.061 523.998 219.678C523.998 219.295 523.944 218.938 523.837 218.609C523.729 218.273 523.568 217.984 523.353 217.742C523.138 217.494 522.873 217.299 522.557 217.158C522.248 217.017 521.885 216.946 521.468 216.946C521.058 216.946 520.695 217.017 520.379 217.158C520.064 217.299 519.798 217.494 519.583 217.742C519.368 217.984 519.207 218.273 519.099 218.609C518.992 218.938 518.938 219.295 518.938 219.678ZM530.169 222.278L531.833 217.067H530.946L529.776 221.331H529.756L528.667 217.067H527.73L526.682 221.331H526.662L525.482 217.067H524.535L526.208 222.278H527.135L528.184 218.135H528.204L529.262 222.278H530.169Z" fill="#999999"/>
<rect opacity="0.01" x="464.664" y="208.18" width="20.0801" height="20.0801" fill="#D8D8D8"/>
<path fill-rule="evenodd" clip-rule="evenodd" d="M468.68 214.874C468.68 214.135 469.279 213.535 470.018 213.535H479.389C480.128 213.535 480.728 214.135 480.728 214.874V222.906C480.728 223.645 480.128 224.245 479.389 224.245H470.018C469.279 224.245 468.68 223.645 468.68 222.906V214.874Z" stroke="#999999" stroke-width="1.33868" stroke-linecap="round" stroke-linejoin="round"/>
<path d="M477.382 212.197V213.44" stroke="#999999" stroke-width="1.33868" stroke-linecap="round" stroke-linejoin="round"/>
<path d="M472.026 212.197V213.44" stroke="#999999" stroke-width="1.33868" stroke-linecap="round" stroke-linejoin="round"/>
<path d="M468.68 216.834H480.728" stroke="#999999" stroke-width="1.33868" stroke-linecap="round" stroke-linejoin="round"/>
<rect x="444.532" y="190.61" width="15.0601" height="15.0601" rx="5.3786" fill="white" fill-opacity="0.0606884" stroke="#CCCCCC" stroke-width="0.717147"/>
<rect x="465.996" y="191.379" width="137.282" height="13.3184" rx="6.65922" fill="#FFDD59"/>
<g filter="url(#filter6_d)">
<rect x="431.368" y="249.16" width="211.968" height="43.285" rx="5.73718" fill="white"/>
<rect x="431.727" y="249.519" width="211.251" height="42.5678" rx="5.3786" stroke="#F1F1F1" stroke-width="0.717147"/>
</g>
<rect x="444.532" y="262.325" width="15.0601" height="15.0601" rx="5.3786" fill="white" fill-opacity="0.0606884" stroke="#CCCCCC" stroke-width="0.717147"/>
<rect x="465.996" y="263.094" width="162.895" height="13.3184" rx="6.65922" fill="#FF7C85"/>
<path d="M397.457 235.311H416.599" stroke="#575FCF" stroke-width="1.53674" stroke-linecap="square" stroke-linejoin="round"/>
<path d="M431.552 209.513L419.74 209.513C417.618 209.513 415.898 211.233 415.898 213.355V247.194" stroke="#575FCF" stroke-width="1.53674"/>
<path d="M431.552 270.501L419.74 270.501C417.618 270.501 415.898 268.781 415.898 266.66V220.014" stroke="#575FCF" stroke-width="1.53674"/>
<path fill-rule="evenodd" clip-rule="evenodd" d="M415.13 243.321C419.798 243.321 423.582 239.537 423.582 234.869C423.582 230.201 419.798 226.417 415.13 226.417C410.462 226.417 406.678 230.201 406.678 234.869C406.678 239.537 410.462 243.321 415.13 243.321Z" fill="#575FCF"/>
<path d="M419.355 235.473H415.733H414.526H410.903V234.265H414.526H415.733H419.355V235.473Z" fill="white"/>
</g>
<g filter="url(#filter7_d)">
<rect x="394.229" y="318.314" width="211.968" height="43.285" rx="5.73718" fill="white"/>
<rect x="394.588" y="318.672" width="211.251" height="42.5678" rx="5.3786" stroke="#F1F1F1" stroke-width="0.717147"/>
</g>
<rect x="407.394" y="331.478" width="15.0601" height="15.0601" rx="5.3786" fill="white" fill-opacity="0.0606884" stroke="#CCCCCC" stroke-width="0.717147"/>
<rect x="428.857" y="332.247" width="162.895" height="13.3184" rx="6.65922" fill="#EDACC8"/>
<g filter="url(#filter8_d)">
<rect x="394.229" y="370.819" width="211.968" height="43.285" rx="5.73718" fill="white"/>
<rect x="394.588" y="371.178" width="211.251" height="42.5678" rx="5.3786" stroke="#F1F1F1" stroke-width="0.717147"/>
</g>
<rect x="407.394" y="383.984" width="15.0601" height="15.0601" rx="5.3786" fill="white" fill-opacity="0.0606884" stroke="#CCCCCC" stroke-width="0.717147"/>
<rect x="428.857" y="384.752" width="162.895" height="13.3184" rx="6.65922" fill="#FFB800"/>
<path d="M360.318 364.654H379.46" stroke="#575FCF" stroke-width="1.53674" stroke-linecap="square" stroke-linejoin="round"/>
<path d="M394.413 338.855L382.602 338.855C380.48 338.855 378.76 340.575 378.76 342.697V389.343" stroke="#575FCF" stroke-width="1.53674"/>
<path d="M394.413 393.441L382.602 393.441C380.48 393.441 378.76 391.721 378.76 389.599V368.566" stroke="#575FCF" stroke-width="1.53674"/>
<path fill-rule="evenodd" clip-rule="evenodd" d="M377.991 372.663C382.659 372.663 386.443 368.879 386.443 364.211C386.443 359.543 382.659 355.759 377.991 355.759C373.323 355.759 369.539 359.543 369.539 364.211C369.539 368.879 373.323 372.663 377.991 372.663Z" fill="#575FCF"/>
<path d="M382.217 364.815H378.594H377.387H373.765V363.608H377.387H378.594H382.217V364.815Z" fill="white"/>
<path fill-rule="evenodd" clip-rule="evenodd" d="M282.815 79.401C282.815 78.8069 283.297 78.3253 283.891 78.3253C284.485 78.3253 284.967 78.8069 284.967 79.401C284.967 79.9951 284.485 80.4767 283.891 80.4767C283.297 80.4767 282.815 79.9951 282.815 79.401ZM282.815 73.6639C282.815 73.0698 283.297 72.5881 283.891 72.5881C284.485 72.5881 284.966 73.0698 284.966 73.6639C284.966 74.258 284.485 74.7396 283.891 74.7396C283.297 74.7396 282.815 74.258 282.815 73.6639ZM283.891 75.4567C283.297 75.4567 282.815 75.9383 282.815 76.5324C282.815 77.1265 283.297 77.6081 283.891 77.6081C284.485 77.6081 284.967 77.1265 284.967 76.5324C284.967 75.9383 284.485 75.4567 283.891 75.4567Z" fill="#CCCCCC"/>
<path fill-rule="evenodd" clip-rule="evenodd" d="M285.684 73.6639C285.684 73.0698 286.165 72.5881 286.759 72.5881C287.353 72.5881 287.835 73.0698 287.835 73.6639C287.835 74.258 287.353 74.7396 286.759 74.7396C286.165 74.7396 285.684 74.258 285.684 73.6639ZM285.683 79.401C285.683 78.8069 286.165 78.3253 286.759 78.3253C287.353 78.3253 287.835 78.8069 287.835 79.401C287.835 79.9951 287.353 80.4767 286.759 80.4767C286.165 80.4767 285.683 79.9951 285.683 79.401ZM286.759 75.4567C286.165 75.4567 285.683 75.9383 285.683 76.5324C285.683 77.1265 286.165 77.6081 286.759 77.6081C287.353 77.6081 287.835 77.1265 287.835 76.5324C287.835 75.9383 287.353 75.4567 286.759 75.4567Z" fill="#CCCCCC"/>
<path d="M300.948 72.4959C300.416 72.4959 299.953 72.6034 299.561 72.8183C299.177 73.0332 298.864 73.3229 298.621 73.6873C298.379 74.0424 298.196 74.4488 298.075 74.9067C297.963 75.3646 297.907 75.8318 297.907 76.3083C297.907 76.7848 297.963 77.252 298.075 77.7099C298.196 78.1678 298.379 78.5789 298.621 78.9433C298.864 79.2984 299.177 79.5834 299.561 79.7983C299.953 80.0132 300.416 80.1207 300.948 80.1207C301.481 80.1207 301.939 80.0132 302.322 79.7983C302.714 79.5834 303.032 79.2984 303.275 78.9433C303.518 78.5789 303.695 78.1678 303.807 77.7099C303.929 77.252 303.99 76.7848 303.99 76.3083C303.99 75.8318 303.929 75.3646 303.807 74.9067C303.695 74.4488 303.518 74.0424 303.275 73.6873C303.032 73.3229 302.714 73.0332 302.322 72.8183C301.939 72.6034 301.481 72.4959 300.948 72.4959ZM300.948 71.0663C301.696 71.0663 302.364 71.2065 302.952 71.4868C303.55 71.7671 304.055 72.1455 304.466 72.6221C304.877 73.0986 305.19 73.6546 305.405 74.29C305.629 74.9254 305.742 75.5982 305.742 76.3083C305.742 77.0278 305.629 77.7052 305.405 78.3406C305.19 78.976 304.877 79.532 304.466 80.0085C304.055 80.4851 303.55 80.8635 302.952 81.1438C302.364 81.4148 301.696 81.5503 300.948 81.5503C300.201 81.5503 299.528 81.4148 298.93 81.1438C298.341 80.8635 297.841 80.4851 297.43 80.0085C297.019 79.532 296.701 78.976 296.477 78.3406C296.262 77.7052 296.155 77.0278 296.155 76.3083C296.155 75.5982 296.262 74.9254 296.477 74.29C296.701 73.6546 297.019 73.0986 297.43 72.6221C297.841 72.1455 298.341 71.7671 298.93 71.4868C299.528 71.2065 300.201 71.0663 300.948 71.0663ZM307.154 71.3046H308.752V75.0048H308.78C308.892 74.8273 309.027 74.6684 309.186 74.5283C309.345 74.3881 309.518 74.2713 309.705 74.1779C309.901 74.0751 310.102 74.0003 310.308 73.9536C310.522 73.8975 310.733 73.8695 310.938 73.8695C311.508 73.8695 312.003 73.9723 312.424 74.1779C312.854 74.3741 313.209 74.6497 313.489 75.0048C313.77 75.3505 313.98 75.757 314.12 76.2242C314.26 76.6914 314.33 77.1913 314.33 77.7239C314.33 78.2098 314.265 78.6817 314.134 79.1395C314.012 79.5974 313.821 80.0039 313.559 80.3589C313.307 80.7047 312.985 80.985 312.592 81.1999C312.2 81.4055 311.737 81.5082 311.205 81.5082C310.962 81.5082 310.714 81.4895 310.462 81.4522C310.219 81.4241 309.985 81.3634 309.761 81.27C309.537 81.1765 309.331 81.0551 309.144 80.9055C308.967 80.756 308.817 80.5598 308.696 80.3169H308.668V81.312H307.154V71.3046ZM312.732 77.6959C312.732 77.3688 312.69 77.0511 312.606 76.7428C312.522 76.4344 312.396 76.1635 312.228 75.9299C312.06 75.6869 311.849 75.4954 311.597 75.3552C311.345 75.2057 311.055 75.131 310.728 75.131C310.055 75.131 309.546 75.3646 309.2 75.8318C308.864 76.299 308.696 76.9203 308.696 77.6959C308.696 78.0603 308.738 78.4014 308.822 78.7191C308.915 79.0274 309.051 79.2937 309.228 79.518C309.406 79.7422 309.616 79.9198 309.859 80.0506C310.111 80.1814 310.401 80.2468 310.728 80.2468C311.092 80.2468 311.401 80.172 311.653 80.0225C311.905 79.873 312.111 79.6815 312.27 79.4479C312.438 79.2049 312.555 78.934 312.62 78.635C312.695 78.3266 312.732 78.0136 312.732 77.6959ZM315.722 71.3046H317.32V72.8183H315.722V71.3046ZM315.722 74.0657H317.32V81.9287C317.32 82.6482 317.161 83.2042 316.844 83.5966C316.526 83.9891 315.993 84.1853 315.246 84.1853C315.087 84.1853 314.951 84.1806 314.839 84.1713C314.737 84.1619 314.634 84.1479 314.531 84.1292V82.8678C314.634 82.8865 314.732 82.9005 314.825 82.9098C314.919 82.9192 315.003 82.9239 315.078 82.9239C315.367 82.9239 315.545 82.8351 315.61 82.6575C315.685 82.48 315.722 82.2137 315.722 81.8586V74.0657ZM324.037 77.0511C324.018 76.7989 323.962 76.5559 323.869 76.3223C323.784 76.0887 323.663 75.8878 323.504 75.7196C323.355 75.5421 323.168 75.4019 322.944 75.2991C322.729 75.187 322.486 75.131 322.215 75.131C321.934 75.131 321.677 75.1823 321.444 75.2851C321.22 75.3786 321.023 75.5141 320.855 75.6916C320.696 75.8598 320.565 76.0607 320.463 76.2943C320.369 76.5279 320.318 76.7802 320.309 77.0511H324.037ZM320.309 78.1023C320.309 78.3827 320.346 78.6536 320.421 78.9153C320.505 79.1769 320.626 79.4058 320.785 79.6021C320.944 79.7983 321.145 79.9571 321.388 80.0786C321.631 80.1907 321.92 80.2468 322.257 80.2468C322.724 80.2468 323.098 80.1487 323.378 79.9525C323.668 79.7469 323.883 79.4432 324.023 79.0414H325.536C325.452 79.4339 325.308 79.7843 325.102 80.0926C324.896 80.401 324.649 80.6626 324.359 80.8775C324.069 81.0831 323.742 81.2373 323.378 81.34C323.023 81.4522 322.649 81.5082 322.257 81.5082C321.687 81.5082 321.182 81.4148 320.743 81.2279C320.304 81.041 319.93 80.7794 319.622 80.443C319.323 80.1066 319.094 79.7048 318.935 79.2376C318.785 78.7704 318.711 78.2565 318.711 77.6959C318.711 77.182 318.79 76.6961 318.949 76.2382C319.117 75.771 319.351 75.3646 319.65 75.0188C319.958 74.6638 320.327 74.3834 320.757 74.1779C321.187 73.9723 321.673 73.8695 322.215 73.8695C322.785 73.8695 323.294 73.991 323.742 74.2339C324.2 74.4675 324.579 74.7806 324.878 75.173C325.177 75.5655 325.392 76.0186 325.522 76.5326C325.663 77.0371 325.7 77.5604 325.635 78.1023H320.309ZM331.741 76.4905C331.675 76.042 331.493 75.7056 331.194 75.4814C330.905 75.2478 330.535 75.131 330.087 75.131C329.881 75.131 329.662 75.1683 329.428 75.2431C329.195 75.3085 328.98 75.4393 328.783 75.6355C328.587 75.8224 328.424 76.0887 328.293 76.4344C328.162 76.7708 328.097 77.2147 328.097 77.766C328.097 78.065 328.129 78.364 328.195 78.663C328.27 78.962 328.382 79.2283 328.531 79.4619C328.69 79.6955 328.891 79.8871 329.134 80.0366C329.377 80.1767 329.671 80.2468 330.017 80.2468C330.484 80.2468 330.867 80.102 331.166 79.8123C331.475 79.5226 331.666 79.1162 331.741 78.5929H333.339C333.189 79.5367 332.829 80.2608 332.259 80.7654C331.699 81.2606 330.951 81.5082 330.017 81.5082C329.447 81.5082 328.942 81.4148 328.503 81.2279C328.073 81.0317 327.709 80.7701 327.41 80.443C327.111 80.1066 326.882 79.7095 326.723 79.2517C326.574 78.7938 326.499 78.2986 326.499 77.766C326.499 77.224 326.574 76.7148 326.723 76.2382C326.873 75.7617 327.097 75.3505 327.396 75.0048C327.695 74.6497 328.064 74.3741 328.503 74.1779C328.952 73.9723 329.475 73.8695 330.073 73.8695C330.493 73.8695 330.891 73.9256 331.264 74.0377C331.647 74.1405 331.984 74.2993 332.273 74.5143C332.572 74.7292 332.815 75.0001 333.002 75.3272C333.189 75.6542 333.301 76.042 333.339 76.4905H331.741ZM333.909 74.0657H335.114V71.8933H336.712V74.0657H338.155V75.2571H336.712V79.1255C336.712 79.2937 336.717 79.4385 336.726 79.56C336.745 79.6815 336.777 79.7843 336.824 79.8684C336.88 79.9525 336.959 80.0179 337.062 80.0646C337.165 80.102 337.305 80.1207 337.483 80.1207C337.595 80.1207 337.707 80.1207 337.819 80.1207C337.931 80.1113 338.043 80.0926 338.155 80.0646V81.298C337.978 81.3167 337.805 81.3354 337.637 81.3541C337.469 81.3727 337.296 81.3821 337.118 81.3821C336.698 81.3821 336.357 81.3447 336.095 81.27C335.843 81.1859 335.642 81.0691 335.492 80.9196C335.352 80.7607 335.254 80.5645 335.198 80.3309C335.151 80.0973 335.123 79.831 335.114 79.532V75.2571H333.909V74.0657ZM339.347 71.3046H340.945V72.8183H339.347V71.3046ZM339.347 74.0657H340.945V81.312H339.347V74.0657ZM341.971 74.0657H343.709L345.545 79.6301H345.573L347.339 74.0657H348.993L346.4 81.312H344.606L341.971 74.0657ZM354.929 77.0511C354.911 76.7989 354.855 76.5559 354.761 76.3223C354.677 76.0887 354.556 75.8878 354.397 75.7196C354.247 75.5421 354.06 75.4019 353.836 75.2991C353.621 75.187 353.378 75.131 353.107 75.131C352.827 75.131 352.57 75.1823 352.336 75.2851C352.112 75.3786 351.916 75.5141 351.748 75.6916C351.589 75.8598 351.458 76.0607 351.355 76.2943C351.262 76.5279 351.211 76.7802 351.201 77.0511H354.929ZM351.201 78.1023C351.201 78.3827 351.239 78.6536 351.313 78.9153C351.397 79.1769 351.519 79.4058 351.678 79.6021C351.837 79.7983 352.037 79.9571 352.28 80.0786C352.523 80.1907 352.813 80.2468 353.149 80.2468C353.617 80.2468 353.99 80.1487 354.271 79.9525C354.56 79.7469 354.775 79.4432 354.915 79.0414H356.429C356.345 79.4339 356.2 79.7843 355.995 80.0926C355.789 80.401 355.541 80.6626 355.252 80.8775C354.962 81.0831 354.635 81.2373 354.271 81.34C353.916 81.4522 353.542 81.5082 353.149 81.5082C352.579 81.5082 352.075 81.4148 351.636 81.2279C351.197 81.041 350.823 80.7794 350.514 80.443C350.215 80.1066 349.986 79.7048 349.828 79.2376C349.678 78.7704 349.603 78.2565 349.603 77.6959C349.603 77.182 349.683 76.6961 349.842 76.2382C350.01 75.771 350.243 75.3646 350.542 75.0188C350.851 74.6638 351.22 74.3834 351.65 74.1779C352.08 73.9723 352.565 73.8695 353.107 73.8695C353.677 73.8695 354.187 73.991 354.635 74.2339C355.093 74.4675 355.471 74.7806 355.77 75.173C356.069 75.5655 356.284 76.0186 356.415 76.5326C356.555 77.0371 356.593 77.5604 356.527 78.1023H351.201ZM358.947 78.9854C358.994 79.4526 359.172 79.7796 359.48 79.9665C359.788 80.1534 360.157 80.2468 360.587 80.2468C360.737 80.2468 360.905 80.2375 361.092 80.2188C361.288 80.1907 361.47 80.144 361.638 80.0786C361.807 80.0132 361.942 79.9198 362.045 79.7983C362.157 79.6675 362.208 79.4993 362.199 79.2937C362.19 79.0881 362.115 78.9199 361.975 78.7891C361.835 78.6583 361.652 78.5555 361.428 78.4808C361.213 78.3967 360.966 78.3266 360.685 78.2705C360.405 78.2145 360.12 78.1537 359.83 78.0883C359.531 78.0229 359.242 77.9435 358.961 77.8501C358.69 77.7566 358.443 77.6305 358.219 77.4716C358.004 77.3128 357.831 77.1119 357.7 76.8689C357.569 76.6167 357.504 76.3083 357.504 75.9439C357.504 75.5514 357.597 75.2244 357.784 74.9628C357.98 74.6918 358.223 74.4769 358.513 74.318C358.812 74.1498 359.139 74.033 359.494 73.9676C359.858 73.9022 360.204 73.8695 360.531 73.8695C360.905 73.8695 361.26 73.9116 361.596 73.9957C361.942 74.0704 362.25 74.1966 362.521 74.3741C362.802 74.5516 363.031 74.7852 363.208 75.0749C363.395 75.3552 363.512 75.6963 363.559 76.0981H361.891C361.816 75.715 361.638 75.458 361.358 75.3272C361.087 75.1964 360.774 75.131 360.419 75.131C360.307 75.131 360.171 75.1403 360.013 75.159C359.863 75.1777 359.718 75.2151 359.578 75.2711C359.447 75.3178 359.335 75.3926 359.242 75.4954C359.148 75.5888 359.102 75.715 359.102 75.8738C359.102 76.07 359.167 76.2289 359.298 76.3503C359.438 76.4718 359.615 76.5746 359.83 76.6587C360.055 76.7335 360.307 76.7989 360.587 76.8549C360.868 76.911 361.157 76.9717 361.456 77.0371C361.746 77.1025 362.031 77.182 362.311 77.2754C362.592 77.3688 362.839 77.495 363.054 77.6538C363.278 77.8127 363.456 78.0136 363.587 78.2565C363.727 78.4995 363.797 78.7985 363.797 79.1535C363.797 79.5834 363.699 79.9478 363.503 80.2468C363.306 80.5458 363.049 80.7887 362.732 80.9756C362.423 81.1625 362.078 81.298 361.694 81.3821C361.311 81.4662 360.933 81.5082 360.559 81.5082C360.101 81.5082 359.676 81.4568 359.284 81.3541C358.901 81.2513 358.564 81.0971 358.275 80.8915C357.994 80.6766 357.77 80.415 357.602 80.1066C357.443 79.7889 357.359 79.4152 357.35 78.9854H358.947Z" fill="#303030"/>
<g filter="url(#filter9_d)">
<rect x="270.01" y="213.303" width="126.167" height="43.285" rx="5.73718" fill="white"/>
<rect x="270.368" y="213.661" width="125.45" height="42.5678" rx="5.3786" stroke="#F1F1F1" stroke-width="0.717147"/>
</g>
<path fill-rule="evenodd" clip-rule="evenodd" d="M282.815 236.917C282.815 236.323 283.297 235.842 283.891 235.842C284.485 235.842 284.967 236.323 284.967 236.917C284.967 237.512 284.485 237.993 283.891 237.993C283.297 237.993 282.815 237.512 282.815 236.917ZM282.815 231.18C282.815 230.586 283.297 230.104 283.891 230.104C284.485 230.104 284.966 230.586 284.966 231.18C284.966 231.774 284.485 232.256 283.891 232.256C283.297 232.256 282.815 231.774 282.815 231.18ZM283.891 232.973C283.297 232.973 282.815 233.455 282.815 234.049C282.815 234.643 283.297 235.125 283.891 235.125C284.485 235.125 284.967 234.643 284.967 234.049C284.967 233.455 284.485 232.973 283.891 232.973Z" fill="#CCCCCC"/>
<path fill-rule="evenodd" clip-rule="evenodd" d="M285.684 231.18C285.684 230.586 286.165 230.104 286.759 230.104C287.353 230.104 287.835 230.586 287.835 231.18C287.835 231.774 287.353 232.256 286.759 232.256C286.165 232.256 285.684 231.774 285.684 231.18ZM285.683 236.917C285.683 236.323 286.165 235.842 286.759 235.842C287.353 235.842 287.835 236.323 287.835 236.917C287.835 237.512 287.353 237.993 286.759 237.993C286.165 237.993 285.683 237.512 285.683 236.917ZM286.759 232.973C286.165 232.973 285.683 233.455 285.683 234.049C285.683 234.643 286.165 235.125 286.759 235.125C287.353 235.125 287.835 234.643 287.835 234.049C287.835 233.455 287.353 232.973 286.759 232.973Z" fill="#CCCCCC"/>
<path d="M296.687 230.101H303.892V231.615H298.439V234.236H303.485V235.666H298.439V238.595H303.99V240.109H296.687V230.101ZM305.291 232.863H306.805V233.928L306.833 233.956C307.076 233.554 307.394 233.241 307.786 233.017C308.179 232.783 308.613 232.666 309.09 232.666C309.884 232.666 310.51 232.872 310.968 233.283C311.426 233.694 311.655 234.311 311.655 235.133V240.109H310.057V235.554C310.038 234.984 309.917 234.573 309.692 234.32C309.468 234.059 309.118 233.928 308.641 233.928C308.37 233.928 308.127 233.979 307.912 234.082C307.698 234.175 307.515 234.311 307.366 234.488C307.216 234.657 307.1 234.858 307.015 235.091C306.931 235.325 306.889 235.572 306.889 235.834V240.109H305.291V232.863ZM320.039 239.73C320.039 240.824 319.731 241.637 319.114 242.169C318.507 242.711 317.629 242.982 316.479 242.982C316.115 242.982 315.746 242.945 315.372 242.87C315.008 242.795 314.671 242.669 314.363 242.492C314.064 242.314 313.812 242.08 313.606 241.791C313.4 241.501 313.279 241.146 313.242 240.726H314.839C314.886 240.95 314.966 241.132 315.078 241.272C315.19 241.412 315.321 241.52 315.47 241.595C315.629 241.679 315.802 241.73 315.989 241.749C316.176 241.777 316.372 241.791 316.577 241.791C317.222 241.791 317.694 241.632 317.993 241.314C318.292 240.997 318.442 240.539 318.442 239.941V238.833H318.414C318.189 239.235 317.881 239.548 317.488 239.773C317.105 239.997 316.69 240.109 316.241 240.109C315.662 240.109 315.166 240.011 314.755 239.815C314.354 239.609 314.017 239.333 313.746 238.988C313.485 238.633 313.293 238.226 313.172 237.768C313.05 237.31 312.989 236.82 312.989 236.297C312.989 235.811 313.064 235.348 313.214 234.909C313.363 234.47 313.578 234.087 313.858 233.76C314.139 233.423 314.48 233.157 314.881 232.961C315.293 232.765 315.755 232.666 316.269 232.666C316.727 232.666 317.147 232.765 317.531 232.961C317.914 233.148 318.208 233.447 318.414 233.858H318.442V232.863H320.039V239.73ZM316.493 238.847C316.848 238.847 317.147 238.777 317.39 238.637C317.643 238.488 317.844 238.296 317.993 238.063C318.152 237.82 318.264 237.549 318.329 237.25C318.404 236.941 318.442 236.633 318.442 236.325C318.442 236.016 318.404 235.717 318.329 235.428C318.255 235.138 318.138 234.881 317.979 234.657C317.83 234.432 317.629 234.255 317.376 234.124C317.133 233.993 316.839 233.928 316.493 233.928C316.138 233.928 315.839 234.003 315.596 234.152C315.353 234.302 315.157 234.498 315.008 234.741C314.858 234.974 314.751 235.245 314.685 235.554C314.62 235.853 314.587 236.152 314.587 236.451C314.587 236.75 314.625 237.044 314.699 237.334C314.774 237.614 314.886 237.866 315.036 238.091C315.195 238.315 315.391 238.497 315.624 238.637C315.867 238.777 316.157 238.847 316.493 238.847ZM321.69 230.101H323.288V231.615H321.69V230.101ZM321.69 232.863H323.288V240.109H321.69V232.863ZM325.029 232.863H326.543V233.928L326.571 233.956C326.814 233.554 327.131 233.241 327.524 233.017C327.916 232.783 328.351 232.666 328.827 232.666C329.621 232.666 330.247 232.872 330.705 233.283C331.163 233.694 331.392 234.311 331.392 235.133V240.109H329.794V235.554C329.776 234.984 329.654 234.573 329.43 234.32C329.206 234.059 328.855 233.928 328.379 233.928C328.108 233.928 327.865 233.979 327.65 234.082C327.435 234.175 327.253 234.311 327.103 234.488C326.954 234.657 326.837 234.858 326.753 235.091C326.669 235.325 326.627 235.572 326.627 235.834V240.109H325.029V232.863ZM338.053 235.848C338.034 235.596 337.978 235.353 337.885 235.119C337.8 234.886 337.679 234.685 337.52 234.517C337.371 234.339 337.184 234.199 336.96 234.096C336.745 233.984 336.502 233.928 336.231 233.928C335.95 233.928 335.693 233.979 335.46 234.082C335.236 234.175 335.039 234.311 334.871 234.488C334.712 234.657 334.581 234.858 334.479 235.091C334.385 235.325 334.334 235.577 334.325 235.848H338.053ZM334.325 236.899C334.325 237.18 334.362 237.451 334.437 237.712C334.521 237.974 334.642 238.203 334.801 238.399C334.96 238.595 335.161 238.754 335.404 238.875C335.647 238.988 335.936 239.044 336.273 239.044C336.74 239.044 337.114 238.946 337.394 238.749C337.684 238.544 337.899 238.24 338.039 237.838H339.552C339.468 238.231 339.324 238.581 339.118 238.889C338.912 239.198 338.665 239.459 338.375 239.674C338.085 239.88 337.758 240.034 337.394 240.137C337.039 240.249 336.665 240.305 336.273 240.305C335.703 240.305 335.198 240.212 334.759 240.025C334.32 239.838 333.946 239.576 333.638 239.24C333.339 238.904 333.11 238.502 332.951 238.035C332.801 237.567 332.727 237.053 332.727 236.493C332.727 235.979 332.806 235.493 332.965 235.035C333.133 234.568 333.367 234.161 333.666 233.816C333.974 233.461 334.343 233.18 334.773 232.975C335.203 232.769 335.689 232.666 336.231 232.666C336.801 232.666 337.31 232.788 337.758 233.031C338.216 233.264 338.595 233.577 338.894 233.97C339.193 234.362 339.408 234.816 339.538 235.329C339.679 235.834 339.716 236.357 339.651 236.899H334.325ZM345.841 235.848C345.822 235.596 345.766 235.353 345.673 235.119C345.589 234.886 345.467 234.685 345.308 234.517C345.159 234.339 344.972 234.199 344.748 234.096C344.533 233.984 344.29 233.928 344.019 233.928C343.739 233.928 343.482 233.979 343.248 234.082C343.024 234.175 342.828 234.311 342.659 234.488C342.5 234.657 342.37 234.858 342.267 235.091C342.173 235.325 342.122 235.577 342.113 235.848H345.841ZM342.113 236.899C342.113 237.18 342.15 237.451 342.225 237.712C342.309 237.974 342.43 238.203 342.589 238.399C342.748 238.595 342.949 238.754 343.192 238.875C343.435 238.988 343.725 239.044 344.061 239.044C344.528 239.044 344.902 238.946 345.182 238.749C345.472 238.544 345.687 238.24 345.827 237.838H347.341C347.257 238.231 347.112 238.581 346.906 238.889C346.701 239.198 346.453 239.459 346.163 239.674C345.874 239.88 345.547 240.034 345.182 240.137C344.827 240.249 344.453 240.305 344.061 240.305C343.491 240.305 342.986 240.212 342.547 240.025C342.108 239.838 341.734 239.576 341.426 239.24C341.127 238.904 340.898 238.502 340.739 238.035C340.59 237.567 340.515 237.053 340.515 236.493C340.515 235.979 340.594 235.493 340.753 235.035C340.921 234.568 341.155 234.161 341.454 233.816C341.762 233.461 342.131 233.18 342.561 232.975C342.991 232.769 343.477 232.666 344.019 232.666C344.589 232.666 345.098 232.788 345.547 233.031C346.004 233.264 346.383 233.577 346.682 233.97C346.981 234.362 347.196 234.816 347.327 235.329C347.467 235.834 347.504 236.357 347.439 236.899H342.113ZM348.653 232.863H350.153V234.264H350.181C350.228 234.068 350.317 233.876 350.448 233.69C350.588 233.503 350.751 233.334 350.938 233.185C351.134 233.026 351.349 232.9 351.583 232.807C351.816 232.713 352.055 232.666 352.298 232.666C352.485 232.666 352.611 232.671 352.676 232.68C352.751 232.69 352.826 232.699 352.9 232.708V234.25C352.788 234.232 352.671 234.217 352.55 234.208C352.438 234.189 352.326 234.18 352.214 234.18C351.943 234.18 351.686 234.236 351.443 234.348C351.209 234.451 351.003 234.61 350.826 234.825C350.648 235.03 350.508 235.287 350.405 235.596C350.303 235.904 350.251 236.259 350.251 236.661V240.109H348.653V232.863ZM353.623 230.101H355.221V231.615H353.623V230.101ZM353.623 232.863H355.221V240.109H353.623V232.863ZM356.962 232.863H358.476V233.928L358.504 233.956C358.746 233.554 359.064 233.241 359.457 233.017C359.849 232.783 360.284 232.666 360.76 232.666C361.554 232.666 362.18 232.872 362.638 233.283C363.096 233.694 363.325 234.311 363.325 235.133V240.109H361.727V235.554C361.709 234.984 361.587 234.573 361.363 234.32C361.139 234.059 360.788 233.928 360.312 233.928C360.041 233.928 359.798 233.979 359.583 234.082C359.368 234.175 359.186 234.311 359.036 234.488C358.887 234.657 358.77 234.858 358.686 235.091C358.602 235.325 358.56 235.572 358.56 235.834V240.109H356.962V232.863ZM371.71 239.73C371.71 240.824 371.401 241.637 370.785 242.169C370.177 242.711 369.299 242.982 368.15 242.982C367.785 242.982 367.416 242.945 367.042 242.87C366.678 242.795 366.342 242.669 366.033 242.492C365.734 242.314 365.482 242.08 365.276 241.791C365.071 241.501 364.949 241.146 364.912 240.726H366.51C366.556 240.95 366.636 241.132 366.748 241.272C366.86 241.412 366.991 241.52 367.14 241.595C367.299 241.679 367.472 241.73 367.659 241.749C367.846 241.777 368.042 241.791 368.248 241.791C368.892 241.791 369.364 241.632 369.663 241.314C369.962 240.997 370.112 240.539 370.112 239.941V238.833H370.084C369.86 239.235 369.551 239.548 369.159 239.773C368.776 239.997 368.36 240.109 367.911 240.109C367.332 240.109 366.837 240.011 366.426 239.815C366.024 239.609 365.687 239.333 365.416 238.988C365.155 238.633 364.963 238.226 364.842 237.768C364.72 237.31 364.66 236.82 364.66 236.297C364.66 235.811 364.734 235.348 364.884 234.909C365.033 234.47 365.248 234.087 365.529 233.76C365.809 233.423 366.15 233.157 366.552 232.961C366.963 232.765 367.425 232.666 367.939 232.666C368.397 232.666 368.818 232.765 369.201 232.961C369.584 233.148 369.878 233.447 370.084 233.858H370.112V232.863H371.71V239.73ZM368.164 238.847C368.519 238.847 368.818 238.777 369.061 238.637C369.313 238.488 369.514 238.296 369.663 238.063C369.822 237.82 369.934 237.549 370 237.25C370.074 236.941 370.112 236.633 370.112 236.325C370.112 236.016 370.074 235.717 370 235.428C369.925 235.138 369.808 234.881 369.649 234.657C369.5 234.432 369.299 234.255 369.047 234.124C368.804 233.993 368.509 233.928 368.164 233.928C367.809 233.928 367.51 234.003 367.267 234.152C367.024 234.302 366.827 234.498 366.678 234.741C366.528 234.974 366.421 235.245 366.356 235.554C366.29 235.853 366.257 236.152 366.257 236.451C366.257 236.75 366.295 237.044 366.37 237.334C366.444 237.614 366.556 237.866 366.706 238.091C366.865 238.315 367.061 238.497 367.295 238.637C367.538 238.777 367.827 238.847 368.164 238.847Z" fill="#303030"/>
<g filter="url(#filter10_d)">
<rect x="270.01" y="341.365" width="90.3093" height="43.285" rx="5.73718" fill="white"/>
<rect x="270.368" y="341.723" width="89.5922" height="42.5678" rx="5.3786" stroke="#F1F1F1" stroke-width="0.717147"/>
</g>
<path fill-rule="evenodd" clip-rule="evenodd" d="M282.815 364.979C282.815 364.385 283.297 363.904 283.891 363.904C284.485 363.904 284.967 364.385 284.967 364.979C284.967 365.574 284.485 366.055 283.891 366.055C283.297 366.055 282.815 365.574 282.815 364.979ZM282.815 359.242C282.815 358.648 283.297 358.167 283.891 358.167C284.485 358.167 284.966 358.648 284.966 359.242C284.966 359.836 284.485 360.318 283.891 360.318C283.297 360.318 282.815 359.836 282.815 359.242ZM283.891 361.035C283.297 361.035 282.815 361.517 282.815 362.111C282.815 362.705 283.297 363.187 283.891 363.187C284.485 363.187 284.967 362.705 284.967 362.111C284.967 361.517 284.485 361.035 283.891 361.035Z" fill="#CCCCCC"/>
<path fill-rule="evenodd" clip-rule="evenodd" d="M285.684 359.242C285.684 358.648 286.165 358.167 286.759 358.167C287.353 358.167 287.835 358.648 287.835 359.242C287.835 359.836 287.353 360.318 286.759 360.318C286.165 360.318 285.684 359.836 285.684 359.242ZM285.683 364.979C285.683 364.385 286.165 363.904 286.759 363.904C287.353 363.904 287.835 364.385 287.835 364.979C287.835 365.574 287.353 366.055 286.759 366.055C286.165 366.055 285.683 365.574 285.683 364.979ZM286.759 361.035C286.165 361.035 285.683 361.517 285.683 362.111C285.683 362.705 286.165 363.187 286.759 363.187C287.353 363.187 287.835 362.705 287.835 362.111C287.835 361.517 287.353 361.035 286.759 361.035Z" fill="#CCCCCC"/>
<path d="M296.687 358.163H300.836C301.602 358.163 302.266 358.294 302.826 358.556C303.387 358.818 303.845 359.177 304.2 359.635C304.555 360.084 304.817 360.612 304.985 361.219C305.162 361.826 305.251 362.476 305.251 363.167C305.251 363.859 305.162 364.508 304.985 365.115C304.817 365.723 304.555 366.255 304.2 366.713C303.845 367.162 303.387 367.517 302.826 367.778C302.266 368.04 301.602 368.171 300.836 368.171H296.687V358.163ZM298.439 366.741H300.163C300.845 366.741 301.401 366.652 301.831 366.475C302.27 366.288 302.611 366.036 302.854 365.718C303.107 365.391 303.275 365.013 303.359 364.583C303.452 364.144 303.499 363.672 303.499 363.167C303.499 362.663 303.452 362.195 303.359 361.766C303.275 361.326 303.107 360.948 302.854 360.63C302.611 360.303 302.27 360.051 301.831 359.873C301.401 359.687 300.845 359.593 300.163 359.593H298.439V366.741ZM311.554 363.91C311.535 363.658 311.479 363.415 311.386 363.181C311.301 362.948 311.18 362.747 311.021 362.579C310.872 362.401 310.685 362.261 310.461 362.158C310.246 362.046 310.003 361.99 309.732 361.99C309.451 361.99 309.194 362.041 308.961 362.144C308.737 362.237 308.54 362.373 308.372 362.55C308.213 362.719 308.082 362.92 307.98 363.153C307.886 363.387 307.835 363.639 307.826 363.91H311.554ZM307.826 364.961C307.826 365.242 307.863 365.513 307.938 365.774C308.022 366.036 308.143 366.265 308.302 366.461C308.461 366.657 308.662 366.816 308.905 366.937C309.148 367.05 309.437 367.106 309.774 367.106C310.241 367.106 310.615 367.008 310.895 366.811C311.185 366.606 311.4 366.302 311.54 365.9H313.053C312.969 366.293 312.825 366.643 312.619 366.952C312.413 367.26 312.166 367.521 311.876 367.736C311.586 367.942 311.259 368.096 310.895 368.199C310.54 368.311 310.166 368.367 309.774 368.367C309.204 368.367 308.699 368.274 308.26 368.087C307.821 367.9 307.447 367.638 307.139 367.302C306.84 366.966 306.611 366.564 306.452 366.097C306.302 365.629 306.228 365.115 306.228 364.555C306.228 364.041 306.307 363.555 306.466 363.097C306.634 362.63 306.868 362.223 307.167 361.878C307.475 361.523 307.844 361.242 308.274 361.037C308.704 360.831 309.19 360.728 309.732 360.728C310.302 360.728 310.811 360.85 311.259 361.093C311.717 361.326 312.096 361.639 312.395 362.032C312.694 362.424 312.909 362.878 313.039 363.391C313.18 363.896 313.217 364.419 313.152 364.961H307.826ZM315.572 365.844C315.618 366.311 315.796 366.638 316.104 366.825C316.413 367.012 316.782 367.106 317.212 367.106C317.361 367.106 317.529 367.096 317.716 367.078C317.912 367.05 318.095 367.003 318.263 366.937C318.431 366.872 318.566 366.779 318.669 366.657C318.781 366.526 318.833 366.358 318.823 366.153C318.814 365.947 318.739 365.779 318.599 365.648C318.459 365.517 318.277 365.414 318.052 365.34C317.838 365.256 317.59 365.185 317.31 365.129C317.029 365.073 316.744 365.013 316.455 364.947C316.156 364.882 315.866 364.802 315.586 364.709C315.315 364.616 315.067 364.489 314.843 364.331C314.628 364.172 314.455 363.971 314.324 363.728C314.193 363.476 314.128 363.167 314.128 362.803C314.128 362.41 314.221 362.083 314.408 361.822C314.605 361.551 314.847 361.336 315.137 361.177C315.436 361.009 315.763 360.892 316.118 360.827C316.483 360.761 316.828 360.728 317.155 360.728C317.529 360.728 317.884 360.77 318.221 360.855C318.566 360.929 318.875 361.055 319.146 361.233C319.426 361.411 319.655 361.644 319.833 361.934C320.019 362.214 320.136 362.555 320.183 362.957H318.515C318.44 362.574 318.263 362.317 317.982 362.186C317.711 362.055 317.398 361.99 317.043 361.99C316.931 361.99 316.796 361.999 316.637 362.018C316.487 362.037 316.343 362.074 316.202 362.13C316.072 362.177 315.959 362.251 315.866 362.354C315.773 362.448 315.726 362.574 315.726 362.733C315.726 362.929 315.791 363.088 315.922 363.209C316.062 363.331 316.24 363.433 316.455 363.518C316.679 363.592 316.931 363.658 317.212 363.714C317.492 363.77 317.782 363.831 318.081 363.896C318.37 363.961 318.655 364.041 318.935 364.134C319.216 364.228 319.463 364.354 319.678 364.513C319.903 364.672 320.08 364.872 320.211 365.115C320.351 365.358 320.421 365.657 320.421 366.012C320.421 366.442 320.323 366.807 320.127 367.106C319.931 367.405 319.674 367.648 319.356 367.835C319.048 368.021 318.702 368.157 318.319 368.241C317.936 368.325 317.557 368.367 317.183 368.367C316.726 368.367 316.3 368.316 315.908 368.213C315.525 368.11 315.189 367.956 314.899 367.75C314.619 367.536 314.394 367.274 314.226 366.966C314.067 366.648 313.983 366.274 313.974 365.844H315.572ZM321.676 358.163H323.274V359.677H321.676V358.163ZM321.676 360.925H323.274V368.171H321.676V360.925ZM331.715 367.792C331.715 368.886 331.406 369.699 330.79 370.231C330.182 370.773 329.304 371.044 328.155 371.044C327.79 371.044 327.421 371.007 327.047 370.932C326.683 370.857 326.347 370.731 326.038 370.554C325.739 370.376 325.487 370.142 325.281 369.853C325.076 369.563 324.954 369.208 324.917 368.788H326.515C326.562 369.012 326.641 369.194 326.753 369.334C326.865 369.474 326.996 369.582 327.146 369.657C327.304 369.741 327.477 369.792 327.664 369.811C327.851 369.839 328.047 369.853 328.253 369.853C328.898 369.853 329.369 369.694 329.668 369.376C329.967 369.059 330.117 368.601 330.117 368.003V366.895H330.089C329.865 367.297 329.556 367.61 329.164 367.835C328.781 368.059 328.365 368.171 327.916 368.171C327.337 368.171 326.842 368.073 326.431 367.877C326.029 367.671 325.693 367.395 325.422 367.05C325.16 366.695 324.968 366.288 324.847 365.83C324.725 365.372 324.665 364.882 324.665 364.359C324.665 363.873 324.74 363.41 324.889 362.971C325.039 362.532 325.253 362.149 325.534 361.822C325.814 361.485 326.155 361.219 326.557 361.023C326.968 360.827 327.431 360.728 327.945 360.728C328.402 360.728 328.823 360.827 329.206 361.023C329.589 361.21 329.883 361.509 330.089 361.92H330.117V360.925H331.715V367.792ZM328.169 366.909C328.524 366.909 328.823 366.839 329.066 366.699C329.318 366.55 329.519 366.358 329.668 366.125C329.827 365.882 329.939 365.611 330.005 365.312C330.08 365.003 330.117 364.695 330.117 364.387C330.117 364.078 330.08 363.779 330.005 363.49C329.93 363.2 329.813 362.943 329.654 362.719C329.505 362.494 329.304 362.317 329.052 362.186C328.809 362.055 328.514 361.99 328.169 361.99C327.814 361.99 327.515 362.065 327.272 362.214C327.029 362.364 326.833 362.56 326.683 362.803C326.534 363.036 326.426 363.307 326.361 363.616C326.295 363.915 326.263 364.214 326.263 364.513C326.263 364.812 326.3 365.106 326.375 365.396C326.449 365.676 326.562 365.928 326.711 366.153C326.87 366.377 327.066 366.559 327.3 366.699C327.543 366.839 327.832 366.909 328.169 366.909ZM333.323 360.925H334.837V361.99L334.865 362.018C335.108 361.616 335.426 361.303 335.818 361.079C336.211 360.845 336.645 360.728 337.122 360.728C337.916 360.728 338.542 360.934 339 361.345C339.458 361.756 339.687 362.373 339.687 363.195V368.171H338.089V363.616C338.07 363.046 337.949 362.635 337.724 362.382C337.5 362.121 337.15 361.99 336.673 361.99C336.402 361.99 336.159 362.041 335.944 362.144C335.73 362.237 335.547 362.373 335.398 362.55C335.248 362.719 335.132 362.92 335.047 363.153C334.963 363.387 334.921 363.634 334.921 363.896V368.171H333.323V360.925Z" fill="#303030"/>
<path opacity="0.133315" fill-rule="evenodd" clip-rule="evenodd" d="M24.9238 246.395C24.9238 246.395 24.9238 246.395 24.9238 246.395C24.9238 245.206 25.8871 244.243 27.0753 244.243C27.0753 244.243 27.0753 244.243 27.0753 244.243H92.3357C92.3357 244.243 92.3357 244.243 92.3357 244.243C93.5239 244.243 94.4871 245.206 94.4871 246.395C94.4871 246.395 94.4871 246.395 94.4871 246.395V246.395C94.4871 246.395 94.4871 246.395 94.4871 246.395C94.4871 247.583 93.5239 248.546 92.3357 248.546C92.3357 248.546 92.3357 248.546 92.3357 248.546H27.0753C27.0753 248.546 27.0753 248.546 27.0753 248.546C25.8871 248.546 24.9238 247.583 24.9238 246.395C24.9238 246.395 24.9238 246.395 24.9238 246.395V246.395Z" fill="#575FCF"/>
<rect x="24.9238" y="244.243" width="30.1202" height="4.30288" rx="2.15144" fill="#575FCF"/>
<path d="M25.081 220.698H30.4032C31.2593 220.698 31.9576 220.822 32.4983 221.07C33.039 221.318 33.4558 221.627 33.7486 221.999C34.0415 222.371 34.2386 222.776 34.34 223.216C34.4526 223.655 34.5089 224.061 34.5089 224.432C34.5089 224.804 34.4526 225.209 34.34 225.649C34.2386 226.077 34.0415 226.477 33.7486 226.848C33.4558 227.22 33.039 227.53 32.4983 227.778C31.9576 228.014 31.2593 228.132 30.4032 228.132H27.193V232.762H25.081V220.698ZM27.193 226.409H30.2849C30.5215 226.409 30.7637 226.375 31.0115 226.308C31.2593 226.24 31.4846 226.133 31.6873 225.987C31.9013 225.829 32.0703 225.626 32.1942 225.378C32.3294 225.119 32.3969 224.798 32.3969 224.415C32.3969 224.021 32.3406 223.694 32.228 223.435C32.1153 223.176 31.9633 222.974 31.7718 222.827C31.5803 222.669 31.3607 222.562 31.1128 222.506C30.865 222.45 30.6003 222.422 30.3187 222.422H27.193V226.409ZM36.0801 224.027H37.888V225.716H37.9218C37.9781 225.48 38.0851 225.249 38.2428 225.024C38.4118 224.798 38.6089 224.596 38.8342 224.415C39.0707 224.224 39.3298 224.072 39.6114 223.959C39.893 223.847 40.1802 223.79 40.4731 223.79C40.6984 223.79 40.8504 223.796 40.9293 223.807C41.0194 223.818 41.1095 223.83 41.1996 223.841V225.699C41.0645 225.677 40.9237 225.66 40.7772 225.649C40.6421 225.626 40.5069 225.615 40.3717 225.615C40.0451 225.615 39.7353 225.683 39.4424 225.818C39.1608 225.942 38.913 226.133 38.699 226.392C38.485 226.64 38.316 226.95 38.1921 227.321C38.0682 227.693 38.0063 228.121 38.0063 228.606V232.762H36.0801V224.027ZM45.7275 232.999C45.0291 232.999 44.404 232.886 43.852 232.661C43.3114 232.424 42.8495 232.103 42.4666 231.698C42.0948 231.292 41.8076 230.808 41.6049 230.244C41.4134 229.681 41.3176 229.062 41.3176 228.386C41.3176 227.721 41.4134 227.107 41.6049 226.544C41.8076 225.981 42.0948 225.497 42.4666 225.091C42.8495 224.686 43.3114 224.37 43.852 224.145C44.404 223.908 45.0291 223.79 45.7275 223.79C46.4259 223.79 47.0454 223.908 47.586 224.145C48.138 224.37 48.5998 224.686 48.9715 225.091C49.3545 225.497 49.6417 225.981 49.8332 226.544C50.036 227.107 50.1373 227.721 50.1373 228.386C50.1373 229.062 50.036 229.681 49.8332 230.244C49.6417 230.808 49.3545 231.292 48.9715 231.698C48.5998 232.103 48.138 232.424 47.586 232.661C47.0454 232.886 46.4259 232.999 45.7275 232.999ZM45.7275 231.478C46.1555 231.478 46.5272 231.388 46.8426 231.208C47.158 231.027 47.4171 230.791 47.6198 230.498C47.8226 230.205 47.969 229.878 48.0591 229.518C48.1605 229.146 48.2112 228.769 48.2112 228.386C48.2112 228.014 48.1605 227.642 48.0591 227.271C47.969 226.899 47.8226 226.572 47.6198 226.291C47.4171 225.998 47.158 225.761 46.8426 225.581C46.5272 225.401 46.1555 225.311 45.7275 225.311C45.2995 225.311 44.9277 225.401 44.6124 225.581C44.297 225.761 44.0379 225.998 43.8351 226.291C43.6324 226.572 43.4803 226.899 43.3789 227.271C43.2888 227.642 43.2438 228.014 43.2438 228.386C43.2438 228.769 43.2888 229.146 43.3789 229.518C43.4803 229.878 43.6324 230.205 43.8351 230.498C44.0379 230.791 44.297 231.027 44.6124 231.208C44.9277 231.388 45.2995 231.478 45.7275 231.478ZM59.967 232.762H58.1422V231.579H58.1084C57.8494 232.086 57.472 232.452 56.9764 232.677C56.4808 232.891 55.957 232.999 55.4051 232.999C54.718 232.999 54.1153 232.88 53.5972 232.644C53.0903 232.396 52.6679 232.064 52.33 231.647C51.9921 231.23 51.7386 230.74 51.5697 230.177C51.4007 229.602 51.3162 228.989 51.3162 228.335C51.3162 227.547 51.4232 226.865 51.6373 226.291C51.8513 225.716 52.1329 225.243 52.4821 224.872C52.8425 224.5 53.248 224.229 53.6986 224.061C54.1604 223.88 54.6279 223.79 55.1009 223.79C55.3713 223.79 55.6472 223.818 55.9288 223.875C56.2104 223.92 56.4808 223.999 56.7399 224.111C56.9989 224.224 57.2355 224.37 57.4495 224.551C57.6748 224.719 57.8606 224.922 58.0071 225.159H58.0408V220.698H59.967V232.762ZM53.2424 228.487C53.2424 228.859 53.2874 229.225 53.3775 229.586C53.4789 229.946 53.6254 230.267 53.8168 230.549C54.0196 230.83 54.273 231.055 54.5772 231.224C54.8813 231.393 55.2417 231.478 55.6585 231.478C56.0865 231.478 56.4526 231.388 56.7567 231.208C57.0721 231.027 57.3256 230.791 57.5171 230.498C57.7198 230.205 57.8663 229.878 57.9564 229.518C58.0577 229.146 58.1084 228.769 58.1084 228.386C58.1084 227.417 57.8888 226.663 57.4495 226.122C57.0215 225.581 56.4357 225.311 55.6923 225.311C55.2417 225.311 54.8588 225.407 54.5434 225.598C54.2392 225.778 53.9858 226.02 53.7831 226.325C53.5916 226.617 53.4508 226.955 53.3607 227.338C53.2818 227.71 53.2424 228.093 53.2424 228.487ZM69.7384 232.762H67.8461V231.545H67.8123C67.5757 231.985 67.2209 232.34 66.7478 232.61C66.286 232.869 65.8129 232.999 65.3286 232.999C64.1796 232.999 63.3461 232.717 62.828 232.154C62.3211 231.579 62.0676 230.718 62.0676 229.569V224.027H63.9938V229.383C63.9938 230.149 64.1402 230.689 64.4331 231.005C64.7259 231.32 65.1371 231.478 65.6665 231.478C66.072 231.478 66.4099 231.416 66.6802 231.292C66.9506 231.168 67.1702 231.005 67.3392 230.802C67.5081 230.588 67.6264 230.335 67.694 230.042C67.7729 229.749 67.8123 229.433 67.8123 229.096V224.027H69.7384V232.762ZM77.6663 226.95C77.5875 226.409 77.3678 226.004 77.0074 225.733C76.6582 225.452 76.2133 225.311 75.6726 225.311C75.4248 225.311 75.1601 225.356 74.8785 225.446C74.5969 225.525 74.3378 225.683 74.1013 225.919C73.8647 226.144 73.6676 226.465 73.5099 226.882C73.3522 227.288 73.2734 227.823 73.2734 228.487C73.2734 228.848 73.3128 229.208 73.3917 229.569C73.4818 229.929 73.6169 230.25 73.7972 230.532C73.9886 230.813 74.2308 231.044 74.5237 231.224C74.8165 231.393 75.1714 231.478 75.5881 231.478C76.1513 231.478 76.6132 231.303 76.9736 230.954C77.3453 230.605 77.5762 230.115 77.6663 229.484H79.5925C79.4123 230.622 78.9786 231.495 78.2915 232.103C77.6157 232.7 76.7145 232.999 75.5881 232.999C74.901 232.999 74.2928 232.886 73.7634 232.661C73.2452 232.424 72.8059 232.109 72.4455 231.714C72.085 231.309 71.8091 230.83 71.6176 230.278C71.4373 229.726 71.3472 229.129 71.3472 228.487C71.3472 227.834 71.4373 227.22 71.6176 226.646C71.7978 226.071 72.0681 225.576 72.4286 225.159C72.789 224.731 73.234 224.398 73.7634 224.162C74.304 223.914 74.9348 223.79 75.6557 223.79C76.1626 223.79 76.6413 223.858 77.0919 223.993C77.5537 224.117 77.9592 224.308 78.3084 224.567C78.6688 224.826 78.9617 225.153 79.187 225.547C79.4123 225.942 79.5474 226.409 79.5925 226.95H77.6663ZM80.2795 224.027H81.7326V221.408H83.6587V224.027H85.399V225.463H83.6587V230.126C83.6587 230.329 83.6644 230.504 83.6756 230.65C83.6982 230.796 83.7376 230.92 83.7939 231.022C83.8615 231.123 83.9572 231.202 84.0811 231.258C84.205 231.303 84.374 231.326 84.588 231.326C84.7232 231.326 84.8584 231.326 84.9935 231.326C85.1287 231.315 85.2639 231.292 85.399 231.258V232.745C85.185 232.768 84.9766 232.79 84.7739 232.813C84.5711 232.835 84.3627 232.846 84.1487 232.846C83.6418 232.846 83.2307 232.801 82.9153 232.711C82.6112 232.61 82.369 232.469 82.1888 232.289C82.0198 232.097 81.9016 231.861 81.834 231.579C81.7777 231.298 81.7439 230.977 81.7326 230.616V225.463H80.2795V224.027ZM93.1429 228.741C93.1429 229.203 93.2218 229.597 93.3795 229.923C93.5372 230.25 93.7568 230.52 94.0384 230.734C94.32 230.937 94.6411 231.089 95.0015 231.191C95.3732 231.281 95.7731 231.326 96.2011 231.326C96.6629 231.326 97.0572 231.275 97.3838 231.174C97.7105 231.061 97.9752 230.92 98.1779 230.751C98.3807 230.582 98.5271 230.391 98.6172 230.177C98.7074 229.952 98.7524 229.726 98.7524 229.501C98.7524 229.039 98.6454 228.701 98.4314 228.487C98.2286 228.262 98.0034 228.104 97.7555 228.014C97.3275 227.856 96.8263 227.71 96.2518 227.575C95.6886 227.428 94.9902 227.243 94.1567 227.017C93.6386 226.882 93.2049 226.708 92.8557 226.494C92.5178 226.268 92.2475 226.02 92.0447 225.75C91.8419 225.48 91.6955 225.193 91.6054 224.888C91.5266 224.584 91.4871 224.275 91.4871 223.959C91.4871 223.351 91.611 222.827 91.8588 222.388C92.1179 221.937 92.4558 221.566 92.8726 221.273C93.2894 220.98 93.7625 220.766 94.2919 220.631C94.8213 220.484 95.3563 220.411 95.897 220.411C96.5278 220.411 97.1191 220.495 97.6711 220.664C98.2343 220.822 98.7243 221.064 99.141 221.391C99.5691 221.718 99.907 222.123 100.155 222.607C100.403 223.081 100.526 223.632 100.526 224.263H98.4145C98.3582 223.486 98.0935 222.94 97.6204 222.624C97.1473 222.298 96.5447 222.134 95.8125 222.134C95.5647 222.134 95.3113 222.163 95.0522 222.219C94.7931 222.264 94.5566 222.348 94.3426 222.472C94.1285 222.585 93.9483 222.743 93.8019 222.945C93.6667 223.148 93.5991 223.402 93.5991 223.706C93.5991 224.134 93.7287 224.472 93.9877 224.719C94.2581 224.956 94.6073 225.136 95.0353 225.26C95.0803 225.271 95.2549 225.322 95.5591 225.412C95.8745 225.491 96.2236 225.581 96.6066 225.683C96.9896 225.784 97.3613 225.885 97.7218 225.987C98.0935 226.077 98.3582 226.144 98.5159 226.189C98.9101 226.313 99.2537 226.482 99.5465 226.696C99.8394 226.91 100.082 227.158 100.273 227.44C100.476 227.71 100.622 228.003 100.712 228.318C100.814 228.634 100.864 228.949 100.864 229.264C100.864 229.94 100.724 230.52 100.442 231.005C100.172 231.478 99.8112 231.866 99.3607 232.171C98.9101 232.475 98.3976 232.694 97.8231 232.83C97.2487 232.976 96.6629 233.049 96.0659 233.049C95.3788 233.049 94.7312 232.965 94.1229 232.796C93.5147 232.627 92.9852 232.368 92.5347 232.019C92.0841 231.669 91.7237 231.224 91.4533 230.684C91.183 230.132 91.0422 229.484 91.0309 228.741H93.1429ZM102.494 224.027H104.319V225.209H104.352C104.623 224.703 105 224.342 105.484 224.128C105.969 223.903 106.493 223.79 107.056 223.79C107.743 223.79 108.34 223.914 108.847 224.162C109.365 224.398 109.793 224.731 110.131 225.159C110.469 225.576 110.722 226.066 110.891 226.629C111.06 227.192 111.145 227.795 111.145 228.437C111.145 229.022 111.066 229.591 110.908 230.143C110.762 230.695 110.531 231.185 110.215 231.613C109.911 232.03 109.523 232.368 109.049 232.627C108.576 232.875 108.019 232.999 107.377 232.999C107.095 232.999 106.814 232.97 106.532 232.914C106.25 232.869 105.98 232.79 105.721 232.677C105.462 232.565 105.22 232.424 104.994 232.255C104.78 232.075 104.6 231.866 104.454 231.63H104.42V235.989H102.494V224.027ZM109.218 228.403C109.218 228.009 109.168 227.626 109.066 227.254C108.965 226.882 108.813 226.555 108.61 226.274C108.407 225.981 108.154 225.75 107.85 225.581C107.546 225.401 107.197 225.311 106.802 225.311C105.991 225.311 105.377 225.592 104.961 226.156C104.555 226.719 104.352 227.468 104.352 228.403C104.352 228.842 104.403 229.253 104.504 229.636C104.617 230.008 104.78 230.329 104.994 230.599C105.208 230.87 105.462 231.084 105.755 231.241C106.059 231.399 106.408 231.478 106.802 231.478C107.242 231.478 107.613 231.388 107.917 231.208C108.222 231.027 108.469 230.796 108.661 230.515C108.864 230.222 109.004 229.895 109.083 229.535C109.173 229.163 109.218 228.786 109.218 228.403ZM118.77 227.626C118.748 227.321 118.68 227.029 118.567 226.747C118.466 226.465 118.32 226.223 118.128 226.02C117.948 225.806 117.723 225.637 117.452 225.514C117.193 225.378 116.9 225.311 116.574 225.311C116.236 225.311 115.926 225.373 115.644 225.497C115.374 225.609 115.138 225.773 114.935 225.987C114.743 226.189 114.586 226.432 114.462 226.713C114.349 226.995 114.287 227.299 114.276 227.626H118.77ZM114.276 228.893C114.276 229.231 114.321 229.557 114.411 229.873C114.512 230.188 114.659 230.464 114.85 230.701C115.042 230.937 115.284 231.129 115.577 231.275C115.87 231.41 116.219 231.478 116.624 231.478C117.188 231.478 117.638 231.36 117.976 231.123C118.325 230.875 118.584 230.509 118.753 230.025H120.578C120.477 230.498 120.302 230.92 120.054 231.292C119.807 231.664 119.508 231.979 119.159 232.238C118.81 232.486 118.415 232.672 117.976 232.796C117.548 232.931 117.098 232.999 116.624 232.999C115.937 232.999 115.329 232.886 114.8 232.661C114.27 232.435 113.82 232.12 113.448 231.714C113.088 231.309 112.812 230.825 112.62 230.261C112.44 229.698 112.35 229.079 112.35 228.403C112.35 227.783 112.445 227.198 112.637 226.646C112.84 226.082 113.121 225.592 113.482 225.176C113.853 224.748 114.298 224.41 114.817 224.162C115.335 223.914 115.92 223.79 116.574 223.79C117.261 223.79 117.875 223.937 118.415 224.229C118.967 224.511 119.424 224.888 119.784 225.362C120.144 225.835 120.403 226.381 120.561 227C120.73 227.609 120.775 228.239 120.696 228.893H114.276ZM128.057 226.95C127.978 226.409 127.759 226.004 127.398 225.733C127.049 225.452 126.604 225.311 126.064 225.311C125.816 225.311 125.551 225.356 125.269 225.446C124.988 225.525 124.729 225.683 124.492 225.919C124.256 226.144 124.059 226.465 123.901 226.882C123.743 227.288 123.664 227.823 123.664 228.487C123.664 228.848 123.704 229.208 123.783 229.569C123.873 229.929 124.008 230.25 124.188 230.532C124.38 230.813 124.622 231.044 124.915 231.224C125.208 231.393 125.562 231.478 125.979 231.478C126.542 231.478 127.004 231.303 127.365 230.954C127.736 230.605 127.967 230.115 128.057 229.484H129.983C129.803 230.622 129.37 231.495 128.682 232.103C128.007 232.7 127.106 232.999 125.979 232.999C125.292 232.999 124.684 232.886 124.154 232.661C123.636 232.424 123.197 232.109 122.836 231.714C122.476 231.309 122.2 230.83 122.009 230.278C121.828 229.726 121.738 229.129 121.738 228.487C121.738 227.834 121.828 227.22 122.009 226.646C122.189 226.071 122.459 225.576 122.82 225.159C123.18 224.731 123.625 224.398 124.154 224.162C124.695 223.914 125.326 223.79 126.047 223.79C126.554 223.79 127.032 223.858 127.483 223.993C127.945 224.117 128.35 224.308 128.699 224.567C129.06 224.826 129.353 225.153 129.578 225.547C129.803 225.942 129.938 226.409 129.983 226.95H128.057Z" fill="#303030"/>
<path d="M253.898 235.398H269.359" stroke="#575FCF" stroke-width="1.53674" stroke-linecap="square" stroke-linejoin="round"/>
<path d="M235.458 235.398H254.6" stroke="#575FCF" stroke-width="1.53674" stroke-linecap="square" stroke-linejoin="round"/>
<path d="M269.552 77.6956L257.74 77.6956C255.618 77.6956 253.898 79.4156 253.898 81.5374V231.914" stroke="#575FCF" stroke-width="1.53674"/>
<path d="M269.552 362.793L257.74 362.793C255.618 362.793 253.898 361.073 253.898 358.951V222.662" stroke="#575FCF" stroke-width="1.53674"/>
<path fill-rule="evenodd" clip-rule="evenodd" d="M253.131 243.408C257.799 243.408 261.583 239.624 261.583 234.956C261.583 230.288 257.799 226.504 253.131 226.504C248.463 226.504 244.679 230.288 244.679 234.956C244.679 239.624 248.463 243.408 253.131 243.408Z" fill="#575FCF"/>
<path d="M257.356 235.559H253.734H252.527H248.904V234.352H252.527H253.734H257.356V235.559Z" fill="white"/>
<defs>
<filter id="filter0_d" x="0.865633" y="199.327" width="236.727" height="73.1661" filterUnits="userSpaceOnUse" color-interpolation-filters="sRGB">
<feFlood flood-opacity="0" result="BackgroundImageFix"/>
<feColorMatrix in="SourceAlpha" type="matrix" values="0 0 0 0 0 0 0 0 0 0 0 0 0 0 0 0 0 0 127 0"/>
<feOffset dy="1.06718"/>
<feGaussianBlur stdDeviation="1.06718"/>
<feColorMatrix type="matrix" values="0 0 0 0 0 0 0 0 0 0 0 0 0 0 0 0 0 0 0.0796547 0"/>
<feBlend mode="normal" in2="BackgroundImageFix" result="effect1_dropShadow"/>
<feBlend mode="normal" in="SourceGraphic" in2="effect1_dropShadow" result="shape"/>
</filter>
<filter id="filter1_d" x="267.875" y="53.4387" width="122.752" height="47.5537" filterUnits="userSpaceOnUse" color-interpolation-filters="sRGB">
<feFlood flood-opacity="0" result="BackgroundImageFix"/>
<feColorMatrix in="SourceAlpha" type="matrix" values="0 0 0 0 0 0 0 0 0 0 0 0 0 0 0 0 0 0 127 0"/>
<feOffset dy="1.06718"/>
<feGaussianBlur stdDeviation="1.06718"/>
<feColorMatrix type="matrix" values="0 0 0 0 0 0 0 0 0 0 0 0 0 0 0 0 0 0 0.0796547 0"/>
<feBlend mode="normal" in2="BackgroundImageFix" result="effect1_dropShadow"/>
<feBlend mode="normal" in="SourceGraphic" in2="effect1_dropShadow" result="shape"/>
</filter>
<filter id="filter2_d" x="420.269" y="0.933305" width="216.237" height="47.5537" filterUnits="userSpaceOnUse" color-interpolation-filters="sRGB">
<feFlood flood-opacity="0" result="BackgroundImageFix"/>
<feColorMatrix in="SourceAlpha" type="matrix" values="0 0 0 0 0 0 0 0 0 0 0 0 0 0 0 0 0 0 127 0"/>
<feOffset dy="1.06718"/>
<feGaussianBlur stdDeviation="1.06718"/>
<feColorMatrix type="matrix" values="0 0 0 0 0 0 0 0 0 0 0 0 0 0 0 0 0 0 0.0796547 0"/>
<feBlend mode="normal" in2="BackgroundImageFix" result="effect1_dropShadow"/>
<feBlend mode="normal" in="SourceGraphic" in2="effect1_dropShadow" result="shape"/>
</filter>
<filter id="filter3_d" x="420.269" y="53.4387" width="190.625" height="47.5537" filterUnits="userSpaceOnUse" color-interpolation-filters="sRGB">
<feFlood flood-opacity="0" result="BackgroundImageFix"/>
<feColorMatrix in="SourceAlpha" type="matrix" values="0 0 0 0 0 0 0 0 0 0 0 0 0 0 0 0 0 0 127 0"/>
<feOffset dy="1.06718"/>
<feGaussianBlur stdDeviation="1.06718"/>
<feColorMatrix type="matrix" values="0 0 0 0 0 0 0 0 0 0 0 0 0 0 0 0 0 0 0.0796547 0"/>
<feBlend mode="normal" in2="BackgroundImageFix" result="effect1_dropShadow"/>
<feBlend mode="normal" in="SourceGraphic" in2="effect1_dropShadow" result="shape"/>
</filter>
<filter id="filter4_d" x="420.269" y="108.505" width="190.625" height="47.5537" filterUnits="userSpaceOnUse" color-interpolation-filters="sRGB">
<feFlood flood-opacity="0" result="BackgroundImageFix"/>
<feColorMatrix in="SourceAlpha" type="matrix" values="0 0 0 0 0 0 0 0 0 0 0 0 0 0 0 0 0 0 127 0"/>
<feOffset dy="1.06718"/>
<feGaussianBlur stdDeviation="1.06718"/>
<feColorMatrix type="matrix" values="0 0 0 0 0 0 0 0 0 0 0 0 0 0 0 0 0 0 0.0796547 0"/>
<feBlend mode="normal" in2="BackgroundImageFix" result="effect1_dropShadow"/>
<feBlend mode="normal" in="SourceGraphic" in2="effect1_dropShadow" result="shape"/>
</filter>
<filter id="filter5_d" x="429.234" y="176.378" width="190.625" height="65.4824" filterUnits="userSpaceOnUse" color-interpolation-filters="sRGB">
<feFlood flood-opacity="0" result="BackgroundImageFix"/>
<feColorMatrix in="SourceAlpha" type="matrix" values="0 0 0 0 0 0 0 0 0 0 0 0 0 0 0 0 0 0 127 0"/>
<feOffset dy="1.06718"/>
<feGaussianBlur stdDeviation="1.06718"/>
<feColorMatrix type="matrix" values="0 0 0 0 0 0 0 0 0 0 0 0 0 0 0 0 0 0 0.0796547 0"/>
<feBlend mode="normal" in2="BackgroundImageFix" result="effect1_dropShadow"/>
<feBlend mode="normal" in="SourceGraphic" in2="effect1_dropShadow" result="shape"/>
</filter>
<filter id="filter6_d" x="429.234" y="248.093" width="216.237" height="47.5537" filterUnits="userSpaceOnUse" color-interpolation-filters="sRGB">
<feFlood flood-opacity="0" result="BackgroundImageFix"/>
<feColorMatrix in="SourceAlpha" type="matrix" values="0 0 0 0 0 0 0 0 0 0 0 0 0 0 0 0 0 0 127 0"/>
<feOffset dy="1.06718"/>
<feGaussianBlur stdDeviation="1.06718"/>
<feColorMatrix type="matrix" values="0 0 0 0 0 0 0 0 0 0 0 0 0 0 0 0 0 0 0.0796547 0"/>
<feBlend mode="normal" in2="BackgroundImageFix" result="effect1_dropShadow"/>
<feBlend mode="normal" in="SourceGraphic" in2="effect1_dropShadow" result="shape"/>
</filter>
<filter id="filter7_d" x="392.095" y="317.247" width="216.237" height="47.5537" filterUnits="userSpaceOnUse" color-interpolation-filters="sRGB">
<feFlood flood-opacity="0" result="BackgroundImageFix"/>
<feColorMatrix in="SourceAlpha" type="matrix" values="0 0 0 0 0 0 0 0 0 0 0 0 0 0 0 0 0 0 127 0"/>
<feOffset dy="1.06718"/>
<feGaussianBlur stdDeviation="1.06718"/>
<feColorMatrix type="matrix" values="0 0 0 0 0 0 0 0 0 0 0 0 0 0 0 0 0 0 0.0796547 0"/>
<feBlend mode="normal" in2="BackgroundImageFix" result="effect1_dropShadow"/>
<feBlend mode="normal" in="SourceGraphic" in2="effect1_dropShadow" result="shape"/>
</filter>
<filter id="filter8_d" x="392.095" y="369.752" width="216.237" height="47.5537" filterUnits="userSpaceOnUse" color-interpolation-filters="sRGB">
<feFlood flood-opacity="0" result="BackgroundImageFix"/>
<feColorMatrix in="SourceAlpha" type="matrix" values="0 0 0 0 0 0 0 0 0 0 0 0 0 0 0 0 0 0 127 0"/>
<feOffset dy="1.06718"/>
<feGaussianBlur stdDeviation="1.06718"/>
<feColorMatrix type="matrix" values="0 0 0 0 0 0 0 0 0 0 0 0 0 0 0 0 0 0 0.0796547 0"/>
<feBlend mode="normal" in2="BackgroundImageFix" result="effect1_dropShadow"/>
<feBlend mode="normal" in="SourceGraphic" in2="effect1_dropShadow" result="shape"/>
</filter>
<filter id="filter9_d" x="267.875" y="212.236" width="130.435" height="47.5537" filterUnits="userSpaceOnUse" color-interpolation-filters="sRGB">
<feFlood flood-opacity="0" result="BackgroundImageFix"/>
<feColorMatrix in="SourceAlpha" type="matrix" values="0 0 0 0 0 0 0 0 0 0 0 0 0 0 0 0 0 0 127 0"/>
<feOffset dy="1.06718"/>
<feGaussianBlur stdDeviation="1.06718"/>
<feColorMatrix type="matrix" values="0 0 0 0 0 0 0 0 0 0 0 0 0 0 0 0 0 0 0.0796547 0"/>
<feBlend mode="normal" in2="BackgroundImageFix" result="effect1_dropShadow"/>
<feBlend mode="normal" in="SourceGraphic" in2="effect1_dropShadow" result="shape"/>
</filter>
<filter id="filter10_d" x="267.875" y="340.298" width="94.5781" height="47.5537" filterUnits="userSpaceOnUse" color-interpolation-filters="sRGB">
<feFlood flood-opacity="0" result="BackgroundImageFix"/>
<feColorMatrix in="SourceAlpha" type="matrix" values="0 0 0 0 0 0 0 0 0 0 0 0 0 0 0 0 0 0 127 0"/>
<feOffset dy="1.06718"/>
<feGaussianBlur stdDeviation="1.06718"/>
<feColorMatrix type="matrix" values="0 0 0 0 0 0 0 0 0 0 0 0 0 0 0 0 0 0 0.0796547 0"/>
<feBlend mode="normal" in2="BackgroundImageFix" result="effect1_dropShadow"/>
<feBlend mode="normal" in="SourceGraphic" in2="effect1_dropShadow" result="shape"/>
</filter>
<clipPath id="clip0">
<rect x="397.457" y="177.446" width="246.519" height="115.256" fill="white"/>
</clipPath>
</defs>
</svg>
