<svg width="693" height="216" viewBox="0 0 693 216" fill="none" xmlns="http://www.w3.org/2000/svg">
<g filter="url(#filter0_d)">
<rect x="3" y="2.00049" width="225.408" height="210.787" rx="4.77414" fill="white"/>
<rect x="3.29838" y="2.29887" width="224.811" height="210.19" rx="4.47576" stroke="#F1F1F1" stroke-width="0.596768"/>
</g>
<g filter="url(#filter1_d)">
<rect x="234.162" y="3.9187" width="225.408" height="160.701" rx="4.77414" fill="white"/>
<rect x="234.46" y="4.21709" width="224.811" height="160.104" rx="4.47576" stroke="#F1F1F1" stroke-width="0.596768"/>
</g>
<g filter="url(#filter2_d)">
<rect x="465.452" y="4.02515" width="225.408" height="145.782" rx="4.77414" fill="white"/>
<rect x="465.751" y="4.32353" width="224.811" height="145.185" rx="4.47576" stroke="#F1F1F1" stroke-width="0.596768"/>
</g>
<rect x="109.565" y="174.637" width="16.7095" height="16.7095" rx="8.35475" fill="#575FCF"/>
<rect x="340.728" y="126.469" width="16.7095" height="16.7095" rx="8.35475" fill="#575FCF"/>
<rect x="572.018" y="110.591" width="16.7095" height="16.7095" rx="8.35475" fill="#575FCF"/>
<path d="M118.349 183.121L118.349 185.839C118.349 186.074 118.159 186.265 117.924 186.265C117.689 186.265 117.498 186.074 117.498 185.839L117.499 183.121L114.781 183.122C114.546 183.122 114.355 182.931 114.355 182.696C114.355 182.461 114.546 182.271 114.781 182.271L117.499 182.271L117.498 179.553C117.498 179.318 117.689 179.128 117.924 179.128C118.159 179.128 118.349 179.318 118.349 179.553L118.349 182.271L121.067 182.271C121.302 182.271 121.492 182.461 121.492 182.696C121.492 182.931 121.302 183.122 121.067 183.122L118.349 183.121Z" fill="white"/>
<path d="M349.511 134.954L349.511 137.672C349.511 137.907 349.321 138.097 349.086 138.097C348.851 138.097 348.66 137.907 348.66 137.672L348.661 134.954L345.943 134.954C345.708 134.954 345.518 134.764 345.518 134.529C345.518 134.294 345.708 134.103 345.943 134.103L348.661 134.104L348.66 131.386C348.66 131.151 348.851 130.96 349.086 130.96C349.321 130.96 349.511 131.151 349.511 131.386L349.511 134.104L352.229 134.103C352.464 134.103 352.654 134.294 352.654 134.529C352.654 134.764 352.464 134.954 352.229 134.954L349.511 134.954Z" fill="white"/>
<path d="M580.801 119.076L580.801 121.793C580.801 122.028 580.611 122.219 580.376 122.219C580.141 122.219 579.951 122.028 579.951 121.793L579.951 119.076L577.233 119.076C576.998 119.076 576.808 118.885 576.808 118.65C576.808 118.415 576.998 118.225 577.233 118.225L579.951 118.225L579.951 115.507C579.951 115.272 580.141 115.082 580.376 115.082C580.611 115.082 580.801 115.272 580.801 115.507L580.801 118.225L583.519 118.225C583.754 118.225 583.944 118.415 583.944 118.65C583.944 118.885 583.754 119.076 583.519 119.076L580.801 119.076Z" fill="white"/>
<rect x="35.2681" y="91.7288" width="12.5321" height="12.5321" rx="4.47576" fill="white" fill-opacity="0.0606884" stroke="#CCCCCC" stroke-width="0.596768"/>
<rect x="266.43" y="51.0208" width="12.5321" height="12.5321" rx="4.47576" fill="white" fill-opacity="0.0606884" stroke="#CCCCCC" stroke-width="0.596768"/>
<rect x="497.72" y="51.1272" width="12.5321" height="12.5321" rx="4.47576" fill="white" fill-opacity="0.0606884" stroke="#CCCCCC" stroke-width="0.596768"/>
<path d="M43.6232 96.2046L41.1803 99.615C41.0774 99.724 40.9379 99.7852 40.7923 99.7852C40.6468 99.7852 40.5073 99.724 40.4044 99.615L39.1475 98.2812" stroke="#CCCCCC" stroke-width="1.19354" stroke-linecap="round" stroke-linejoin="round"/>
<path d="M43.6232 120.075L41.1803 123.486C41.0774 123.595 40.9379 123.656 40.7923 123.656C40.6468 123.656 40.5073 123.595 40.4044 123.486L39.1475 122.152" stroke="#CCCCCC" stroke-width="1.19354" stroke-linecap="round" stroke-linejoin="round"/>
<rect x="35.2681" y="115.514" width="12.5321" height="12.5321" rx="4.47576" fill="white" fill-opacity="0.0606884" stroke="#CCCCCC" stroke-width="0.596768"/>
<rect x="53.1289" y="92.3682" width="135.552" height="11.0828" rx="5.54141" fill="#FF7C85"/>
<rect x="284.291" y="51.6602" width="135.552" height="11.0828" rx="5.54141" fill="#FFDD59"/>
<rect x="515.581" y="51.7666" width="135.552" height="11.0828" rx="5.54141" fill="#EDACC8"/>
<path d="M303.996 72.6637V77.9893H304.794V72.6637H306.794V71.9917H301.997V72.6637H303.996ZM306.927 75.8221C306.927 75.5589 306.961 75.3265 307.028 75.1249C307.101 74.9177 307.199 74.7441 307.322 74.6041C307.445 74.4641 307.588 74.3577 307.75 74.2849C307.918 74.2121 308.095 74.1757 308.28 74.1757C308.464 74.1757 308.638 74.2121 308.8 74.2849C308.968 74.3577 309.114 74.4641 309.237 74.6041C309.36 74.7441 309.456 74.9177 309.523 75.1249C309.596 75.3265 309.632 75.5589 309.632 75.8221C309.632 76.0853 309.596 76.3205 309.523 76.5277C309.456 76.7293 309.36 76.9001 309.237 77.0401C309.114 77.1745 308.968 77.2781 308.8 77.3509C308.638 77.4237 308.464 77.4601 308.28 77.4601C308.095 77.4601 307.918 77.4237 307.75 77.3509C307.588 77.2781 307.445 77.1745 307.322 77.0401C307.199 76.9001 307.101 76.7293 307.028 76.5277C306.961 76.3205 306.927 76.0853 306.927 75.8221ZM306.171 75.8221C306.171 76.1413 306.216 76.4381 306.306 76.7125C306.395 76.9869 306.53 77.2277 306.709 77.4349C306.888 77.6365 307.109 77.7961 307.372 77.9137C307.636 78.0257 307.938 78.0817 308.28 78.0817C308.627 78.0817 308.929 78.0257 309.187 77.9137C309.45 77.7961 309.671 77.6365 309.85 77.4349C310.03 77.2277 310.164 76.9869 310.254 76.7125C310.343 76.4381 310.388 76.1413 310.388 75.8221C310.388 75.5029 310.343 75.2061 310.254 74.9317C310.164 74.6517 310.03 74.4109 309.85 74.2093C309.671 74.0021 309.45 73.8397 309.187 73.7221C308.929 73.6045 308.627 73.5457 308.28 73.5457C307.938 73.5457 307.636 73.6045 307.372 73.7221C307.109 73.8397 306.888 74.0021 306.709 74.2093C306.53 74.4109 306.395 74.6517 306.306 74.9317C306.216 75.2061 306.171 75.5029 306.171 75.8221ZM311.23 73.6465V77.9893H311.944V75.2845C311.944 75.2005 311.963 75.0969 312.003 74.9737C312.047 74.8449 312.115 74.7217 312.204 74.6041C312.299 74.4865 312.42 74.3857 312.565 74.3017C312.717 74.2177 312.896 74.1757 313.103 74.1757C313.265 74.1757 313.397 74.2009 313.498 74.2513C313.604 74.2961 313.688 74.3633 313.75 74.4529C313.811 74.5369 313.853 74.6377 313.876 74.7553C313.904 74.8729 313.918 75.0017 313.918 75.1417V77.9893H314.632V75.2845C314.632 74.9485 314.733 74.6797 314.934 74.4781C315.136 74.2765 315.413 74.1757 315.766 74.1757C315.939 74.1757 316.079 74.2009 316.186 74.2513C316.298 74.3017 316.385 74.3717 316.446 74.4613C316.508 74.5453 316.55 74.6461 316.572 74.7637C316.595 74.8813 316.606 75.0073 316.606 75.1417V77.9893H317.32V74.8057C317.32 74.5817 317.283 74.3913 317.211 74.2345C317.143 74.0721 317.045 73.9405 316.917 73.8397C316.793 73.7389 316.642 73.6661 316.463 73.6213C316.289 73.5709 316.093 73.5457 315.875 73.5457C315.589 73.5457 315.326 73.6101 315.085 73.7389C314.85 73.8677 314.66 74.0497 314.514 74.2849C314.425 74.0161 314.271 73.8257 314.052 73.7137C313.834 73.6017 313.59 73.5457 313.321 73.5457C312.711 73.5457 312.243 73.7921 311.919 74.2849H311.902V73.6465H311.23ZM318.912 75.8221C318.912 75.5589 318.946 75.3265 319.013 75.1249C319.086 74.9177 319.184 74.7441 319.307 74.6041C319.43 74.4641 319.573 74.3577 319.735 74.2849C319.903 74.2121 320.08 74.1757 320.264 74.1757C320.449 74.1757 320.623 74.2121 320.785 74.2849C320.953 74.3577 321.099 74.4641 321.222 74.6041C321.345 74.7441 321.44 74.9177 321.508 75.1249C321.58 75.3265 321.617 75.5589 321.617 75.8221C321.617 76.0853 321.58 76.3205 321.508 76.5277C321.44 76.7293 321.345 76.9001 321.222 77.0401C321.099 77.1745 320.953 77.2781 320.785 77.3509C320.623 77.4237 320.449 77.4601 320.264 77.4601C320.08 77.4601 319.903 77.4237 319.735 77.3509C319.573 77.2781 319.43 77.1745 319.307 77.0401C319.184 76.9001 319.086 76.7293 319.013 76.5277C318.946 76.3205 318.912 76.0853 318.912 75.8221ZM318.156 75.8221C318.156 76.1413 318.201 76.4381 318.29 76.7125C318.38 76.9869 318.514 77.2277 318.694 77.4349C318.873 77.6365 319.094 77.7961 319.357 77.9137C319.62 78.0257 319.923 78.0817 320.264 78.0817C320.612 78.0817 320.914 78.0257 321.172 77.9137C321.435 77.7961 321.656 77.6365 321.835 77.4349C322.014 77.2277 322.149 76.9869 322.238 76.7125C322.328 76.4381 322.373 76.1413 322.373 75.8221C322.373 75.5029 322.328 75.2061 322.238 74.9317C322.149 74.6517 322.014 74.4109 321.835 74.2093C321.656 74.0021 321.435 73.8397 321.172 73.7221C320.914 73.6045 320.612 73.5457 320.264 73.5457C319.923 73.5457 319.62 73.6045 319.357 73.7221C319.094 73.8397 318.873 74.0021 318.694 74.2093C318.514 74.4109 318.38 74.6517 318.29 74.9317C318.201 75.2061 318.156 75.5029 318.156 75.8221ZM323.189 73.6465V77.9893H323.903V76.0573C323.903 75.7773 323.931 75.5309 323.987 75.3181C324.043 75.0997 324.133 74.9149 324.256 74.7637C324.379 74.6125 324.542 74.4977 324.743 74.4193C324.945 74.3409 325.189 74.3017 325.474 74.3017V73.5457C325.088 73.5345 324.769 73.6129 324.517 73.7809C324.265 73.9489 324.052 74.2093 323.878 74.5621H323.861V73.6465H323.189ZM325.987 73.6465V77.9893H326.701V76.0573C326.701 75.7773 326.729 75.5309 326.785 75.3181C326.841 75.0997 326.93 74.9149 327.053 74.7637C327.177 74.6125 327.339 74.4977 327.541 74.4193C327.742 74.3409 327.986 74.3017 328.271 74.3017V73.5457C327.885 73.5345 327.566 73.6129 327.314 73.7809C327.062 73.9489 326.849 74.2093 326.675 74.5621H326.659V73.6465H325.987ZM329.182 75.8221C329.182 75.5589 329.216 75.3265 329.283 75.1249C329.356 74.9177 329.454 74.7441 329.577 74.6041C329.7 74.4641 329.843 74.3577 330.005 74.2849C330.173 74.2121 330.35 74.1757 330.535 74.1757C330.719 74.1757 330.893 74.2121 331.055 74.2849C331.223 74.3577 331.369 74.4641 331.492 74.6041C331.615 74.7441 331.711 74.9177 331.778 75.1249C331.851 75.3265 331.887 75.5589 331.887 75.8221C331.887 76.0853 331.851 76.3205 331.778 76.5277C331.711 76.7293 331.615 76.9001 331.492 77.0401C331.369 77.1745 331.223 77.2781 331.055 77.3509C330.893 77.4237 330.719 77.4601 330.535 77.4601C330.35 77.4601 330.173 77.4237 330.005 77.3509C329.843 77.2781 329.7 77.1745 329.577 77.0401C329.454 76.9001 329.356 76.7293 329.283 76.5277C329.216 76.3205 329.182 76.0853 329.182 75.8221ZM328.426 75.8221C328.426 76.1413 328.471 76.4381 328.561 76.7125C328.65 76.9869 328.785 77.2277 328.964 77.4349C329.143 77.6365 329.364 77.7961 329.627 77.9137C329.891 78.0257 330.193 78.0817 330.535 78.0817C330.882 78.0817 331.184 78.0257 331.442 77.9137C331.705 77.7961 331.926 77.6365 332.105 77.4349C332.285 77.2277 332.419 76.9869 332.509 76.7125C332.598 76.4381 332.643 76.1413 332.643 75.8221C332.643 75.5029 332.598 75.2061 332.509 74.9317C332.419 74.6517 332.285 74.4109 332.105 74.2093C331.926 74.0021 331.705 73.8397 331.442 73.7221C331.184 73.6045 330.882 73.5457 330.535 73.5457C330.193 73.5457 329.891 73.6045 329.627 73.7221C329.364 73.8397 329.143 74.0021 328.964 74.2093C328.785 74.4109 328.65 74.6517 328.561 74.9317C328.471 75.2061 328.426 75.5029 328.426 75.8221ZM337.786 77.9893L339.172 73.6465H338.432L337.458 77.1997H337.441L336.534 73.6465H335.753L334.879 77.1997H334.862L333.88 73.6465H333.09L334.484 77.9893H335.257L336.131 74.5369H336.148L337.03 77.9893H337.786Z" fill="#999999"/>
<rect opacity="0.01" x="283.225" y="66.5793" width="16.7095" height="16.7095" fill="#D8D8D8"/>
<path fill-rule="evenodd" clip-rule="evenodd" d="M286.566 72.1491C286.566 71.5339 287.065 71.0352 287.68 71.0352H295.478C296.093 71.0352 296.592 71.5339 296.592 72.1491V78.8329C296.592 79.4481 296.093 79.9469 295.478 79.9469H287.68C287.065 79.9469 286.566 79.4481 286.566 78.8329V72.1491Z" stroke="#999999" stroke-width="1.11397" stroke-linecap="round" stroke-linejoin="round"/>
<path d="M293.807 69.9211V70.9555" stroke="#999999" stroke-width="1.11397" stroke-linecap="round" stroke-linejoin="round"/>
<path d="M289.352 69.9211V70.9555" stroke="#999999" stroke-width="1.11397" stroke-linecap="round" stroke-linejoin="round"/>
<path d="M286.566 73.7802H296.592" stroke="#999999" stroke-width="1.11397" stroke-linecap="round" stroke-linejoin="round"/>
<rect x="53.1289" y="116.239" width="127.026" height="11.0828" rx="5.54141" fill="#FFDD59"/>
<rect x="35.2681" y="141.09" width="12.5321" height="12.5321" rx="4.47576" fill="white" fill-opacity="0.0606884" stroke="#CCCCCC" stroke-width="0.596768"/>
<rect x="266.43" y="92.9224" width="12.5321" height="12.5321" rx="4.47576" fill="white" fill-opacity="0.0606884" stroke="#CCCCCC" stroke-width="0.596768"/>
<rect x="497.72" y="77.044" width="12.5321" height="12.5321" rx="4.47576" fill="white" fill-opacity="0.0606884" stroke="#CCCCCC" stroke-width="0.596768"/>
<rect x="53.1289" y="141.815" width="127.026" height="11.0828" rx="5.54141" fill="#EDACC8"/>
<rect x="284.291" y="93.647" width="127.026" height="11.0828" rx="5.54141" fill="#FF7C85"/>
<rect x="515.581" y="77.7686" width="127.026" height="11.0828" rx="5.54141" fill="#FFB800"/>
<path opacity="0.133315" fill-rule="evenodd" clip-rule="evenodd" d="M36.1631 48.8042C36.1631 47.8155 36.9646 47.0139 37.9534 47.0139H92.2592C93.248 47.0139 94.0495 47.8155 94.0495 48.8042V48.8042C94.0495 49.793 93.248 50.5945 92.2592 50.5945H37.9534C36.9646 50.5945 36.1631 49.793 36.1631 48.8042V48.8042Z" fill="#575FCF"/>
<rect x="36.1631" y="47.0139" width="25.0642" height="3.58061" rx="1.7903" fill="#575FCF"/>
<path d="M36.2957 27.2606H40.7309C41.4443 27.2606 42.0262 27.3639 42.4768 27.5704C42.9273 27.7769 43.2747 28.035 43.5187 28.3448C43.7628 28.6545 43.927 28.9924 44.0115 29.3585C44.1054 29.7246 44.1523 30.0625 44.1523 30.3723C44.1523 30.682 44.1054 31.02 44.0115 31.386C43.927 31.7427 43.7628 32.076 43.5187 32.3857C43.2747 32.6955 42.9273 32.9536 42.4768 33.1601C42.0262 33.3572 41.4443 33.4558 40.7309 33.4558H38.0557V37.3137H36.2957V27.2606ZM38.0557 32.0196H40.6323C40.8294 32.0196 41.0312 31.9915 41.2377 31.9352C41.4443 31.8788 41.632 31.7897 41.8009 31.6676C41.9793 31.5362 42.1201 31.3673 42.2233 31.1608C42.336 30.9449 42.3923 30.6773 42.3923 30.3582C42.3923 30.0297 42.3454 29.7575 42.2515 29.5416C42.1576 29.3257 42.0309 29.1567 41.8713 29.0347C41.7118 28.9033 41.5287 28.8141 41.3222 28.7672C41.1157 28.7202 40.8951 28.6968 40.6605 28.6968H38.0557V32.0196ZM45.4616 30.0344H46.9682V31.4424H46.9964C47.0433 31.2452 47.1325 31.0528 47.2639 30.8651C47.4047 30.6773 47.5689 30.5084 47.7567 30.3582C47.9538 30.1986 48.1697 30.0719 48.4044 29.978C48.639 29.8842 48.8784 29.8372 49.1224 29.8372C49.3102 29.8372 49.4369 29.8419 49.5026 29.8513C49.5777 29.8607 49.6528 29.8701 49.7279 29.8795V31.4283C49.6152 31.4095 49.4979 31.3954 49.3759 31.386C49.2632 31.3673 49.1506 31.3579 49.038 31.3579C48.7657 31.3579 48.5076 31.4142 48.2636 31.5268C48.0289 31.6301 47.8224 31.7897 47.644 32.0056C47.4657 32.2121 47.3249 32.4702 47.2216 32.78C47.1184 33.0897 47.0668 33.4464 47.0668 33.85V37.3137H45.4616V30.0344ZM53.5011 37.5108C52.9191 37.5108 52.3982 37.417 51.9382 37.2292C51.4877 37.0321 51.1028 36.7646 50.7837 36.4267C50.4739 36.0888 50.2345 35.6851 50.0656 35.2158C49.906 34.7465 49.8262 34.2302 49.8262 33.667C49.8262 33.1132 49.906 32.6016 50.0656 32.1323C50.2345 31.6629 50.4739 31.2593 50.7837 30.9214C51.1028 30.5835 51.4877 30.3207 51.9382 30.1329C52.3982 29.9358 52.9191 29.8372 53.5011 29.8372C54.0831 29.8372 54.5993 29.9358 55.0499 30.1329C55.5098 30.3207 55.8947 30.5835 56.2045 30.9214C56.5236 31.2593 56.763 31.6629 56.9225 32.1323C57.0915 32.6016 57.176 33.1132 57.176 33.667C57.176 34.2302 57.0915 34.7465 56.9225 35.2158C56.763 35.6851 56.5236 36.0888 56.2045 36.4267C55.8947 36.7646 55.5098 37.0321 55.0499 37.2292C54.5993 37.417 54.0831 37.5108 53.5011 37.5108ZM53.5011 36.2436C53.8578 36.2436 54.1675 36.1685 54.4304 36.0184C54.6932 35.8682 54.9091 35.6711 55.0781 35.427C55.247 35.1829 55.369 34.9107 55.4441 34.6104C55.5286 34.3006 55.5709 33.9861 55.5709 33.667C55.5709 33.3572 55.5286 33.0475 55.4441 32.7377C55.369 32.428 55.247 32.1557 55.0781 31.9211C54.9091 31.677 54.6932 31.4799 54.4304 31.3297C54.1675 31.1795 53.8578 31.1044 53.5011 31.1044C53.1444 31.1044 52.8346 31.1795 52.5718 31.3297C52.309 31.4799 52.0931 31.677 51.9241 31.9211C51.7552 32.1557 51.6285 32.428 51.544 32.7377C51.4689 33.0475 51.4313 33.3572 51.4313 33.667C51.4313 33.9861 51.4689 34.3006 51.544 34.6104C51.6285 34.9107 51.7552 35.1829 51.9241 35.427C52.0931 35.6711 52.309 35.8682 52.5718 36.0184C52.8346 36.1685 53.1444 36.2436 53.5011 36.2436ZM65.3673 37.3137H63.8467V36.3281H63.8185C63.6027 36.7505 63.2882 37.0556 62.8752 37.2433C62.4622 37.4217 62.0257 37.5108 61.5657 37.5108C60.9932 37.5108 60.491 37.4123 60.0592 37.2152C59.6368 37.0087 59.2848 36.7317 59.0032 36.3844C58.7216 36.0371 58.5104 35.6288 58.3696 35.1595C58.2288 34.6808 58.1584 34.1692 58.1584 33.6248C58.1584 32.9677 58.2476 32.3998 58.4259 31.9211C58.6043 31.4424 58.8389 31.0481 59.1299 30.7384C59.4303 30.4286 59.7682 30.2033 60.1437 30.0625C60.5285 29.9123 60.9181 29.8372 61.3123 29.8372C61.5376 29.8372 61.7676 29.8607 62.0022 29.9076C62.2369 29.9452 62.4622 30.0109 62.6781 30.1048C62.894 30.1986 63.0911 30.3207 63.2694 30.4708C63.4572 30.6116 63.612 30.7806 63.7341 30.9777H63.7622V27.2606H65.3673V37.3137ZM59.7635 33.7515C59.7635 34.0612 59.8011 34.3663 59.8761 34.6667C59.9606 34.9671 60.0827 35.2346 60.2422 35.4692C60.4112 35.7039 60.6224 35.8916 60.8758 36.0324C61.1293 36.1732 61.4296 36.2436 61.7769 36.2436C62.1336 36.2436 62.4387 36.1685 62.6921 36.0184C62.955 35.8682 63.1662 35.6711 63.3257 35.427C63.4947 35.1829 63.6167 34.9107 63.6918 34.6104C63.7763 34.3006 63.8185 33.9861 63.8185 33.667C63.8185 32.8597 63.6355 32.2308 63.2694 31.7803C62.9127 31.3297 62.4246 31.1044 61.8051 31.1044C61.4296 31.1044 61.1105 31.1842 60.8477 31.3438C60.5942 31.494 60.383 31.6958 60.2141 31.9492C60.0545 32.1933 59.9372 32.4749 59.8621 32.794C59.7964 33.1038 59.7635 33.4229 59.7635 33.7515ZM73.5102 37.3137H71.9332V36.3H71.9051C71.708 36.666 71.4123 36.9617 71.018 37.187C70.6332 37.4029 70.239 37.5108 69.8353 37.5108C68.8779 37.5108 68.1833 37.2762 67.7515 36.8068C67.3291 36.3281 67.1179 35.61 67.1179 34.6526V30.0344H68.723V34.4977C68.723 35.136 68.845 35.5866 69.0891 35.8494C69.3331 36.1122 69.6758 36.2436 70.1169 36.2436C70.4548 36.2436 70.7364 36.192 70.9617 36.0888C71.187 35.9855 71.37 35.8494 71.5108 35.6804C71.6516 35.5021 71.7502 35.2909 71.8065 35.0468C71.8722 34.8028 71.9051 34.54 71.9051 34.2584V30.0344H73.5102V37.3137ZM80.1168 32.4702C80.0511 32.0196 79.8681 31.6817 79.5677 31.4564C79.2767 31.2218 78.9059 31.1044 78.4554 31.1044C78.2489 31.1044 78.0283 31.142 77.7936 31.2171C77.5589 31.2828 77.343 31.4142 77.1459 31.6113C76.9488 31.7991 76.7845 32.0666 76.6531 32.4139C76.5217 32.7518 76.456 33.1977 76.456 33.7515C76.456 34.0519 76.4889 34.3522 76.5546 34.6526C76.6297 34.953 76.7423 35.2205 76.8925 35.4552C77.0521 35.6898 77.2539 35.8823 77.4979 36.0324C77.742 36.1732 78.0377 36.2436 78.385 36.2436C78.8543 36.2436 79.2392 36.0981 79.5395 35.8072C79.8493 35.5162 80.0417 35.1079 80.1168 34.5822H81.7219C81.5717 35.5303 81.2104 36.2577 80.6378 36.7646C80.0746 37.2621 79.3236 37.5108 78.385 37.5108C77.8124 37.5108 77.3055 37.417 76.8643 37.2292C76.4325 37.0321 76.0665 36.7693 75.7661 36.4408C75.4657 36.1028 75.2357 35.7039 75.0762 35.244C74.926 34.784 74.8509 34.2865 74.8509 33.7515C74.8509 33.2071 74.926 32.6955 75.0762 32.2168C75.2264 31.738 75.4516 31.325 75.752 30.9777C76.0524 30.621 76.4232 30.3441 76.8643 30.147C77.3149 29.9405 77.8405 29.8372 78.4413 29.8372C78.8637 29.8372 79.2626 29.8936 79.6381 30.0062C80.0229 30.1095 80.3609 30.269 80.6518 30.4849C80.9522 30.7008 81.1963 30.973 81.384 31.3016C81.5717 31.6301 81.6844 32.0196 81.7219 32.4702H80.1168ZM82.2945 30.0344H83.5054V27.852H85.1105V30.0344H86.5607V31.2312H85.1105V35.1172C85.1105 35.2862 85.1152 35.4317 85.1246 35.5537C85.1433 35.6757 85.1762 35.779 85.2231 35.8635C85.2794 35.948 85.3592 36.0137 85.4625 36.0606C85.5657 36.0981 85.7065 36.1169 85.8849 36.1169C85.9975 36.1169 86.1102 36.1169 86.2228 36.1169C86.3354 36.1075 86.4481 36.0888 86.5607 36.0606V37.2996C86.3824 37.3184 86.2087 37.3372 86.0398 37.356C85.8708 37.3747 85.6971 37.3841 85.5188 37.3841C85.0964 37.3841 84.7538 37.3466 84.491 37.2715C84.2375 37.187 84.0357 37.0697 83.8855 36.9195C83.7447 36.7599 83.6462 36.5628 83.5898 36.3281C83.5429 36.0935 83.5147 35.8259 83.5054 35.5256V31.2312H82.2945V30.0344ZM93.014 33.9627C93.014 34.3475 93.0797 34.6761 93.2111 34.9483C93.3425 35.2205 93.5256 35.4458 93.7602 35.6241C93.9949 35.7931 94.2624 35.9198 94.5628 36.0043C94.8725 36.0794 95.2058 36.1169 95.5625 36.1169C95.9473 36.1169 96.2758 36.0747 96.5481 35.9902C96.8203 35.8963 97.0409 35.779 97.2098 35.6382C97.3788 35.4974 97.5008 35.3378 97.5759 35.1595C97.651 34.9717 97.6885 34.784 97.6885 34.5963C97.6885 34.2114 97.5994 33.9298 97.421 33.7515C97.2521 33.5637 97.0643 33.4323 96.8578 33.3572C96.5011 33.2258 96.0834 33.1038 95.6047 32.9912C95.1354 32.8691 94.5534 32.7143 93.8588 32.5265C93.427 32.4139 93.0656 32.2684 92.7746 32.09C92.493 31.9023 92.2677 31.6958 92.0988 31.4705C91.9298 31.2452 91.8078 31.0059 91.7327 30.7524C91.667 30.499 91.6341 30.2409 91.6341 29.978C91.6341 29.4712 91.7374 29.0347 91.9439 28.6686C92.1598 28.2931 92.4414 27.9834 92.7887 27.7393C93.136 27.4953 93.5302 27.3169 93.9714 27.2043C94.4126 27.0823 94.8585 27.0212 95.309 27.0212C95.8347 27.0212 96.3275 27.0916 96.7874 27.2324C97.2568 27.3639 97.6651 27.5657 98.0124 27.8379C98.3691 28.1101 98.6507 28.448 98.8572 28.8516C99.0637 29.2459 99.1669 29.7058 99.1669 30.2315H97.4069C97.36 29.5838 97.1394 29.1285 96.7452 28.8657C96.3509 28.5935 95.8488 28.4574 95.2386 28.4574C95.0321 28.4574 94.8209 28.4809 94.605 28.5278C94.3891 28.5653 94.192 28.6357 94.0137 28.739C93.8353 28.8329 93.6851 28.9643 93.5631 29.1332C93.4505 29.3022 93.3941 29.5134 93.3941 29.7668C93.3941 30.1235 93.5021 30.4051 93.718 30.6116C93.9433 30.8088 94.2342 30.9589 94.5909 31.0622C94.6285 31.0716 94.774 31.1138 95.0274 31.1889C95.2902 31.2546 95.5812 31.3297 95.9004 31.4142C96.2195 31.4987 96.5293 31.5832 96.8297 31.6676C97.1394 31.7427 97.36 31.7991 97.4914 31.8366C97.82 31.9399 98.1062 32.0807 98.3503 32.259C98.5944 32.4373 98.7962 32.6439 98.9557 32.8785C99.1247 33.1038 99.2467 33.3479 99.3218 33.6107C99.4063 33.8735 99.4485 34.1363 99.4485 34.3992C99.4485 34.9624 99.3312 35.4458 99.0965 35.8494C98.8713 36.2436 98.5709 36.5675 98.1954 36.8209C97.82 37.0744 97.3929 37.2574 96.9141 37.37C96.4354 37.4921 95.9473 37.5531 95.4498 37.5531C94.8772 37.5531 94.3375 37.4827 93.8306 37.3419C93.3237 37.2011 92.8826 36.9852 92.5071 36.6942C92.1316 36.4032 91.8313 36.0324 91.606 35.5819C91.3807 35.1219 91.2634 34.5822 91.254 33.9627H93.014ZM100.806 30.0344H102.327V31.02H102.355C102.58 30.5976 102.895 30.2972 103.299 30.1188C103.702 29.9311 104.139 29.8372 104.608 29.8372C105.181 29.8372 105.678 29.9405 106.1 30.147C106.532 30.3441 106.889 30.621 107.171 30.9777C107.452 31.325 107.663 31.7333 107.804 32.2027C107.945 32.672 108.015 33.1742 108.015 33.7092C108.015 34.1973 107.95 34.6714 107.818 35.1313C107.696 35.5913 107.504 35.9996 107.241 36.3563C106.987 36.7036 106.664 36.9852 106.269 37.2011C105.875 37.4076 105.411 37.5108 104.875 37.5108C104.641 37.5108 104.406 37.4874 104.171 37.4404C103.937 37.4029 103.712 37.3372 103.496 37.2433C103.28 37.1495 103.078 37.0321 102.89 36.8913C102.712 36.7411 102.562 36.5675 102.44 36.3704H102.411V40.003H100.806V30.0344ZM106.41 33.6811C106.41 33.3525 106.368 33.0334 106.283 32.7236C106.199 32.4139 106.072 32.1417 105.903 31.907C105.734 31.6629 105.523 31.4705 105.27 31.3297C105.016 31.1795 104.725 31.1044 104.397 31.1044C103.721 31.1044 103.209 31.3391 102.862 31.8084C102.524 32.2778 102.355 32.902 102.355 33.6811C102.355 34.0472 102.397 34.3898 102.482 34.7089C102.576 35.0187 102.712 35.2862 102.89 35.5115C103.069 35.7368 103.28 35.9151 103.524 36.0465C103.777 36.1779 104.068 36.2436 104.397 36.2436C104.763 36.2436 105.073 36.1685 105.326 36.0184C105.579 35.8682 105.786 35.6757 105.946 35.4411C106.115 35.197 106.232 34.9248 106.298 34.6244C106.373 34.3147 106.41 34.0002 106.41 33.6811ZM114.37 33.0334C114.351 32.78 114.295 32.5359 114.201 32.3012C114.117 32.0666 113.995 31.8648 113.835 31.6958C113.685 31.5175 113.497 31.3767 113.272 31.2734C113.056 31.1608 112.812 31.1044 112.54 31.1044C112.258 31.1044 112 31.1561 111.765 31.2593C111.54 31.3532 111.343 31.4893 111.174 31.6676C111.014 31.8366 110.883 32.0384 110.78 32.2731C110.686 32.5077 110.634 32.7612 110.625 33.0334H114.37ZM110.625 34.0894C110.625 34.371 110.662 34.6432 110.737 34.906C110.822 35.1689 110.944 35.3988 111.103 35.596C111.263 35.7931 111.465 35.9527 111.709 36.0747C111.953 36.1873 112.244 36.2436 112.582 36.2436C113.051 36.2436 113.427 36.1451 113.708 35.948C113.999 35.7415 114.215 35.4364 114.356 35.0328H115.877C115.792 35.427 115.647 35.779 115.44 36.0888C115.234 36.3985 114.985 36.6613 114.694 36.8772C114.403 37.0837 114.074 37.2386 113.708 37.3419C113.352 37.4545 112.976 37.5108 112.582 37.5108C112.009 37.5108 111.502 37.417 111.061 37.2292C110.62 37.0415 110.245 36.7787 109.935 36.4408C109.634 36.1028 109.404 35.6992 109.245 35.2299C109.095 34.7605 109.02 34.2443 109.02 33.6811C109.02 33.1648 109.099 32.6767 109.259 32.2168C109.428 31.7474 109.663 31.3391 109.963 30.9918C110.273 30.6351 110.644 30.3535 111.075 30.147C111.507 29.9405 111.995 29.8372 112.54 29.8372C113.112 29.8372 113.624 29.9593 114.074 30.2033C114.534 30.438 114.914 30.7524 115.215 31.1467C115.515 31.5409 115.731 31.9962 115.863 32.5124C116.003 33.0193 116.041 33.545 115.975 34.0894H110.625ZM122.109 32.4702C122.044 32.0196 121.861 31.6817 121.56 31.4564C121.269 31.2218 120.898 31.1044 120.448 31.1044C120.241 31.1044 120.021 31.142 119.786 31.2171C119.551 31.2828 119.336 31.4142 119.138 31.6113C118.941 31.7991 118.777 32.0666 118.646 32.4139C118.514 32.7518 118.449 33.1977 118.449 33.7515C118.449 34.0519 118.481 34.3522 118.547 34.6526C118.622 34.953 118.735 35.2205 118.885 35.4552C119.045 35.6898 119.246 35.8823 119.49 36.0324C119.734 36.1732 120.03 36.2436 120.377 36.2436C120.847 36.2436 121.232 36.0981 121.532 35.8072C121.842 35.5162 122.034 35.1079 122.109 34.5822H123.714C123.564 35.5303 123.203 36.2577 122.63 36.7646C122.067 37.2621 121.316 37.5108 120.377 37.5108C119.805 37.5108 119.298 37.417 118.857 37.2292C118.425 37.0321 118.059 36.7693 117.759 36.4408C117.458 36.1028 117.228 35.7039 117.069 35.244C116.918 34.784 116.843 34.2865 116.843 33.7515C116.843 33.2071 116.918 32.6955 117.069 32.2168C117.219 31.738 117.444 31.325 117.745 30.9777C118.045 30.621 118.416 30.3441 118.857 30.147C119.307 29.9405 119.833 29.8372 120.434 29.8372C120.856 29.8372 121.255 29.8936 121.631 30.0062C122.015 30.1095 122.353 30.269 122.644 30.4849C122.945 30.7008 123.189 30.973 123.377 31.3016C123.564 31.6301 123.677 32.0196 123.714 32.4702H122.109Z" fill="#303030"/>
<path d="M39.664 70.4458C39.2201 70.4458 38.8347 70.5353 38.5077 70.7144C38.1884 70.8935 37.9276 71.1349 37.7251 71.4386C37.5227 71.7345 37.3708 72.0732 37.2696 72.4547C37.1761 72.8363 37.1294 73.2256 37.1294 73.6227C37.1294 74.0198 37.1761 74.4092 37.2696 74.7907C37.3708 75.1723 37.5227 75.5149 37.7251 75.8186C37.9276 76.1145 38.1884 76.3519 38.5077 76.531C38.8347 76.7101 39.2201 76.7997 39.664 76.7997C40.1078 76.7997 40.4894 76.7101 40.8086 76.531C41.1357 76.3519 41.4004 76.1145 41.6029 75.8186C41.8053 75.5149 41.9533 75.1723 42.0467 74.7907C42.1479 74.4092 42.1985 74.0198 42.1985 73.6227C42.1985 73.2256 42.1479 72.8363 42.0467 72.4547C41.9533 72.0732 41.8053 71.7345 41.6029 71.4386C41.4004 71.1349 41.1357 70.8935 40.8086 70.7144C40.4894 70.5353 40.1078 70.4458 39.664 70.4458ZM39.664 69.2544C40.2869 69.2544 40.8437 69.3712 41.3342 69.6048C41.8326 69.8384 42.2531 70.1538 42.5957 70.5509C42.9383 70.948 43.1991 71.4113 43.3782 71.9408C43.5651 72.4703 43.6585 73.0309 43.6585 73.6227C43.6585 74.2223 43.5651 74.7868 43.3782 75.3163C43.1991 75.8458 42.9383 76.3091 42.5957 76.7062C42.2531 77.1034 41.8326 77.4187 41.3342 77.6523C40.8437 77.8781 40.2869 77.991 39.664 77.991C39.0411 77.991 38.4804 77.8781 37.9821 77.6523C37.4915 77.4187 37.0749 77.1034 36.7323 76.7062C36.3897 76.3091 36.1249 75.8458 35.9381 75.3163C35.759 74.7868 35.6694 74.2223 35.6694 73.6227C35.6694 73.0309 35.759 72.4703 35.9381 71.9408C36.1249 71.4113 36.3897 70.948 36.7323 70.5509C37.0749 70.1538 37.4915 69.8384 37.9821 69.6048C38.4804 69.3712 39.0411 69.2544 39.664 69.2544ZM44.8355 69.453H46.167V72.5365H46.1904C46.2838 72.3885 46.3967 72.2562 46.5291 72.1394C46.6615 72.0226 46.8055 71.9252 46.9612 71.8474C47.1248 71.7617 47.2922 71.6994 47.4635 71.6605C47.6426 71.6138 47.8178 71.5904 47.9891 71.5904C48.4641 71.5904 48.8768 71.6761 49.2272 71.8474C49.5854 72.0109 49.8812 72.2406 50.1148 72.5365C50.3484 72.8246 50.5236 73.1633 50.6404 73.5526C50.7572 73.942 50.8156 74.3586 50.8156 74.8024C50.8156 75.2073 50.7611 75.6005 50.6521 75.9821C50.5509 76.3636 50.3913 76.7023 50.1732 76.9982C49.963 77.2863 49.6944 77.5199 49.3673 77.699C49.0403 77.8703 48.6548 77.956 48.211 77.956C48.0086 77.956 47.8022 77.9404 47.592 77.9093C47.3895 77.8859 47.1948 77.8353 47.008 77.7574C46.8211 77.6796 46.6498 77.5783 46.494 77.4538C46.3461 77.3292 46.2215 77.1657 46.1203 76.9632H46.0969V77.7925H44.8355V69.453ZM49.4841 74.779C49.4841 74.5065 49.4491 74.2418 49.379 73.9848C49.3089 73.7278 49.2038 73.502 49.0636 73.3074C48.9235 73.1049 48.7483 72.9453 48.538 72.8285C48.3278 72.7039 48.0864 72.6416 47.8139 72.6416C47.2532 72.6416 46.8289 72.8363 46.5408 73.2256C46.2604 73.6149 46.1203 74.1327 46.1203 74.779C46.1203 75.0827 46.1553 75.3669 46.2254 75.6317C46.3033 75.8886 46.4162 76.1106 46.5641 76.2974C46.7121 76.4843 46.8873 76.6323 47.0897 76.7413C47.3 76.8503 47.5414 76.9048 47.8139 76.9048C48.1176 76.9048 48.3745 76.8425 48.5848 76.7179C48.795 76.5933 48.9663 76.4337 49.0987 76.239C49.2388 76.0366 49.3362 75.8108 49.3907 75.5616C49.453 75.3046 49.4841 75.0438 49.4841 74.779ZM51.9758 69.453H53.3073V70.7144H51.9758V69.453ZM51.9758 71.7539H53.3073V78.3064C53.3073 78.906 53.1749 79.3693 52.9102 79.6963C52.6455 80.0234 52.2016 80.1869 51.5787 80.1869C51.4463 80.1869 51.3334 80.183 51.24 80.1752C51.1543 80.1674 51.0687 80.1557 50.983 80.1402V79.089C51.0687 79.1045 51.1504 79.1162 51.2283 79.124C51.3061 79.1318 51.3762 79.1357 51.4385 79.1357C51.6799 79.1357 51.8279 79.0617 51.8824 78.9138C51.9447 78.7658 51.9758 78.5439 51.9758 78.248V71.7539ZM58.9045 74.2418C58.8889 74.0315 58.8422 73.8291 58.7643 73.6344C58.6943 73.4397 58.593 73.2723 58.4607 73.1322C58.3361 72.9842 58.1803 72.8674 57.9935 72.7818C57.8144 72.6883 57.6119 72.6416 57.3861 72.6416C57.1525 72.6416 56.9384 72.6844 56.7437 72.7701C56.5568 72.8479 56.3933 72.9609 56.2531 73.1088C56.1208 73.249 56.0118 73.4164 55.9261 73.611C55.8482 73.8057 55.8054 74.0159 55.7976 74.2418H58.9045ZM55.7976 75.1178C55.7976 75.3514 55.8288 75.5772 55.8911 75.7952C55.9611 76.0132 56.0624 76.204 56.1947 76.3675C56.3271 76.531 56.4945 76.6634 56.697 76.7646C56.8994 76.8581 57.1408 76.9048 57.4211 76.9048C57.8105 76.9048 58.1219 76.823 58.3555 76.6595C58.5969 76.4882 58.776 76.2351 58.8928 75.9003H60.1543C60.0842 76.2274 59.9635 76.5194 59.7922 76.7763C59.6209 77.0333 59.4145 77.2513 59.1731 77.4304C58.9318 77.6017 58.6592 77.7302 58.3555 77.8158C58.0597 77.9093 57.7482 77.956 57.4211 77.956C56.9462 77.956 56.5257 77.8781 56.1597 77.7224C55.7937 77.5667 55.4823 77.3486 55.2253 77.0683C54.9761 76.788 54.7854 76.4532 54.653 76.0638C54.5284 75.6745 54.4661 75.2462 54.4661 74.779C54.4661 74.3508 54.5323 73.9459 54.6647 73.5643C54.8048 73.175 54.9995 72.8363 55.2487 72.5482C55.5056 72.2523 55.8132 72.0187 56.1714 71.8474C56.5296 71.6761 56.9345 71.5904 57.3861 71.5904C57.8611 71.5904 58.2855 71.6916 58.6592 71.8941C59.0408 72.0887 59.3561 72.3496 59.6053 72.6766C59.8545 73.0037 60.0336 73.3813 60.1426 73.8096C60.2594 74.2301 60.2905 74.6661 60.236 75.1178H55.7976ZM65.3246 73.7746C65.2701 73.4008 65.1182 73.1205 64.8691 72.9336C64.6277 72.7389 64.3201 72.6416 63.9463 72.6416C63.775 72.6416 63.592 72.6727 63.3974 72.735C63.2027 72.7895 63.0236 72.8986 62.8601 73.0621C62.6966 73.2178 62.5603 73.4397 62.4513 73.7278C62.3423 74.0082 62.2878 74.378 62.2878 74.8374C62.2878 75.0866 62.315 75.3358 62.3695 75.585C62.4318 75.8341 62.5253 76.0561 62.6499 76.2507C62.7822 76.4454 62.9496 76.605 63.1521 76.7296C63.3546 76.8464 63.5998 76.9048 63.8879 76.9048C64.2773 76.9048 64.5965 76.7841 64.8457 76.5427C65.1027 76.3013 65.2623 75.9626 65.3246 75.5266H66.6561C66.5315 76.313 66.2317 76.9165 65.7567 77.337C65.2895 77.7497 64.6666 77.956 63.8879 77.956C63.413 77.956 62.9925 77.8781 62.6265 77.7224C62.2683 77.5589 61.9646 77.3409 61.7155 77.0683C61.4663 76.788 61.2755 76.4571 61.1431 76.0755C61.0186 75.694 60.9563 75.2813 60.9563 74.8374C60.9563 74.3858 61.0186 73.9614 61.1431 73.5643C61.2677 73.1672 61.4546 72.8246 61.7038 72.5365C61.953 72.2406 62.2605 72.0109 62.6265 71.8474C63.0003 71.6761 63.4363 71.5904 63.9347 71.5904C64.2851 71.5904 64.616 71.6371 64.9275 71.7306C65.2467 71.8162 65.527 71.9486 65.7684 72.1277C66.0176 72.3068 66.22 72.5326 66.3758 72.8051C66.5315 73.0777 66.625 73.4008 66.6561 73.7746H65.3246ZM67.1311 71.7539H68.1355V69.9435H69.4671V71.7539H70.6701V72.7467H69.4671V75.9704C69.4671 76.1106 69.471 76.2313 69.4787 76.3325C69.4943 76.4337 69.5216 76.5194 69.5605 76.5894C69.6072 76.6595 69.6734 76.714 69.7591 76.753C69.8447 76.7841 69.9615 76.7997 70.1095 76.7997C70.2029 76.7997 70.2963 76.7997 70.3898 76.7997C70.4832 76.7919 70.5767 76.7763 70.6701 76.753V77.7808C70.5222 77.7964 70.3781 77.8119 70.2379 77.8275C70.0978 77.8431 69.9537 77.8509 69.8058 77.8509C69.4554 77.8509 69.1712 77.8197 68.9531 77.7574C68.7429 77.6874 68.5755 77.59 68.4509 77.4654C68.3341 77.3331 68.2523 77.1695 68.2056 76.9749C68.1667 76.7802 68.1433 76.5583 68.1355 76.3091V72.7467H67.1311V71.7539ZM71.663 69.453H72.9945V70.7144H71.663V69.453ZM71.663 71.7539H72.9945V77.7925H71.663V71.7539ZM73.8496 71.7539H75.2979L76.828 76.3909H76.8514L78.3231 71.7539H79.7013L77.5405 77.7925H76.0455L73.8496 71.7539ZM84.6484 74.2418C84.6328 74.0315 84.5861 73.8291 84.5083 73.6344C84.4382 73.4397 84.3369 73.2723 84.2046 73.1322C84.08 72.9842 83.9243 72.8674 83.7374 72.7818C83.5583 72.6883 83.3558 72.6416 83.13 72.6416C82.8964 72.6416 82.6823 72.6844 82.4876 72.7701C82.3007 72.8479 82.1372 72.9609 81.9971 73.1088C81.8647 73.249 81.7557 73.4164 81.67 73.611C81.5921 73.8057 81.5493 74.0159 81.5415 74.2418H84.6484ZM81.5415 75.1178C81.5415 75.3514 81.5727 75.5772 81.635 75.7952C81.7051 76.0132 81.8063 76.204 81.9387 76.3675C82.071 76.531 82.2384 76.6634 82.4409 76.7646C82.6433 76.8581 82.8847 76.9048 83.1651 76.9048C83.5544 76.9048 83.8659 76.823 84.0995 76.6595C84.3408 76.4882 84.5199 76.2351 84.6367 75.9003H85.8982C85.8281 76.2274 85.7074 76.5194 85.5361 76.7763C85.3648 77.0333 85.1584 77.2513 84.9171 77.4304C84.6757 77.6017 84.4031 77.7302 84.0995 77.8158C83.8036 77.9093 83.4921 77.956 83.1651 77.956C82.6901 77.956 82.2696 77.8781 81.9036 77.7224C81.5376 77.5667 81.2262 77.3486 80.9692 77.0683C80.72 76.788 80.5293 76.4532 80.3969 76.0638C80.2723 75.6745 80.21 75.2462 80.21 74.779C80.21 74.3508 80.2762 73.9459 80.4086 73.5643C80.5487 73.175 80.7434 72.8363 80.9926 72.5482C81.2495 72.2523 81.5571 72.0187 81.9153 71.8474C82.2735 71.6761 82.6784 71.5904 83.13 71.5904C83.605 71.5904 84.0294 71.6916 84.4031 71.8941C84.7847 72.0887 85.1 72.3496 85.3492 72.6766C85.5984 73.0037 85.7775 73.3813 85.8865 73.8096C86.0033 74.2301 86.0344 74.6661 85.9799 75.1178H81.5415ZM87.9967 75.8536C88.0356 76.2429 88.1835 76.5155 88.4405 76.6712C88.6975 76.8269 89.005 76.9048 89.3632 76.9048C89.4878 76.9048 89.628 76.897 89.7837 76.8814C89.9472 76.8581 90.0991 76.8191 90.2392 76.7646C90.3794 76.7101 90.4923 76.6323 90.5779 76.531C90.6714 76.422 90.7142 76.2819 90.7064 76.1106C90.6986 75.9393 90.6363 75.7991 90.5195 75.6901C90.4027 75.5811 90.2509 75.4954 90.064 75.4331C89.8849 75.363 89.6786 75.3046 89.445 75.2579C89.2114 75.2112 88.9739 75.1606 88.7325 75.1061C88.4833 75.0516 88.2419 74.9854 88.0083 74.9075C87.7825 74.8297 87.5762 74.7245 87.3893 74.5922C87.2102 74.4598 87.0661 74.2924 86.9571 74.0899C86.8481 73.8797 86.7936 73.6227 86.7936 73.319C86.7936 72.992 86.8715 72.7195 87.0272 72.5014C87.1907 72.2756 87.3932 72.0965 87.6346 71.9642C87.8837 71.824 88.1563 71.7267 88.4522 71.6722C88.7559 71.6177 89.044 71.5904 89.3165 71.5904C89.628 71.5904 89.9239 71.6254 90.2042 71.6955C90.4923 71.7578 90.7492 71.8629 90.9751 72.0109C91.2087 72.1588 91.3994 72.3535 91.5474 72.5949C91.7031 72.8285 91.8004 73.1127 91.8394 73.4475H90.4495C90.3872 73.1283 90.2392 72.9141 90.0056 72.8051C89.7798 72.6961 89.5189 72.6416 89.2231 72.6416C89.1296 72.6416 89.0167 72.6494 88.8843 72.665C88.7597 72.6805 88.6391 72.7117 88.5223 72.7584C88.4132 72.7973 88.3198 72.8596 88.2419 72.9453C88.1641 73.0231 88.1251 73.1283 88.1251 73.2606C88.1251 73.4242 88.1796 73.5565 88.2887 73.6578C88.4055 73.759 88.5534 73.8446 88.7325 73.9147C88.9194 73.977 89.1296 74.0315 89.3632 74.0782C89.5968 74.125 89.8382 74.1756 90.0874 74.2301C90.3288 74.2846 90.5663 74.3508 90.7999 74.4286C91.0335 74.5065 91.2398 74.6116 91.4189 74.744C91.6058 74.8764 91.7537 75.0438 91.8627 75.2462C91.9795 75.4487 92.0379 75.6979 92.0379 75.9938C92.0379 76.3519 91.9562 76.6556 91.7927 76.9048C91.6291 77.154 91.415 77.3564 91.1503 77.5122C90.8933 77.6679 90.6052 77.7808 90.2859 77.8509C89.9667 77.921 89.6513 77.956 89.3399 77.956C88.9583 77.956 88.604 77.9132 88.277 77.8275C87.9577 77.7419 87.6774 77.6134 87.436 77.4421C87.2024 77.263 87.0155 77.045 86.8754 76.788C86.743 76.5233 86.6729 76.2118 86.6651 75.8536H87.9967Z" fill="#303030"/>
<path fill-rule="evenodd" clip-rule="evenodd" d="M22.4382 75.6586C22.4382 75.1642 22.839 74.7634 23.3334 74.7634C23.8277 74.7634 24.2285 75.1642 24.2285 75.6586C24.2285 76.153 23.8277 76.5537 23.3334 76.5537C22.839 76.5537 22.4382 76.153 22.4382 75.6586ZM22.4377 70.8844C22.4377 70.39 22.8385 69.9893 23.3329 69.9893C23.8272 69.9893 24.228 70.39 24.228 70.8844C24.228 71.3788 23.8272 71.7796 23.3329 71.7796C22.8385 71.7796 22.4377 71.3788 22.4377 70.8844ZM23.3334 72.3763C22.839 72.3763 22.4382 72.7771 22.4382 73.2715C22.4382 73.7659 22.839 74.1666 23.3334 74.1666C23.8277 74.1666 24.2285 73.7659 24.2285 73.2715C24.2285 72.7771 23.8277 72.3763 23.3334 72.3763Z" fill="#CCCCCC"/>
<path fill-rule="evenodd" clip-rule="evenodd" d="M24.8249 70.8844C24.8249 70.39 25.2257 69.9893 25.7201 69.9893C26.2145 69.9893 26.6152 70.39 26.6152 70.8844C26.6152 71.3788 26.2145 71.7796 25.7201 71.7796C25.2257 71.7796 24.8249 71.3788 24.8249 70.8844ZM24.8249 75.6586C24.8249 75.1642 25.2256 74.7634 25.72 74.7634C26.2144 74.7634 26.6152 75.1642 26.6152 75.6586C26.6152 76.153 26.2144 76.5537 25.72 76.5537C25.2256 76.5537 24.8249 76.153 24.8249 75.6586ZM25.72 72.3763C25.2256 72.3763 24.8249 72.7771 24.8249 73.2715C24.8249 73.7659 25.2256 74.1666 25.72 74.1666C26.2144 74.1666 26.6152 73.7659 26.6152 73.2715C26.6152 72.7771 26.2144 72.3763 25.72 72.3763Z" fill="#CCCCCC"/>
<path d="M267.275 28.7447H273.279V30.0061H268.735V32.1903H272.94V33.3817H268.735V35.8228H273.361V37.0842H267.275V28.7447ZM274.446 31.0457H275.707V31.9333L275.73 31.9567C275.933 31.6219 276.198 31.361 276.525 31.1741C276.852 30.9795 277.214 30.8821 277.611 30.8821C278.273 30.8821 278.794 31.0535 279.176 31.3961C279.557 31.7387 279.748 32.2526 279.748 32.9378V37.0842H278.417V33.2882C278.401 32.8132 278.3 32.4706 278.113 32.2604C277.926 32.0424 277.634 31.9333 277.237 31.9333C277.011 31.9333 276.809 31.9762 276.63 32.0618C276.451 32.1397 276.299 32.2526 276.174 32.4005C276.05 32.5407 275.952 32.7081 275.882 32.9028C275.812 33.0975 275.777 33.3038 275.777 33.5218V37.0842H274.446V31.0457ZM286.735 36.7689C286.735 37.6799 286.478 38.3573 285.965 38.8012C285.458 39.2528 284.726 39.4786 283.769 39.4786C283.465 39.4786 283.157 39.4475 282.846 39.3852C282.542 39.3229 282.262 39.2178 282.005 39.0698C281.756 38.9219 281.546 38.7272 281.374 38.4858C281.203 38.2444 281.102 37.9485 281.071 37.5981H282.402C282.441 37.785 282.507 37.9369 282.601 38.0537C282.694 38.1705 282.803 38.26 282.928 38.3223C283.06 38.3924 283.204 38.4352 283.36 38.4508C283.516 38.4741 283.679 38.4858 283.85 38.4858C284.388 38.4858 284.781 38.3535 285.03 38.0887C285.279 37.824 285.404 37.4424 285.404 36.9441V36.0213H285.381C285.194 36.3562 284.937 36.617 284.61 36.8039C284.29 36.9908 283.944 37.0842 283.57 37.0842C283.087 37.0842 282.675 37.0025 282.332 36.8389C281.997 36.6676 281.717 36.4379 281.491 36.1498C281.273 35.8539 281.113 35.5152 281.012 35.1337C280.911 34.7521 280.86 34.3433 280.86 33.9073C280.86 33.5024 280.923 33.1169 281.047 32.7509C281.172 32.385 281.351 32.0657 281.585 31.7932C281.818 31.5129 282.102 31.2909 282.437 31.1274C282.78 30.9639 283.165 30.8821 283.594 30.8821C283.975 30.8821 284.325 30.9639 284.645 31.1274C284.964 31.2832 285.209 31.5323 285.381 31.8749H285.404V31.0457H286.735V36.7689ZM283.78 36.033C284.076 36.033 284.325 35.9746 284.528 35.8578C284.738 35.7332 284.906 35.5736 285.03 35.3789C285.163 35.1765 285.256 34.9507 285.31 34.7015C285.373 34.4445 285.404 34.1876 285.404 33.9306C285.404 33.6737 285.373 33.4245 285.31 33.1831C285.248 32.9417 285.151 32.7276 285.018 32.5407C284.894 32.3538 284.726 32.2059 284.516 32.0969C284.314 31.9879 284.069 31.9333 283.78 31.9333C283.485 31.9333 283.235 31.9956 283.033 32.1202C282.83 32.2448 282.667 32.4083 282.542 32.6108C282.418 32.8055 282.328 33.0313 282.274 33.2882C282.219 33.5374 282.192 33.7866 282.192 34.0357C282.192 34.2849 282.223 34.5302 282.285 34.7716C282.348 35.0052 282.441 35.2154 282.566 35.4023C282.698 35.5892 282.862 35.741 283.056 35.8578C283.259 35.9746 283.5 36.033 283.78 36.033ZM288.111 28.7447H289.443V30.0061H288.111V28.7447ZM288.111 31.0457H289.443V37.0842H288.111V31.0457ZM290.893 31.0457H292.155V31.9333L292.178 31.9567C292.381 31.6219 292.645 31.361 292.972 31.1741C293.299 30.9795 293.661 30.8821 294.059 30.8821C294.72 30.8821 295.242 31.0535 295.624 31.3961C296.005 31.7387 296.196 32.2526 296.196 32.9378V37.0842H294.865V33.2882C294.849 32.8132 294.748 32.4706 294.561 32.2604C294.374 32.0424 294.082 31.9333 293.685 31.9333C293.459 31.9333 293.257 31.9762 293.077 32.0618C292.898 32.1397 292.747 32.2526 292.622 32.4005C292.497 32.5407 292.4 32.7081 292.33 32.9028C292.26 33.0975 292.225 33.3038 292.225 33.5218V37.0842H290.893V31.0457ZM301.747 33.5335C301.731 33.3233 301.684 33.1208 301.606 32.9261C301.536 32.7315 301.435 32.5641 301.303 32.4239C301.178 32.276 301.022 32.1592 300.836 32.0735C300.656 31.9801 300.454 31.9333 300.228 31.9333C299.995 31.9333 299.78 31.9762 299.586 32.0618C299.399 32.1397 299.235 32.2526 299.095 32.4005C298.963 32.5407 298.854 32.7081 298.768 32.9028C298.69 33.0975 298.648 33.3077 298.64 33.5335H301.747ZM298.64 34.4095C298.64 34.6431 298.671 34.8689 298.733 35.0869C298.803 35.305 298.904 35.4957 299.037 35.6593C299.169 35.8228 299.337 35.9552 299.539 36.0564C299.742 36.1498 299.983 36.1965 300.263 36.1965C300.653 36.1965 300.964 36.1148 301.198 35.9513C301.439 35.78 301.618 35.5269 301.735 35.1921H302.996C302.926 35.5191 302.806 35.8111 302.634 36.0681C302.463 36.325 302.257 36.5431 302.015 36.7221C301.774 36.8935 301.501 37.0219 301.198 37.1076C300.902 37.201 300.59 37.2477 300.263 37.2477C299.788 37.2477 299.368 37.1699 299.002 37.0141C298.636 36.8584 298.324 36.6404 298.067 36.3601C297.818 36.0797 297.627 35.7449 297.495 35.3556C297.371 34.9663 297.308 34.538 297.308 34.0708C297.308 33.6425 297.374 33.2376 297.507 32.8561C297.647 32.4667 297.842 32.128 298.091 31.8399C298.348 31.544 298.655 31.3104 299.013 31.1391C299.372 30.9678 299.777 30.8821 300.228 30.8821C300.703 30.8821 301.128 30.9834 301.501 31.1858C301.883 31.3805 302.198 31.6413 302.447 31.9684C302.697 32.2954 302.876 32.6731 302.985 33.1013C303.101 33.5218 303.133 33.9579 303.078 34.4095H298.64ZM308.237 33.5335C308.221 33.3233 308.174 33.1208 308.097 32.9261C308.027 32.7315 307.925 32.5641 307.793 32.4239C307.668 32.276 307.513 32.1592 307.326 32.0735C307.147 31.9801 306.944 31.9333 306.718 31.9333C306.485 31.9333 306.271 31.9762 306.076 32.0618C305.889 32.1397 305.726 32.2526 305.585 32.4005C305.453 32.5407 305.344 32.7081 305.258 32.9028C305.181 33.0975 305.138 33.3077 305.13 33.5335H308.237ZM305.13 34.4095C305.13 34.6431 305.161 34.8689 305.223 35.0869C305.293 35.305 305.395 35.4957 305.527 35.6593C305.659 35.8228 305.827 35.9552 306.029 36.0564C306.232 36.1498 306.473 36.1965 306.753 36.1965C307.143 36.1965 307.454 36.1148 307.688 35.9513C307.929 35.78 308.108 35.5269 308.225 35.1921H309.487C309.416 35.5191 309.296 35.8111 309.124 36.0681C308.953 36.325 308.747 36.5431 308.505 36.7221C308.264 36.8935 307.991 37.0219 307.688 37.1076C307.392 37.201 307.08 37.2477 306.753 37.2477C306.278 37.2477 305.858 37.1699 305.492 37.0141C305.126 36.8584 304.815 36.6404 304.558 36.3601C304.308 36.0797 304.118 35.7449 303.985 35.3556C303.861 34.9663 303.798 34.538 303.798 34.0708C303.798 33.6425 303.865 33.2376 303.997 32.8561C304.137 32.4667 304.332 32.128 304.581 31.8399C304.838 31.544 305.145 31.3104 305.504 31.1391C305.862 30.9678 306.267 30.8821 306.718 30.8821C307.193 30.8821 307.618 30.9834 307.991 31.1858C308.373 31.3805 308.688 31.6413 308.938 31.9684C309.187 32.2954 309.366 32.6731 309.475 33.1013C309.592 33.5218 309.623 33.9579 309.568 34.4095H305.13ZM310.581 31.0457H311.83V32.2137H311.854C311.893 32.0501 311.967 31.8905 312.076 31.7348C312.192 31.5791 312.329 31.4389 312.484 31.3143C312.648 31.1819 312.827 31.0768 313.022 30.9989C313.216 30.9211 313.415 30.8821 313.617 30.8821C313.773 30.8821 313.878 30.886 313.933 30.8938C313.995 30.9016 314.057 30.9094 314.12 30.9172V32.202C314.026 32.1864 313.929 32.1747 313.828 32.1669C313.734 32.1514 313.641 32.1436 313.547 32.1436C313.321 32.1436 313.107 32.1903 312.905 32.2837C312.71 32.3694 312.539 32.5018 312.391 32.6809C312.243 32.8522 312.126 33.0663 312.041 33.3233C311.955 33.5802 311.912 33.8761 311.912 34.2109V37.0842H310.581V31.0457ZM314.722 28.7447H316.053V30.0061H314.722V28.7447ZM314.722 31.0457H316.053V37.0842H314.722V31.0457ZM317.504 31.0457H318.766V31.9333L318.789 31.9567C318.991 31.6219 319.256 31.361 319.583 31.1741C319.91 30.9795 320.272 30.8821 320.669 30.8821C321.331 30.8821 321.853 31.0535 322.235 31.3961C322.616 31.7387 322.807 32.2526 322.807 32.9378V37.0842H321.475V33.2882C321.46 32.8132 321.359 32.4706 321.172 32.2604C320.985 32.0424 320.693 31.9333 320.296 31.9333C320.07 31.9333 319.867 31.9762 319.688 32.0618C319.509 32.1397 319.357 32.2526 319.233 32.4005C319.108 32.5407 319.011 32.7081 318.941 32.9028C318.871 33.0975 318.836 33.3038 318.836 33.5218V37.0842H317.504V31.0457ZM329.794 36.7689C329.794 37.6799 329.537 38.3573 329.023 38.8012C328.517 39.2528 327.785 39.4786 326.827 39.4786C326.524 39.4786 326.216 39.4475 325.905 39.3852C325.601 39.3229 325.321 39.2178 325.064 39.0698C324.814 38.9219 324.604 38.7272 324.433 38.4858C324.262 38.2444 324.16 37.9485 324.129 37.5981H325.461C325.5 37.785 325.566 37.9369 325.659 38.0537C325.753 38.1705 325.862 38.26 325.986 38.3223C326.119 38.3924 326.263 38.4352 326.419 38.4508C326.574 38.4741 326.738 38.4858 326.909 38.4858C327.446 38.4858 327.84 38.3535 328.089 38.0887C328.338 37.824 328.463 37.4424 328.463 36.9441V36.0213H328.439C328.252 36.3562 327.995 36.617 327.668 36.8039C327.349 36.9908 327.003 37.0842 326.629 37.0842C326.146 37.0842 325.733 37.0025 325.391 36.8389C325.056 36.6676 324.776 36.4379 324.55 36.1498C324.332 35.8539 324.172 35.5152 324.071 35.1337C323.97 34.7521 323.919 34.3433 323.919 33.9073C323.919 33.5024 323.981 33.1169 324.106 32.7509C324.23 32.385 324.41 32.0657 324.643 31.7932C324.877 31.5129 325.161 31.2909 325.496 31.1274C325.838 30.9639 326.224 30.8821 326.652 30.8821C327.034 30.8821 327.384 30.9639 327.703 31.1274C328.023 31.2832 328.268 31.5323 328.439 31.8749H328.463V31.0457H329.794V36.7689ZM326.839 36.033C327.135 36.033 327.384 35.9746 327.587 35.8578C327.797 35.7332 327.964 35.5736 328.089 35.3789C328.221 35.1765 328.315 34.9507 328.369 34.7015C328.431 34.4445 328.463 34.1876 328.463 33.9306C328.463 33.6737 328.431 33.4245 328.369 33.1831C328.307 32.9417 328.209 32.7276 328.077 32.5407C327.952 32.3538 327.785 32.2059 327.575 32.0969C327.372 31.9879 327.127 31.9333 326.839 31.9333C326.543 31.9333 326.294 31.9956 326.091 32.1202C325.889 32.2448 325.726 32.4083 325.601 32.6108C325.476 32.8055 325.387 33.0313 325.332 33.2882C325.278 33.5374 325.251 33.7866 325.251 34.0357C325.251 34.2849 325.282 34.5302 325.344 34.7716C325.406 35.0052 325.5 35.2154 325.624 35.4023C325.757 35.5892 325.92 35.741 326.115 35.8578C326.317 35.9746 326.559 36.033 326.839 36.033Z" fill="#303030"/>
<path d="M498.565 28.8514H502.023C502.661 28.8514 503.214 28.9604 503.681 29.1784C504.148 29.3965 504.53 29.6963 504.826 30.0778C505.122 30.4516 505.34 30.8915 505.48 31.3976C505.628 31.9038 505.702 32.4449 505.702 33.0212C505.702 33.5974 505.628 34.1385 505.48 34.6447C505.34 35.1508 505.122 35.5947 504.826 35.9762C504.53 36.35 504.148 36.6459 503.681 36.8639C503.214 37.0819 502.661 37.1909 502.023 37.1909H498.565V28.8514ZM500.025 35.9996H501.462C502.03 35.9996 502.494 35.9256 502.852 35.7776C503.218 35.6219 503.502 35.4117 503.705 35.1469C503.915 34.8744 504.055 34.559 504.125 34.2008C504.203 33.8349 504.242 33.4416 504.242 33.0212C504.242 32.6007 504.203 32.2113 504.125 31.8532C504.055 31.4872 503.915 31.1718 503.705 30.9071C503.502 30.6345 503.218 30.4243 502.852 30.2764C502.494 30.1206 502.03 30.0428 501.462 30.0428H500.025V35.9996ZM510.954 33.6402C510.939 33.43 510.892 33.2275 510.814 33.0328C510.744 32.8382 510.643 32.6708 510.51 32.5306C510.386 32.3827 510.23 32.2659 510.043 32.1802C509.864 32.0868 509.662 32.04 509.436 32.04C509.202 32.04 508.988 32.0829 508.793 32.1685C508.606 32.2464 508.443 32.3593 508.303 32.5072C508.17 32.6474 508.061 32.8148 507.976 33.0095C507.898 33.2041 507.855 33.4144 507.847 33.6402H510.954ZM507.847 34.5162C507.847 34.7498 507.878 34.9756 507.941 35.1936C508.011 35.4117 508.112 35.6024 508.244 35.766C508.377 35.9295 508.544 36.0619 508.747 36.1631C508.949 36.2565 509.19 36.3032 509.471 36.3032C509.86 36.3032 510.172 36.2215 510.405 36.058C510.647 35.8867 510.826 35.6336 510.942 35.2988H512.204C512.134 35.6258 512.013 35.9178 511.842 36.1748C511.671 36.4317 511.464 36.6497 511.223 36.8288C510.981 37.0001 510.709 37.1286 510.405 37.2143C510.109 37.3077 509.798 37.3544 509.471 37.3544C508.996 37.3544 508.575 37.2766 508.209 37.1208C507.843 36.9651 507.532 36.7471 507.275 36.4668C507.026 36.1864 506.835 35.8516 506.703 35.4623C506.578 35.0729 506.516 34.6447 506.516 34.1775C506.516 33.7492 506.582 33.3443 506.714 32.9628C506.854 32.5734 507.049 32.2347 507.298 31.9466C507.555 31.6507 507.863 31.4171 508.221 31.2458C508.579 31.0745 508.984 30.9888 509.436 30.9888C509.911 30.9888 510.335 31.0901 510.709 31.2925C511.09 31.4872 511.406 31.748 511.655 32.0751C511.904 32.4021 512.083 32.7798 512.192 33.208C512.309 33.6285 512.34 34.0646 512.286 34.5162H507.847ZM514.302 35.252C514.341 35.6414 514.489 35.9139 514.746 36.0696C515.003 36.2254 515.311 36.3032 515.669 36.3032C515.794 36.3032 515.934 36.2955 516.089 36.2799C516.253 36.2565 516.405 36.2176 516.545 36.1631C516.685 36.1086 516.798 36.0307 516.884 35.9295C516.977 35.8205 517.02 35.6803 517.012 35.509C517.004 35.3377 516.942 35.1975 516.825 35.0885C516.708 34.9795 516.557 34.8939 516.37 34.8316C516.191 34.7615 515.984 34.7031 515.751 34.6564C515.517 34.6096 515.28 34.559 515.038 34.5045C514.789 34.45 514.548 34.3838 514.314 34.306C514.088 34.2281 513.882 34.123 513.695 33.9906C513.516 33.8582 513.372 33.6908 513.263 33.4884C513.154 33.2781 513.099 33.0212 513.099 32.7175C513.099 32.3904 513.177 32.1179 513.333 31.8999C513.496 31.6741 513.699 31.495 513.94 31.3626C514.189 31.2224 514.462 31.1251 514.758 31.0706C515.062 31.0161 515.35 30.9888 515.622 30.9888C515.934 30.9888 516.23 31.0239 516.51 31.094C516.798 31.1563 517.055 31.2614 517.281 31.4093C517.514 31.5573 517.705 31.7519 517.853 31.9933C518.009 32.2269 518.106 32.5111 518.145 32.846H516.755C516.693 32.5267 516.545 32.3126 516.311 32.2036C516.086 32.0945 515.825 32.04 515.529 32.04C515.435 32.04 515.322 32.0478 515.19 32.0634C515.065 32.079 514.945 32.1101 514.828 32.1568C514.719 32.1958 514.626 32.2581 514.548 32.3437C514.47 32.4216 514.431 32.5267 514.431 32.6591C514.431 32.8226 514.485 32.955 514.594 33.0562C514.711 33.1574 514.859 33.2431 515.038 33.3132C515.225 33.3755 515.435 33.43 515.669 33.4767C515.903 33.5234 516.144 33.574 516.393 33.6285C516.634 33.683 516.872 33.7492 517.106 33.8271C517.339 33.9049 517.546 34.0101 517.725 34.1424C517.912 34.2748 518.059 34.4422 518.168 34.6447C518.285 34.8471 518.344 35.0963 518.344 35.3922C518.344 35.7504 518.262 36.0541 518.098 36.3032C517.935 36.5524 517.721 36.7549 517.456 36.9106C517.199 37.0663 516.911 37.1792 516.592 37.2493C516.272 37.3194 515.957 37.3544 515.646 37.3544C515.264 37.3544 514.91 37.3116 514.583 37.226C514.263 37.1403 513.983 37.0118 513.742 36.8405C513.508 36.6614 513.321 36.4434 513.181 36.1864C513.049 35.9217 512.979 35.6102 512.971 35.252H514.302ZM519.39 28.8514H520.721V30.1128H519.39V28.8514ZM519.39 31.1524H520.721V37.1909H519.39V31.1524ZM527.755 36.8756C527.755 37.7866 527.498 38.464 526.984 38.9079C526.478 39.3595 525.746 39.5853 524.788 39.5853C524.485 39.5853 524.177 39.5542 523.866 39.4919C523.562 39.4296 523.282 39.3245 523.025 39.1765C522.775 39.0286 522.565 38.8339 522.394 38.5925C522.223 38.3511 522.121 38.0552 522.09 37.7048H523.422C523.461 37.8917 523.527 38.0436 523.62 38.1604C523.714 38.2772 523.823 38.3667 523.947 38.429C524.08 38.4991 524.224 38.5419 524.379 38.5575C524.535 38.5808 524.699 38.5925 524.87 38.5925C525.407 38.5925 525.801 38.4601 526.05 38.1954C526.299 37.9307 526.423 37.5491 526.423 37.0508V36.128H526.4C526.213 36.4629 525.956 36.7237 525.629 36.9106C525.31 37.0975 524.963 37.1909 524.59 37.1909C524.107 37.1909 523.694 37.1092 523.352 36.9456C523.017 36.7743 522.737 36.5446 522.511 36.2565C522.293 35.9606 522.133 35.6219 522.032 35.2404C521.931 34.8588 521.88 34.45 521.88 34.014C521.88 33.6091 521.942 33.2236 522.067 32.8576C522.191 32.4917 522.371 32.1724 522.604 31.8999C522.838 31.6196 523.122 31.3976 523.457 31.2341C523.799 31.0706 524.185 30.9888 524.613 30.9888C524.995 30.9888 525.345 31.0706 525.664 31.2341C525.984 31.3899 526.229 31.639 526.4 31.9816H526.423V31.1524H527.755V36.8756ZM524.8 36.1397C525.096 36.1397 525.345 36.0813 525.547 35.9645C525.758 35.8399 525.925 35.6803 526.05 35.4856C526.182 35.2832 526.276 35.0574 526.33 34.8082C526.392 34.5512 526.423 34.2943 526.423 34.0373C526.423 33.7804 526.392 33.5312 526.33 33.2898C526.268 33.0484 526.17 32.8343 526.038 32.6474C525.913 32.4605 525.746 32.3126 525.536 32.2036C525.333 32.0945 525.088 32.04 524.8 32.04C524.504 32.04 524.255 32.1023 524.052 32.2269C523.85 32.3515 523.686 32.515 523.562 32.7175C523.437 32.9121 523.348 33.138 523.293 33.3949C523.239 33.6441 523.211 33.8933 523.211 34.1424C523.211 34.3916 523.243 34.6369 523.305 34.8783C523.367 35.1119 523.461 35.3221 523.585 35.509C523.718 35.6959 523.881 35.8477 524.076 35.9645C524.278 36.0813 524.52 36.1397 524.8 36.1397ZM529.096 31.1524H530.357V32.04L530.38 32.0634C530.583 31.7286 530.848 31.4677 531.175 31.2808C531.502 31.0862 531.864 30.9888 532.261 30.9888C532.923 30.9888 533.444 31.1601 533.826 31.5028C534.208 31.8454 534.398 32.3593 534.398 33.0445V37.1909H533.067V33.3949C533.051 32.9199 532.95 32.5773 532.763 32.3671C532.576 32.1491 532.284 32.04 531.887 32.04C531.661 32.04 531.459 32.0829 531.28 32.1685C531.101 32.2464 530.949 32.3593 530.824 32.5072C530.7 32.6474 530.602 32.8148 530.532 33.0095C530.462 33.2041 530.427 33.4105 530.427 33.6285V37.1909H529.096V31.1524Z" fill="#303030"/>
<path fill-rule="evenodd" clip-rule="evenodd" d="M252.535 34.9505C252.535 34.4562 252.936 34.0554 253.43 34.0554C253.924 34.0554 254.325 34.4562 254.325 34.9505C254.325 35.4449 253.924 35.8457 253.43 35.8457C252.936 35.8457 252.535 35.4449 252.535 34.9505ZM252.534 30.1764C252.534 29.682 252.935 29.2812 253.43 29.2812C253.924 29.2812 254.325 29.682 254.325 30.1764C254.325 30.6708 253.924 31.0716 253.43 31.0716C252.935 31.0716 252.534 30.6708 252.534 30.1764ZM253.43 31.6683C252.936 31.6683 252.535 32.0691 252.535 32.5635C252.535 33.0578 252.936 33.4586 253.43 33.4586C253.924 33.4586 254.325 33.0578 254.325 32.5635C254.325 32.0691 253.924 31.6683 253.43 31.6683Z" fill="#CCCCCC"/>
<path fill-rule="evenodd" clip-rule="evenodd" d="M254.922 34.9505C254.922 34.4562 255.322 34.0554 255.817 34.0554C256.311 34.0554 256.712 34.4562 256.712 34.9505C256.712 35.4449 256.311 35.8457 255.817 35.8457C255.322 35.8457 254.922 35.4449 254.922 34.9505ZM254.921 30.1764C254.921 29.682 255.322 29.2812 255.816 29.2812C256.311 29.2812 256.711 29.682 256.711 30.1764C256.711 30.6708 256.311 31.0716 255.816 31.0716C255.322 31.0716 254.921 30.6708 254.921 30.1764ZM255.817 31.6683C255.322 31.6683 254.922 32.0691 254.922 32.5635C254.922 33.0578 255.322 33.4586 255.817 33.4586C256.311 33.4586 256.712 33.0578 256.712 32.5635C256.712 32.0691 256.311 31.6683 255.817 31.6683Z" fill="#CCCCCC"/>
<defs>
<filter id="filter0_d" x="0.868687" y="0.934832" width="229.67" height="215.049" filterUnits="userSpaceOnUse" color-interpolation-filters="sRGB">
<feFlood flood-opacity="0" result="BackgroundImageFix"/>
<feColorMatrix in="SourceAlpha" type="matrix" values="0 0 0 0 0 0 0 0 0 0 0 0 0 0 0 0 0 0 127 0"/>
<feOffset dy="1.06566"/>
<feGaussianBlur stdDeviation="1.06566"/>
<feColorMatrix type="matrix" values="0 0 0 0 0 0 0 0 0 0 0 0 0 0 0 0 0 0 0.0796547 0"/>
<feBlend mode="normal" in2="BackgroundImageFix" result="effect1_dropShadow"/>
<feBlend mode="normal" in="SourceGraphic" in2="effect1_dropShadow" result="shape"/>
</filter>
<filter id="filter1_d" x="232.031" y="2.85304" width="229.67" height="164.964" filterUnits="userSpaceOnUse" color-interpolation-filters="sRGB">
<feFlood flood-opacity="0" result="BackgroundImageFix"/>
<feColorMatrix in="SourceAlpha" type="matrix" values="0 0 0 0 0 0 0 0 0 0 0 0 0 0 0 0 0 0 127 0"/>
<feOffset dy="1.06566"/>
<feGaussianBlur stdDeviation="1.06566"/>
<feColorMatrix type="matrix" values="0 0 0 0 0 0 0 0 0 0 0 0 0 0 0 0 0 0 0.0796547 0"/>
<feBlend mode="normal" in2="BackgroundImageFix" result="effect1_dropShadow"/>
<feBlend mode="normal" in="SourceGraphic" in2="effect1_dropShadow" result="shape"/>
</filter>
<filter id="filter2_d" x="463.321" y="2.95949" width="229.67" height="150.044" filterUnits="userSpaceOnUse" color-interpolation-filters="sRGB">
<feFlood flood-opacity="0" result="BackgroundImageFix"/>
<feColorMatrix in="SourceAlpha" type="matrix" values="0 0 0 0 0 0 0 0 0 0 0 0 0 0 0 0 0 0 127 0"/>
<feOffset dy="1.06566"/>
<feGaussianBlur stdDeviation="1.06566"/>
<feColorMatrix type="matrix" values="0 0 0 0 0 0 0 0 0 0 0 0 0 0 0 0 0 0 0.0796547 0"/>
<feBlend mode="normal" in2="BackgroundImageFix" result="effect1_dropShadow"/>
<feBlend mode="normal" in="SourceGraphic" in2="effect1_dropShadow" result="shape"/>
</filter>
</defs>
</svg>
