<?xml version="1.0" encoding="utf-8"?>
<!-- Generator: Adobe Illustrator 22.1.0, SVG Export Plug-In . SVG Version: 6.00 Build 0)  -->
<svg version="1.1" xmlns="http://www.w3.org/2000/svg" xmlns:xlink="http://www.w3.org/1999/xlink" x="0px" y="0px"
	 viewBox="0 0 1026.4 975.6" style="enable-background:new 0 0 1026.4 975.6;" xml:space="preserve">
<style type="text/css">
	.st0{fill:#D5E0EA;}
	.st1{fill:#FFFFFF;}
	.st2{fill:#F714FF;}
	.st3{fill:#1F0D60;}
	.st4{fill:#FF0036;}
	.st5{fill:#00B7EA;}
	.st6{fill:#003FFF;}
</style>
<g id="background_2_">
	<g id="background_1_">
		<path id="semicircle" class="st0" d="M1026.4,185.7c-50.9,140.4-208.4,214-348.7,163c-140.4-50.9-214-208.4-163-348.7
			C685.3,61.9,855.9,123.8,1026.4,185.7z"/>
		<path id="background" class="st1" d="M839,480.9c0,33.9-4,66.8-11.6,98.3c-5.5,22.9-13,45.1-22.1,66.4c-0.5,1.1-0.9,2.2-1.4,3.2
			c-4.1,9.4-8.6,18.6-13.4,27.6c-43.3,81.7-113,147.3-197.7,185.6c-1.2,0.6-2.5,1.1-3.8,1.7c-51.4,22.6-108.3,35.2-168,35.2
			c-114,0-217.3-45.6-292.8-119.7c-6.2-6.1-12.2-12.3-18-18.7c-0.7-0.8-1.4-1.5-2-2.3C68,712.8,37.5,658.7,20,599
			C8.9,561.5,3,521.9,3,480.9c0-26.3,2.4-52,7.1-76.9c11.7-62.8,37.4-120.7,73.8-170.2c27.3-37.3,60.8-69.8,98.7-96.2
			c54.5-37.9,118.5-63.2,187.8-71.5c4.6-0.6,9.2-1,13.8-1.4c12.1-1.1,24.4-1.6,36.9-1.6c77.5,0,150.1,21.1,212.3,57.8
			c48.6,28.7,90.9,67,124.2,112.2c21.5,29.1,39.2,61,52.6,95.2c1.9,4.8,3.7,9.8,5.5,14.7C830.8,386,839,432.5,839,480.9z"/>
		<path id="frame" class="st2" d="M816.5,343.3c-1.7-5-3.6-9.9-5.5-14.8c-13.3-34-31.1-66.1-52.9-95.6
			c-33.8-45.8-75.8-83.8-124.8-112.7c-64.4-38-138.2-58.1-213.3-58.1c-12.4,0-24.8,0.5-37,1.6c-5,0.4-9.5,0.9-13.8,1.4
			c-67.5,8.1-132.7,33-188.7,71.9c-38.2,26.6-71.6,59.1-99.2,96.7c-37.1,50.5-62.8,109.7-74.2,171C2.4,430.1,0,456.1,0,482.1
			c0,40.4,5.7,80.3,17,118.6c17.2,58.7,47.9,114,88.7,160c0.6,0.7,1.2,1.3,1.8,2c6,6.6,12.1,13.1,18.3,19.1
			c29.5,29,63,53.4,99.6,72.5c0.3,0.2,0.6,0.2,0.9,0.2c0.7,0,1.4-0.4,1.8-1.1c0.5-1,0.1-2.2-0.8-2.7c-36.2-19-69.4-43.1-98.6-71.9
			c-6.2-6-12.3-12.4-18.2-19c-0.1-0.2-0.3-0.3-0.4-0.5c-0.5-0.5-0.9-1-1.3-1.5c-40.4-45.5-70.8-100.3-87.9-158.4
			C9.7,561.6,4,522.1,4,482.1c0-25.7,2.4-51.5,7-76.6c11.3-60.8,36.7-119.4,73.4-169.4c27.3-37.2,60.4-69.4,98.3-95.8
			c55.4-38.5,120-63.2,186.9-71.2c4.3-0.5,8.8-1,13.7-1.4c12.1-1.1,24.4-1.6,36.7-1.6c74.5,0,147.5,19.9,211.3,57.6
			c48.5,28.7,90.1,66.2,123.6,111.6c21.6,29.2,39.2,61.1,52.4,94.7c1.9,4.8,3.7,9.7,5.4,14.6C828.2,388.7,836,435,836,482.1
			c0,33.1-3.9,66-11.6,97.8c-5.4,22.5-12.8,44.8-22,66.1c-0.3,0.8-0.7,1.7-1.1,2.5c-4.1,9.5-8.7,19-13.6,28.2
			c-20,37.7-45.6,72-76.2,102c-30.6,30-65.4,55.1-103.4,74.4c-1,0.5-1.4,1.7-0.9,2.7v0c0.4,0.7,1.1,1.1,1.8,1.1
			c0.3,0,0.6-0.1,0.9-0.2c38.4-19.5,73.6-44.8,104.4-75.1c30.8-30.3,56.7-65,76.9-103c5.4-10.2,10.4-20.6,14.8-31
			c9.2-21.5,16.7-44,22.2-66.8c7.8-32.2,11.7-65.4,11.7-98.8C840,434.5,832.1,387.8,816.5,343.3z"/>
		<g id="lines">
			<path class="st2" d="M789.5,679.7c-0.7,0-1.4-0.4-1.8-1c-8-14.5-12.9-32.4-18-51.5c-5-18.6-10.2-37.8-18.7-54.6
				c-9.5-18.8-22-31.9-38.2-40.1c-10.5-5.3-19.5-8.6-31.5-8.6c-0.1,0-0.2,0-0.2,0c-36.4,0-79.9,21.8-121.4,45.3
				c-10.2,5.8-20.5,11.8-30.4,17.6c-12.4,7.3-25.3,14.8-37.6,21.6c-24.6,13.7-53.2,28.3-77.8,32.5c-25.3,4.3-43.1-2.9-54.5-22
				c-22.3-37.4-27.3-73.2-14.2-103.5c18.2-42.4,69.6-73.2,152.6-91.8c11.6-2.6,23.9-4.9,36.5-7c9.7-1.6,19.9-3.1,30.3-4.4
				c63.1-7.9,111.8-31.7,144.6-70.9c24-28.7,39.3-64.9,45.4-107.6c0.2-1.1,1.2-1.9,2.3-1.7c1.1,0.2,1.9,1.2,1.7,2.3
				c-6.2,43.5-21.7,80.4-46.3,109.6c-33.5,39.9-83,64.3-147.2,72.3c-10.3,1.3-20.5,2.7-30.1,4.3c-12.6,2.1-24.8,4.4-36.3,7
				c-42.4,9.5-76.8,22.4-102.2,38.3c-23.2,14.5-39.2,31.8-47.6,51.2c-12.5,29.1-7.7,63.6,14,99.9c21.8,36.5,66.5,21.7,126.9-11.9
				c12.2-6.8,24.5-14,37.5-21.6c10-5.8,20.3-11.9,30.5-17.6c42-23.8,86-45.9,123.4-45.9c0.1,0,0.2,0,0.2,0c12.8,0,22.5,3.6,33.3,9
				c17,8.5,30,22.2,40,41.8c8.7,17.2,13.9,36.6,19,55.4c5.1,18.8,9.9,36.5,17.7,50.6c0.5,1,0.2,2.2-0.8,2.7
				C790.2,679.7,789.8,679.7,789.5,679.7z"/>
			<path class="st2" d="M18.9,602.2c-0.3,0-0.7-0.1-1-0.3c-1-0.6-1.3-1.8-0.7-2.7c23.5-41,54.2-78,70.4-96.4
				c8.8-10,14.5-15.9,14.5-15.9c0.8-0.8,2-0.8,2.8,0c0.8,0.8,0.8,2,0,2.8c-0.1,0.1-5.7,5.9-14.4,15.8
				c-16.1,18.3-46.5,55.1-69.9,95.7C20.3,601.8,19.6,602.2,18.9,602.2z"/>
			<path class="st2" d="M127.2,782.4c-0.7,0-1.3-0.3-1.7-1c-0.6-0.9-0.3-2.2,0.7-2.7c12.9-7.7,21.6-21,26.1-39.6
				c13.3-54.9-13.4-151.1-65-233.9c-18.5-29.7-38.9-55.7-60.6-77.2c-7-7-13.5-14.2-19.2-21.6c-0.7-0.9-0.5-2.1,0.3-2.8
				c0.9-0.7,2.1-0.5,2.8,0.3c5.6,7.2,12,14.3,18.9,21.2c21.9,21.7,42.5,48,61.2,78c24.9,40,45.1,85.2,57,127.2
				c12.3,43.8,15.3,81.7,8.5,109.7c-4.8,19.7-14.2,33.8-28,42.1C127.9,782.3,127.6,782.4,127.2,782.4z"/>
			<path class="st2" d="M826.4,582.4c-0.4,0-0.8-0.1-1.2-0.4c-22.9-17.2-40.9-35.7-53.7-54.9c-22.6-34.1-29-70.8-19-108.9
				c10.3-39.5,35.8-70.9,55.3-90.3c0.8-0.8,2-0.8,2.8,0c0.8,0.8,0.8,2,0,2.8c-19.2,19.1-44.1,49.9-54.2,88.5
				c-9.7,37-3.5,72.5,18.5,105.7c12.5,18.9,30.2,37,52.7,53.9c0.9,0.7,1.1,1.9,0.4,2.8C827.6,582.2,827,582.4,826.4,582.4z"/>
			<path class="st2" d="M671.8,628.3c-22,0-47.2-7.3-76.3-21.8c-15.5-7.7-28.4-20.5-38.6-38c-20-34.6-28.4-86.5-24.3-150
				c6.5-101.1,44-215.1,98-297.7c0.6-0.9,1.8-1.2,2.8-0.6c0.9,0.6,1.2,1.8,0.6,2.8c-53.6,82-90.9,195.3-97.4,295.7
				c-4,62.7,4.2,113.8,23.8,147.8c9.7,16.8,22.1,29.1,36.9,36.4c37.4,18.6,67.7,25,92.6,19.5c24.3-5.3,44.3-22.3,61.1-51.7
				c7.3-12.7,13.9-27.6,20.3-45.4c15-42,27.7-98,41.4-181.7c0.2-1.1,1.2-1.8,2.3-1.7c1.1,0.2,1.8,1.2,1.7,2.3
				c-13.7,83.9-26.5,140.1-41.6,182.4c-6.4,18-13.2,33.1-20.5,46C733.2,610,706.6,628.3,671.8,628.3z"/>
			<path class="st2" d="M486.7,610.1c-4.6,0-10.5-2.5-15.6-5C335.2,538.8,267,505.5,242.9,473.4C213.4,434,198,354,190.2,293.7
				c-2.5-19.5-4.5-38.5-6-56.2c-43.3-2.9-78.8-2-101.2-0.6c-1.1,0.1-2.1-0.8-2.1-1.9c-0.1-1.1,0.8-2.1,1.9-2.1
				c22.5-1.4,57.9-2.3,101.1,0.6c-3.8-46.2-4.4-82.7-4.3-94.8c0-1.1,0.9-2,2-2c1.1,0,2,0.9,2,2c-0.2,12.2,0.5,48.8,4.3,95.1
				c0.5,0,1.1,0.1,1.6,0.1c26.3,1.9,51.6,5.2,75.1,9.7c75.1,14.3,133.9,41,174.8,79.4c29.8,27.9,50.2,62.3,60.7,102.1
				c13.1,49.8,11.1,109.4-6.2,177c0,0,0,0.2,0,0.4c0,1.3,0,3.8-1.9,5.7C490.7,609.6,488.8,610.1,486.7,610.1z M188.3,237.8
				c1.5,17.4,3.4,36.1,5.9,55.4c7.7,59.8,23,139.1,52,177.8c23.5,31.4,91.4,64.5,226.7,130.6c11.8,5.8,15.4,4.9,16.4,3.8
				c0.7-0.7,0.7-1.9,0.7-2.9c0-0.5,0-1,0.1-1.4c17.1-66.9,19.1-125.8,6.2-175c-10.3-39.1-30.3-72.8-59.5-100.2
				c-40.4-37.9-98.6-64.3-172.9-78.4c-23.4-4.5-48.5-7.7-74.7-9.6C188.9,237.9,188.6,237.9,188.3,237.8z"/>
			<path class="st2" d="M395.8,364.9c-37.5,0-76.6-12.8-103.2-43.2c-30.3-34.7-30.4-74.4-30.4-76.1c0.4-56.3,31.5-97.6,60.6-132
				c8.5-10.1,18.5-19.8,29.6-28.9c-4.1-4.2-9.5-7.7-16-10.5c-1-0.4-1.5-1.6-1-2.6c0.4-1,1.6-1.5,2.6-1c7.1,3.1,13,7,17.6,11.7
				c11.9-9.5,20.4-14.6,20.5-14.6c2-1.2,4.1-2.4,6.1-3.5c1-0.5,2.2-0.2,2.7,0.8c0.5,1,0.2,2.2-0.8,2.7c-2,1.1-4,2.3-6,3.5
				c-0.1,0.1-8.5,5.1-19.9,14.2c1.1,1.4,2.2,2.9,3.1,4.4c7.7,12.7,5.3,24.7,2.9,36.2c-2.1,10.5-4.1,20.5,1,31.2
				c12.5,26.4,55.5,28.3,97,30.1c40.9,1.8,79.5,3.5,90.7,27.6c14.1,30.4-25,77.2-37.8,92.6l-0.7,0.8c-7.5,9-27.4,32.9-61.4,46.3
				C436,361.1,416.1,364.9,395.8,364.9z M355.1,87.7c-11,9-20.8,18.6-29.2,28.5c-28.6,33.8-59.2,74.5-59.6,129.4
				c-0.1,13.7,5.9,46.6,29.4,73.5c39.8,45.5,108.6,50.3,156,31.6c33-13,52.5-36.4,59.8-45.2l0.7-0.8c33.3-40,45.8-69.7,37.2-88.3
				c-10.1-21.9-47.6-23.6-87.2-25.3c-42.7-1.9-86.9-3.8-100.5-32.4c-5.6-11.9-3.4-22.9-1.3-33.7c2.3-11.3,4.4-22-2.4-33.4
				C357,90.2,356.1,88.9,355.1,87.7z"/>
		</g>
	</g>
</g>
<g id="general_1_">
	<g id="general">
		<g id="pencil">
			<path class="st3" d="M174,325.2c-4.3-1.7-9.4-0.1-12,3.9l-2.5,6l-17.4,41.2L130,404.9l-20.9,49.4l18.1,7.7l7.2-16.9l16.5-39.1
				c-3-1-5.4-3.2-6.8-6c-1.1-2.3-1.5-4.9-0.8-7.6c1.2-5.3,6-8.9,11.2-8.9c0.9,0,1.7,0.1,2.6,0.3l2.8,0.7l7.2-17l10.6-25.1l2.4-5.7
				C181.2,331.9,178.6,327,174,325.2z"/>
			<path class="st0" d="M127.2,462c-4.5,5-8.9,9.9-13.4,14.8c-3.4,3.8-6.9,7.6-10.3,11.4c0.8-5,1.6-9.9,2.4-14.8
				c1-6.4,2.1-12.7,3.1-19.1c2.8-1,5.5-2,8.3-2.9c0.2,1.7,0.4,3.4,0.6,5.1c2.1-3,4.1-6,6.2-9.1C125.2,452.3,126.2,457.2,127.2,462z"
				/>
			<path class="st2" d="M180.2,336.8l-2.4,5.7l-18.2-7.3l2.5-6c2.6-4,7.7-5.6,12-3.9C178.6,327,181.2,331.9,180.2,336.8z"/>
			<path class="st0" d="M177.8,343.5c-0.1,0-0.2,0-0.4-0.1l-18.2-7.3c-0.5-0.2-0.8-0.8-0.6-1.3c0.2-0.5,0.8-0.8,1.3-0.6l18.2,7.3
				c0.5,0.2,0.8,0.8,0.6,1.3C178.5,343.2,178.2,343.5,177.8,343.5z"/>
			<path class="st0" d="M176.1,347.6c-0.1,0-0.2,0-0.4-0.1l-18.2-7.3c-0.5-0.2-0.8-0.8-0.6-1.3c0.2-0.5,0.8-0.8,1.3-0.6l18.2,7.3
				c0.5,0.2,0.8,0.8,0.6,1.3C176.9,347.4,176.5,347.6,176.1,347.6z"/>
			<path class="st3" d="M113.8,476.9c-3.4,3.8-6.9,7.6-10.3,11.4c0.8-5,1.6-9.9,2.4-14.8L113.8,476.9z"/>
		</g>
		<g id="head">
			<path id="face" class="st4" d="M570.6,429.3c2.2-11.3,4.4-22.6,6.5-33.9c-7.5,1.9-17.6,3.1-26.3-1.9c-24.8-14.2-8-62.3-28-81
				c-12.8-12-42.3-13.5-110.7,20.8c-6.7,20.5-8.4,39.8-9.3,50.2c-1,11.7-7.8,91.2,36,116c8,4.5,16.8,6.8,25.8,7.2
				c-0.3,7.1-0.9,23.2-1.7,40.2c-0.9,21.8-1.9,45.2-2.3,53.6c35.1-23,70.1-46,105.2-68.9c0-0.3,0-0.7,0.1-1c0.5-8.9,1-17.7,1.5-26.6
				c0.8-13.4,1.5-26.8,2.3-40.2c0.4-6.9,0.8-13.8,1.2-20.7c0-2.1-0.1-4.1-0.3-6.1c0-0.2,0-0.3,0-0.5c0.1-0.7,0.2-1.3,0.3-1.9
				C570.9,432.8,570.8,431,570.6,429.3z"/>
			<path id="nose" d="M458.9,427.5c0,0-0.1,0-0.1,0l-26-3c-0.3,0-0.6-0.2-0.7-0.5c-0.2-0.3-0.2-0.6-0.1-0.8l18-56
				c0.2-0.5,0.7-0.8,1.3-0.6c0.5,0.2,0.8,0.7,0.6,1.3l-17.6,54.8l24.8,2.9c0.5,0.1,0.9,0.6,0.9,1.1
				C459.8,427.2,459.4,427.5,458.9,427.5z"/>
			<g id="brows">
				
					<ellipse transform="matrix(4.491035e-02 -0.999 0.999 4.491035e-02 132.4812 825.901)" cx="498.2" cy="343.7" rx="5.2" ry="22.7"/>
				<ellipse transform="matrix(0.2349 -0.972 0.972 0.2349 -25.2267 681.2795)" cx="420.2" cy="356.7" rx="5.2" ry="22.7"/>
			</g>
			<g id="glasses">
				<circle class="st5" cx="485.1" cy="391.1" r="31.3"/>
				<path d="M575.3,389.3c-0.9,0.5-1.7,1-2.5,1.6l-63.4-11.8c-0.5-0.1-0.9-0.6-0.8-1.2c0.1-0.5,0.6-0.9,1.2-0.8L575.3,389.3z"/>
				<path class="st1" d="M489.8,402.9c-0.3-0.7-0.7-1.3-1.1-1.9c-0.8-1.3-1.7-2.3-2.6-3.2c-2.1-2-4.4-3.3-6.7-4.6
					c-3.2-1.8-6.3-3.5-8.6-7.1c-3.3-5.1-3.8-12.2-1.4-21.1c0-0.1,0-0.2,0-0.2v0c0-0.6-0.5-1-1-1c-0.5,0-0.9,0.3-1,0.8
					c-2.5,9.5-1.9,17.1,1.7,22.7c2.6,4,6,6,9.4,7.8c3.3,1.8,6.3,3.5,8.6,7.2c3.1,4.9,3.6,11.5,1.6,19.7c0,0.1,0,0.2,0,0.2
					c0,0.5,0.5,1,1,1c0.5,0,0.9-0.3,1-0.8C492.5,414.5,492.2,408.1,489.8,402.9z"/>
				<circle class="st5" cx="407" cy="387.9" r="31.3"/>
				<path class="st1" d="M412.8,401c-0.3-0.7-0.7-1.3-1.1-2c-0.8-1.2-1.7-2.2-2.6-3c-2.6-2.3-5.8-3.6-8.9-4.8
					c-4.1-1.6-7.9-3.2-10.5-7.1c-3.2-4.9-3.3-12-0.2-21.1c0.2-0.5-0.1-1.1-0.6-1.3c-0.5-0.2-1.1,0.1-1.3,0.6
					c-3.2,9.7-3.1,17.4,0.5,22.8c2.9,4.5,7.2,6.2,11.5,7.9c4.1,1.6,7.9,3.2,10.6,7.1c2.9,4.3,3.5,10.5,1.5,18.3
					c-0.1,0.5,0.2,1.1,0.7,1.2c0.1,0,0.2,0,0.2,0c0.5,0,0.9-0.3,1-0.8C415.3,411.6,415.1,405.6,412.8,401z"/>
				<path d="M462.9,380.7c-0.2,0-0.5-0.1-0.7-0.3c-2.5-2.3-7.6-6.3-14.2-6.2c-5.7,0.1-11.6,3.3-13.5,4.4c-0.5,0.3-0.9,0.5-1.1,0.7
					c-0.5,0.3-1.1,0.1-1.4-0.3c-0.3-0.5-0.1-1.1,0.3-1.4c0.3-0.2,0.7-0.4,1.2-0.7c2-1.1,8.2-4.6,14.4-4.7c7.2-0.1,12.9,4.2,15.6,6.7
					c0.4,0.4,0.4,1,0,1.4C463.4,380.6,463.2,380.7,462.9,380.7z"/>
			</g>
			<g id="eyes">
				<path d="M498,397.4c0,3.3-2.7,6-6,6c-0.8,0-1.6-0.2-2.2-0.4c-0.3-0.7-0.7-1.3-1.1-1.9c-0.8-1.3-1.7-2.3-2.6-3.2
					c0-0.1,0-0.2,0-0.3c0-3.3,2.7-6,6-6C495.3,391.4,498,394.1,498,397.4z"/>
				<path d="M421,395.4c0,3.3-2.7,6-6,6c-0.8,0-1.5-0.1-2.2-0.4c-0.3-0.7-0.7-1.3-1.1-2c-0.8-1.2-1.7-2.2-2.6-3c0-0.2,0-0.4,0-0.6
					c0-3.3,2.7-6,6-6C418.3,389.4,421,392.1,421,395.4z"/>
			</g>
			<path id="mouth" d="M444,470c-0.5,0-1-0.4-1-1c0-0.6,0.4-1,1-1c7.8-0.1,15.6-2,22.5-5.4c5.1-2.5,9.7-5.8,13.7-9.8
				c0.4-0.4,1-0.4,1.4,0c0.4,0.4,0.4,1,0,1.4c-4.2,4.2-9,7.6-14.3,10.2C460.2,468,452.1,469.9,444,470C444,470,444,470,444,470z"/>
			<g id="hair_1_">
				<path id="hair" d="M662.9,228c0.5-36.7-28.8-66.9-65.5-67.4c-36.7-0.5-66.9,28.8-67.4,65.5c-0.1,10.2,2,19.9,6,28.5
					c-18-4.3-37.1-5.3-55-2.1c-10.1,1.8-36,6.9-54,28c-4.5,5.3-14,16.7-16,34c-0.9,7.9,0,14.6,1,19c0.1,0,0.2-0.1,0.3-0.2
					c68.4-34.3,97.9-32.8,110.7-20.8c20,18.7,3.2,66.8,28,81c8.6,5,18.8,3.8,26.3,1.9c-2.2,11.3-7.1,61.5-7.4,68.4
					c-0.8,13.4-1.5,26.8-2.3,40.2c9.6-6.7,21.2-16.5,31.8-30.3c25.8-33.6,28.8-68.8,29.7-81.1c3.4-47.7-16-83.1-24-96
					c-0.7-1.1-1.5-2.2-2.4-3.3C636,290.2,662.4,262.3,662.9,228z"/>
				<path id="scrunchy" class="st2" d="M611.9,309.5c-14-5.1-30.9-12.7-49-24c-18.6-11.6-33.2-23.9-44.1-34.5
					c3.7-6.4,7.3-12.7,11-19.1c9.7,10.4,25.1,24.6,47.1,36.5c18.8,10.2,36.2,15.3,49,18C621.2,294.2,616.5,301.9,611.9,309.5z"/>
			</g>
			<path d="M464.7,507.7c-0.5,0-0.9-0.3-1-0.8c-0.1-0.5,0.3-1.1,0.8-1.1c6.4-1.1,12.9-2.5,19.2-4.2c8.6-2.3,17.2-5.3,25.4-8.7
				c0.5-0.2,1.1,0,1.3,0.5s0,1.1-0.5,1.3c-8.3,3.5-16.9,6.5-25.6,8.8c-6.3,1.7-12.9,3.1-19.4,4.2
				C464.8,507.7,464.8,507.7,464.7,507.7z"/>
			<g id="ear">
				<path class="st4" d="M600.9,385.5c-3.3-0.7-6.5-1-9.7-0.8c-5.7,0.3-11.1,1.9-15.9,4.6c-0.9,0.5-1.7,1-2.5,1.6
					c-0.7,0.5-1.4,1-2.1,1.5c-6.8,5.1-11.8,12.7-13.7,21.6c-4.3,20,8.5,39.7,28.5,44c20,4.3,39.7-8.5,44-28.5
					C633.7,409.5,621,389.8,600.9,385.5z"/>
				<path d="M577.5,435.6c-0.4,0-0.7-0.2-0.9-0.5c-0.2-0.5-0.1-1.1,0.4-1.3c3.3-1.7,5.5-5.1,5.7-8.8c0.2-3.8-1.7-7.5-5-9.5
					c-0.3-0.2-0.5-0.5-0.5-0.9s0.2-0.7,0.5-0.9l33.8-19.3c0.5-0.3,1.1-0.1,1.4,0.4c0.3,0.5,0.1,1.1-0.4,1.4l-32.4,18.6
					c3.1,2.5,4.9,6.4,4.6,10.4c-0.2,4.4-2.9,8.5-6.8,10.5C577.8,435.5,577.7,435.6,577.5,435.6z"/>
			</g>
			<polygon id="earring" class="st5" points="577.5,442.8 546.2,461.3 582.5,479.7 			"/>
		</g>
		<g id="blouse">
			<path class="st5" d="M801.3,648.6c-4.1,9.5-8.7,19-13.6,28.2c-20,37.7-45.6,72-76.2,102c-30.6,30-65.4,55.1-103.4,74.4
				c-1,0.5-1.4,1.7-0.9,2.7c-5.1,2.6-10.2,5-15.4,7.4c-1.2,0.6-2.5,1.1-3.8,1.7c-51.4,22.6-108.3,35.2-168,35.2
				c-69.2,0-134.4-16.8-191.9-46.6c0.5-1,0.1-2.2-0.8-2.7c-36.2-19-69.4-43.1-98.6-71.9c-6.2-6-12.3-12.4-18.2-19
				c-0.1-0.2-0.3-0.3-0.4-0.5c37.3-101.7,74.6-203.3,111.9-305c24.2,7.9,48.5,15.8,72.7,23.8v0c-0.8,25.9-1.9,52-3.1,78.5
				c-2.2,45.6-5,90.3-8.3,134.1c4.5-6.9,70.2-104.5,179.8-144.1c-0.9,21.8-1.9,45.2-2.3,53.6c35.1-23,70.1-46,105.2-68.9
				c0-0.3,0-0.7,0.1-1C682.8,534.9,767,613.6,801.3,648.6z"/>
			<path class="st0" d="M460.7,601.5c-0.2,0-0.3,0-0.5-0.1c-0.3-0.2-0.5-0.5-0.5-0.9l1.5-34.5c0-0.6,0.5-1,1-1c0.6,0,1,0.5,1,1
				l-1.4,32.6l94.2-61.7c0.5-0.3,1.1-0.2,1.4,0.3c0.3,0.5,0.2,1.1-0.3,1.4l-95.8,62.8C461.1,601.4,460.9,601.5,460.7,601.5z"/>
		</g>
		<g id="book">
			<path class="st3" d="M531.9,701.8v246.4c0,4.5-3.4,8.3-7.9,8.8c-56.5,6.1-113.1,12.3-169.6,18.4c-1.7,0.2-3.4-0.1-4.9-0.9
				c-41-20.4-82-40.9-123-61.3c-3.3-1.6-5.2-5.1-4.9-8.7c1.4-15.7,2.8-31.4,4.2-47.1c5.5-61.6,11.1-123.3,16.6-184.9
				c0.6-6.8,8.4-10.4,13.9-6.5c0.1,0,0.1,0.1,0.2,0.1l0,0c27.2,19.2,88.9,64.2,104.5,75.6c2.3,1.7,5.3,2.1,8,1.3l145.2-47.8l0,0
				l5.9-1.9C526,691.5,531.9,695.8,531.9,701.8z"/>
			<path class="st0" d="M328.5,965.2c0,0-0.1,0-0.1,0c-0.5-0.1-0.9-0.5-0.9-1.1l24-228.7c0.1-0.5,0.5-0.9,1.1-0.9
				c0.5,0.1,0.9,0.5,0.9,1.1l-24,228.7C329.4,964.8,329,965.2,328.5,965.2z"/>
			<path class="st0" d="M397.8,971.8c-0.5,0-1-0.4-1-1l-8.1-234.4c0-0.6,0.4-1,1-1c0.5-0.1,1,0.4,1,1l8.1,234.4
				C398.8,971.3,398.4,971.8,397.8,971.8C397.8,971.8,397.8,971.8,397.8,971.8z"/>
			<path class="st2" d="M301.5,791c-3.6,11.4-7.2,22.9-10.9,34.3c-2.7-9.7-5.4-19.5-8.1-29.2c-7.4,5.2-14.9,10.4-22.3,15.6
				c3.1-9.2,6.2-18.4,9.3-27.7c-8.5-1.8-17-3.7-25.5-5.5c8.6-3.7,17.2-7.4,25.9-11.1c-4-9.3-8.1-18.5-12.1-27.8
				c8.3,5.9,16.6,11.8,24.8,17.7c3.9-9.2,7.8-18.5,11.7-27.7c1.7,9.9,3.4,19.9,5.1,29.8c8.3-1.5,16.5-2.9,24.8-4.4
				c-5.4,7.3-10.9,14.6-16.3,22c6.9,5.9,13.8,11.8,20.7,17.7C319.5,793.5,310.5,792.3,301.5,791z"/>
			<path class="st5" d="M317.3,866.5c2,21-13.7,39.9-34.7,41.8c-21,2-39.9-13.7-41.8-34.7C266.3,871.3,291.8,868.9,317.3,866.5z"/>
			<path class="st0" d="M424.2,860.6c20.4,3.1,40.7,6.2,61.1,9.3c4.4,20.4,8.8,40.7,13.2,61.1c-19.7-3.9-39.5-7.8-59.2-11.7
				C434.3,899.8,429.3,880.2,424.2,860.6z"/>
			<path class="st6" d="M494,773.8c-5.7,12-17.4,19.4-29,17.1c-11.6-2.3-19.6-13.6-20.2-26.9c-4.2-0.8-8.4-1.7-12.7-2.5
				c-4.1,20.4,9.4,40.6,29.8,44.7s40.6-9.4,44.7-29.8C502.5,775.5,498.3,774.7,494,773.8z"/>
			<path class="st0" d="M514.4,695.3L514.4,695.3l-149.5,49.2c0,0-76.9-56.1-108.2-78.3l0,0l21.4-8.7l87.1,70L492,678.1L514.4,695.3
				z"/>
		</g>
		<g id="hands">
			<g id="hand_l">
				<path class="st4" d="M283.1,431.3c-12.8-27-35.6-47.8-40.2-51.9c-10.8-9.7-21-16.5-28.5-21c-3.1-3.2-8.1-4.5-12.7-2.9
					l-34.6,12.1l-7.2,17l-2.8-0.7c-0.9-0.2-1.8-0.3-2.6-0.3c-5.2,0-10,3.6-11.2,8.9c-0.1,0.4-0.1,0.7-0.2,1.1c0,0.1,0,0.2,0,0.2
					c0,0.3-0.1,0.5-0.1,0.8c0,0.1,0,0.2,0,0.3c0,0.2,0,0.5,0,0.7c0,0.1,0,0.3,0,0.4c0,0.2,0,0.4,0.1,0.6c0,0.2,0.1,0.3,0.1,0.5
					c0,0.2,0.1,0.3,0.1,0.4c0,0.2,0.1,0.4,0.1,0.6c0,0.1,0.1,0.2,0.1,0.3c0.1,0.2,0.1,0.5,0.2,0.7c0,0,0,0.1,0,0.1
					c1.2,3.1,3.8,5.7,7.1,6.8h0l-16.6,39.1c3.4,0.2,6.8-1.1,9.2-3.8l17.5-19.6l-8.3,17.6c-2.7,5.7-0.2,12.6,5.5,15.3h0
					c5.7,2.7,12.6,0.2,15.3-5.5l6.9-14.8l-3,9.2c-2,6,1.3,12.5,7.3,14.5h0c6,2,12.5-1.3,14.5-7.3l6.2-18.6
					c5.5,12,13.3,19.6,16.5,22.5c24.2,7.9,48.5,15.8,72.7,23.8C293.9,464,291,447.7,283.1,431.3z"/>
				<path d="M243.9,420.3c-0.2,0-0.5-0.1-0.7-0.3c-10.9-10.1-23.3-18.2-36.8-24.1c-15.6-6.8-32.2-10.6-49.3-11.1c-0.6,0-1-0.5-1-1
					c0-0.6,0.5-1,1-1c17.4,0.5,34.2,4.3,50.1,11.2c13.7,6,26.3,14.2,37.4,24.5c0.4,0.4,0.4,1,0.1,1.4
					C244.4,420.2,244.2,420.3,243.9,420.3z"/>
				<path d="M180.5,435.3c-0.1,0-0.3,0-0.4-0.1c-0.5-0.2-0.7-0.8-0.5-1.3l7-15c0.2-0.5,0.8-0.7,1.3-0.5c0.5,0.2,0.7,0.8,0.5,1.3
					l-7,15C181.2,435.1,180.9,435.3,180.5,435.3z"/>
				<path class="st4" d="M116.1,385.4l26-9.1L130,404.9l-6.1,2.1c-6.2,2.1-13-0.9-15.1-6.9C106.6,394.2,109.9,387.6,116.1,385.4z"/>
			</g>
			<g id="hand_r">
				<path class="st4" d="M617.3,844c-0.1,0.6-0.8,4.5-2.1,7.7c-5.7,14-53.3,30.5-73.6,35.1c-12.9,2.9-30.2,6.3-50.9,8.8
					c-6.2,1.3-12.3-2.7-13.6-8.9c-0.2-0.8-0.2-1.6-0.2-2.4c0-0.9,0.1-1.7,0.3-2.5c-5.6,0.4-10.9-3.4-12-9.1
					c-1.3-6.2,2.7-12.3,8.9-13.6l10.5-2.2l-16.8,2.5c-0.6,0.1-1.1,0.1-1.7,0.1c-5.6,0-10.5-4.1-11.4-9.8c-1-6.3,3.4-12.2,9.6-13.1
					l67.8-10.2v-11.9h-62.5c-6.3,0-11.5-5.2-11.5-11.5c0-6.3,5.2-11.5,11.5-11.5h62.5c0-9,0-17.9,0-26.9c12.2,0.5,29,3.1,46,12.9
					c21.7,12.5,34.4,32.1,38,45C619,834,617.3,844,617.3,844z"/>
				<path d="M473.9,860.1c-0.5,0-0.9-0.3-1-0.8c-0.1-0.5,0.3-1.1,0.8-1.2l61.6-11.7c0.6-0.1,1.1,0.3,1.2,0.8
					c0.1,0.5-0.3,1.1-0.8,1.2l-61.6,11.7C474,860.1,473.9,860.1,473.9,860.1z"/>
				<path d="M477,882.8c-0.5,0-0.9-0.3-1-0.8c-0.1-0.5,0.2-1.1,0.7-1.2l63.8-15.3c0.5-0.1,1.1,0.2,1.2,0.7c0.1,0.5-0.2,1.1-0.7,1.2
					l-63.8,15.3C477.2,882.8,477.1,882.8,477,882.8z"/>
				<path d="M564.7,792.5h-32.9c-0.6,0-1-0.4-1-1s0.4-1,1-1h32.9c0.6,0,1,0.4,1,1S565.3,792.5,564.7,792.5z"/>
			</g>
		</g>
	</g>
</g>
</svg>
